<?xml version="1.0" encoding="utf-8"?>
<!-- Generator: Adobe Illustrator 24.0.2, SVG Export Plug-In . SVG Version: 6.00 Build 0)  -->
<svg version="1.1" id="Layer_1" xmlns="http://www.w3.org/2000/svg" xmlns:xlink="http://www.w3.org/1999/xlink" x="0px" y="0px"
	 viewBox="0 0 270 210" style="enable-background:new 0 0 270 210;" xml:space="preserve">
<style type="text/css">
	.st0{fill:url(#XMLID_2_);}
	.st1{fill:url(#XMLID_3_);}
	.st2{fill:url(#XMLID_4_);}
	.st3{fill:url(#XMLID_5_);}
	.st4{fill:#3B3633;}
	.st5{fill:#6CA655;}
	.st6{fill:url(#XMLID_6_);}
	.st7{fill:url(#XMLID_7_);}
	.st8{fill:url(#XMLID_8_);}
	.st9{fill:url(#XMLID_9_);}
	.st10{fill:url(#XMLID_10_);}
	.st11{fill:url(#XMLID_11_);}
	.st12{fill:url(#XMLID_12_);}
	.st13{fill:url(#XMLID_13_);}
	.st14{fill:#439900;}
	.st15{opacity:0.51;fill:#439900;}
	.st16{fill:url(#XMLID_14_);}
	.st17{fill:url(#XMLID_15_);}
	.st18{fill:#E86E6B;}
	.st19{fill:url(#XMLID_16_);}
	.st20{fill:#D4CAC3;}
	.st21{fill:url(#XMLID_17_);}
	.st22{fill:url(#XMLID_18_);}
	.st23{fill:url(#XMLID_19_);}
	.st24{fill:url(#XMLID_20_);}
	.st25{fill:url(#XMLID_21_);}
	.st26{fill:url(#XMLID_22_);}
	.st27{fill:url(#XMLID_23_);}
	.st28{fill:url(#XMLID_24_);}
	.st29{fill:#FDCF97;}
	.st30{fill:url(#XMLID_25_);}
	.st31{fill:url(#XMLID_26_);}
	.st32{fill:url(#XMLID_27_);}
	.st33{fill:url(#XMLID_28_);}
	.st34{fill:url(#XMLID_29_);}
	.st35{fill:#5F3333;}
</style>
<linearGradient id="XMLID_2_" gradientUnits="userSpaceOnUse" x1="45.5682" y1="171.5948" x2="45.5682" y2="91.5386">
	<stop  offset="0" style="stop-color:#6CAF58"/>
	<stop  offset="0.2093" style="stop-color:#82BE58"/>
	<stop  offset="0.4695" style="stop-color:#95CB58"/>
	<stop  offset="0.7324" style="stop-color:#A1D358"/>
	<stop  offset="1" style="stop-color:#A5D658"/>
</linearGradient>
<path id="XMLID_11380_" class="st0" d="M60.14,165.13c-0.6-0.58-1.08-1.27-1.5-1.99c-0.19-0.33-0.37-0.67-0.55-1
	c-3.01-5.76-4.73-12.19-5-18.69c-0.05-1.14,0.11-2.55,1.17-2.99c0.31-0.13,0.63-0.12,0.94-0.06c-2.21-5.48-1.51-12.78-0.27-17.9
	c2.07-8.55,0.23-19.23-6.48-25.63c-4.38-4.18-10.8-5.91-16.81-5.16c-6.01,0.75-11.59,3.81-15.98,7.98
	c-6.26,5.95-9.09,14.38-5.83,22.59c0.37,0.94,1.08,1.71,1.78,2.44c0.19-0.19,0.44-0.31,0.77-0.23c2.84,0.68,5.55,1.07,8.39,0.19
	c2.54-0.79,4.81-2.39,6.37-4.54c0.66-0.9,2.18-0.03,1.51,0.88c-1.78,2.45-4.23,4.27-7.1,5.24c-2.76,0.93-5.47,0.76-8.23,0.2
	c3.63,3.69,7.37,7.32,10.77,11.2c2.69,3.07,4.52,6.8,6.97,10.11c5.24,7.11,10.39,15.65,18.83,19.4c8.59,4.42,18.8,5.59,28.17,3.22
	c1.62-0.41,3.08-1.11,4.41-1.99c0.06-0.18,0.14-0.35,0.21-0.53C76.02,172.21,66.36,171.18,60.14,165.13z M11.44,116.97
	c-0.13,0.96-0.27,1.92-0.4,2.88c-0.52,0.23-1.01-0.37-1.22-0.9c-0.35-0.88-0.57-1.81-0.65-2.75c-0.03-0.35,0.22-0.87,0.51-0.67
	l-0.01-0.51c0.26-0.59,1.23-0.46,1.58,0.07C11.6,115.63,11.53,116.33,11.44,116.97z M27.8,111.99c-1.61,0-2.92-1.31-2.92-2.92
	c0-1.61,1.31-2.91,2.92-2.91c1.61,0,2.91,1.3,2.91,2.91C30.71,110.69,29.41,111.99,27.8,111.99z M39.09,122.96
	c-4.24,0-7.68-2.62-7.68-5.85s3.44-5.85,7.68-5.85c4.24,0,7.68,2.62,7.68,5.85S43.33,122.96,39.09,122.96z"/>
<linearGradient id="XMLID_3_" gradientUnits="userSpaceOnUse" x1="226.5253" y1="199.7461" x2="226.5253" y2="154.6028">
	<stop  offset="0" style="stop-color:#6CAF58"/>
	<stop  offset="0.259" style="stop-color:#78BC58"/>
	<stop  offset="0.6277" style="stop-color:#82C859"/>
	<stop  offset="1" style="stop-color:#86CC59"/>
</linearGradient>
<path id="XMLID_11383_" class="st1" d="M225.66,162.06l-0.29-0.51c-0.05,0.03-0.1,0.05-0.15,0.08c0.92,2.09,1.96,4.88,2.59,7.45
	c-0.45-2.63-1.19-5.21-2.37-7.57c-0.01,0-0.01,0.01-0.02,0.01C225.5,161.71,225.61,161.87,225.66,162.06z"/>
<linearGradient id="XMLID_4_" gradientUnits="userSpaceOnUse" x1="215.244" y1="199.7462" x2="215.244" y2="154.6025">
	<stop  offset="0" style="stop-color:#6CAF58"/>
	<stop  offset="0.259" style="stop-color:#78BC58"/>
	<stop  offset="0.6277" style="stop-color:#82C859"/>
	<stop  offset="1" style="stop-color:#86CC59"/>
</linearGradient>
<path id="XMLID_11384_" class="st2" d="M208.38,177.32c-2.64,0.04-4.56-1.29-5.95-3.21c0.1,0.4,0.19,0.8,0.25,1.21
	c0.65,4.69,0.2,9.75-0.46,14.41c-0.3,2.15-0.7,4.4,0.01,6.46c1.94,5.65,16.84,3.32,21.24,1.45c1.87-0.79,3.56-2.21,4.26-4.12
	c0.91-2.47,0.46-6.57,0.73-9.32c0.36-3.59,0.22-7.29-0.11-10.91c-0.05,0.61-0.16,1.15-0.4,1.53
	C224.41,180.39,214.96,177.22,208.38,177.32z"/>
<linearGradient id="XMLID_5_" gradientUnits="userSpaceOnUse" x1="91.711" y1="157.5554" x2="91.711" y2="201.8281">
	<stop  offset="0" style="stop-color:#207E14"/>
	<stop  offset="0.5258" style="stop-color:#6CAF58"/>
	<stop  offset="0.6995" style="stop-color:#71B558"/>
	<stop  offset="0.9253" style="stop-color:#80C559"/>
	<stop  offset="1" style="stop-color:#86CC59"/>
</linearGradient>
<path id="XMLID_11385_" class="st3" d="M100.73,182.18c-6.15-0.31-12.21-2.11-17.54-5.19c-0.39-0.22-0.78-0.46-1.05-0.82
	c-0.34-0.46-0.42-1.05-0.47-1.62c-0.06-0.74-0.02-1.48,0.03-2.21c-0.41,2.51-0.66,5.07-1.19,7.47c-0.93,4.2-3.13,13.55-1.01,17.54
	c2.79,5.23,22.34,6.26,24.78,1.04c0.72-1.53,0.52-3.31,0.37-4.99c-0.39-4.16-1.08-9.37-0.38-13.47
	C103.31,181.33,102.13,182.25,100.73,182.18z"/>
<path id="XMLID_11386_" class="st4" d="M27.8,106.17c-1.61,0-2.92,1.3-2.92,2.91c0,1.61,1.31,2.92,2.92,2.92
	c1.61,0,2.91-1.31,2.91-2.92C30.71,107.47,29.41,106.17,27.8,106.17z"/>
<path id="XMLID_11387_" class="st5" d="M225.44,161.52c-0.02,0.01-0.04,0.02-0.06,0.03l0.29,0.51
	C225.61,161.87,225.5,161.71,225.44,161.52z"/>
<path id="XMLID_11388_" class="st5" d="M223.16,162.72c-7.04,3.68-14.38,6.79-21.9,9.36c0.33,0.73,0.72,1.4,1.17,2.02
	c1.39,1.92,3.32,3.25,5.95,3.21c6.59-0.1,16.03,3.08,19.56-2.48c0.24-0.38,0.36-0.92,0.4-1.53c0.09-1.15-0.13-2.63-0.52-4.22
	c-0.63-2.57-1.68-5.36-2.59-7.45C224.53,162,223.83,162.37,223.16,162.72z"/>
<path id="XMLID_11389_" class="st5" d="M87.51,170.24c-1.52-0.68-3.01-1.43-4.47-2.2c-0.12-0.06-0.25-0.12-0.37-0.18l0,0
	c-0.07,0.18-0.15,0.35-0.21,0.53c-0.42,1.27-0.67,2.6-0.75,3.95c-0.05,0.73-0.09,1.47-0.03,2.21c0.05,0.57,0.13,1.16,0.47,1.62
	c0.26,0.36,0.66,0.6,1.05,0.82c5.33,3.08,11.39,4.87,17.54,5.19c1.39,0.07,2.58-0.85,3.55-2.26c0.7-1.02,1.28-2.3,1.75-3.64
	c-2.97-0.68-5.93-1.44-8.84-2.37C93.89,172.87,90.65,171.65,87.51,170.24z"/>
<path id="XMLID_11390_" class="st5" d="M53.09,143.45c0.27,6.49,1.99,12.93,5,18.69c0.18,0.34,0.36,0.67,0.55,1
	c0.42,0.72,0.9,1.41,1.5,1.99c6.23,6.05,15.88,7.08,22.53,2.73l0,0c-0.12-0.07-0.23-0.14-0.35-0.21c-3.45-1.87-6.73-4.01-9.79-6.46
	c-0.23-0.19-0.47-0.37-0.7-0.55c-1.44-1.19-2.82-2.45-4.14-3.78c-0.25-0.25-0.49-0.51-0.74-0.77c-1.34-1.4-2.63-2.85-3.83-4.41
	c0,0,0,0-0.01-0.01c-2.07-2.7-4.2-5.65-4.79-8.91c-0.36-0.36-0.73-0.72-1.09-1.07c-0.57-0.56-1.29-1.14-2.03-1.29
	c-0.31-0.06-0.63-0.07-0.94,0.06C53.2,140.9,53.04,142.31,53.09,143.45z"/>
<linearGradient id="XMLID_6_" gradientUnits="userSpaceOnUse" x1="248.8587" y1="180.9069" x2="248.8587" y2="63.0273">
	<stop  offset="0" style="stop-color:#6CAF58"/>
	<stop  offset="0.2508" style="stop-color:#79BE59"/>
	<stop  offset="0.5569" style="stop-color:#86CC59"/>
	<stop  offset="0.6683" style="stop-color:#8ECE5B"/>
	<stop  offset="0.8449" style="stop-color:#A5D35F"/>
	<stop  offset="1" style="stop-color:#BFD864"/>
</linearGradient>
<path id="XMLID_11391_" class="st6" d="M248.73,141.76c1.91-4.15,1.69-10.85-1-15.37C249.79,131.33,249.95,139.1,248.73,141.76z"/>
<linearGradient id="XMLID_7_" gradientUnits="userSpaceOnUse" x1="168.6545" y1="180.9024" x2="168.6545" y2="63.0266">
	<stop  offset="0" style="stop-color:#6CAF58"/>
	<stop  offset="0.2508" style="stop-color:#79BE59"/>
	<stop  offset="0.5569" style="stop-color:#86CC59"/>
	<stop  offset="0.6683" style="stop-color:#8ECE5B"/>
	<stop  offset="0.8449" style="stop-color:#A5D35F"/>
	<stop  offset="1" style="stop-color:#BFD864"/>
</linearGradient>
<path id="XMLID_11392_" class="st7" d="M156.21,63.52c8.44,1.31,16.76,3.67,24.9,5.93C173.05,66.43,164.63,64.38,156.21,63.52z"/>
<linearGradient id="XMLID_8_" gradientUnits="userSpaceOnUse" x1="58.3228" y1="180.9083" x2="58.3228" y2="63.0239">
	<stop  offset="0" style="stop-color:#6CAF58"/>
	<stop  offset="0.2508" style="stop-color:#79BE59"/>
	<stop  offset="0.5569" style="stop-color:#86CC59"/>
	<stop  offset="0.6683" style="stop-color:#8ECE5B"/>
	<stop  offset="0.8449" style="stop-color:#A5D35F"/>
	<stop  offset="1" style="stop-color:#BFD864"/>
</linearGradient>
<path id="XMLID_11393_" class="st8" d="M58.18,141.58c0.02,0.4,0.07,0.79,0.14,1.18c0.05,0.05,0.1,0.1,0.15,0.14
	C58.36,142.47,58.25,142.03,58.18,141.58z"/>
<linearGradient id="XMLID_9_" gradientUnits="userSpaceOnUse" x1="153.1217" y1="180.9073" x2="153.1217" y2="63.0264">
	<stop  offset="0" style="stop-color:#6CAF58"/>
	<stop  offset="0.2508" style="stop-color:#79BE59"/>
	<stop  offset="0.5569" style="stop-color:#86CC59"/>
	<stop  offset="0.6683" style="stop-color:#8ECE5B"/>
	<stop  offset="0.8449" style="stop-color:#A5D35F"/>
	<stop  offset="1" style="stop-color:#BFD864"/>
</linearGradient>
<path id="XMLID_11394_" class="st9" d="M83.13,137.53c3.49,2.96,7.5,5.26,11.59,7.32c9.13,4.6,18.82,8.04,28.76,10.39
	c-1-0.9-2-1.8-3-2.7c-1.22-1.1-2.46-2.24-3.13-3.74c-0.63-1.43-0.66-3.06-0.55-4.62c0.59-8.4,4.9-17.52,10.3-23.93
	c6.88-8.17,16.54-13.95,26.98-16.16c3.07-0.65,6.3-0.99,9.31-0.11c2.46,0.71,4.61,2.19,6.72,3.65c3.7,2.55,7.4,5.11,11.1,7.66
	c4.81,3.32,9.87,6.96,11.96,12.42c2.01,5.26,0.75,11.4-2.37,16.09c-3.12,4.69-7.9,8.06-12.99,10.48c-3.49,1.66-7.18,2.89-10.93,3.86
	c22.17-2.26,43.74-10.2,61.98-22.99c2.69-1.89,5.37-3.93,7.17-6.68c1.18-1.79,2.02-3.91,3.77-5.15c1.09-0.77,2.06-1.13,2.95-1.2
	c-3.5-1.26-6.37-0.89-9.15-3.76c-1.66-1.72-2.85-3.76-3.92-5.87c-0.55,2.08-2.37,3.7-4.44,4.39c-2.24,0.76-4.68,0.64-7.03,0.42
	c-4.82-0.44-9.6-1.24-14.3-2.4c-4.24-1.05-8.79-2.67-10.98-6.45c-1.76-3.04-1.58-6.79-1.34-10.3c0.53-7.76,1.05-15.53,1.58-23.29
	c-2.66-1.42-5.41-2.7-8.2-3.88c0.43,0.35,0.78,0.77,0.91,1.36c0.16,0.75-0.05,1.53-0.29,2.25c-3.16,9.42-11.13,16.13-19.78,18.5
	c-8.65,2.37-17.86,0.82-26.21-2.67c-4.84-2.02-9.49-4.72-13.63-8.22c-1.72-1.45-10.48-9.07-10.93-11.3
	c-0.07-0.36,0.21-0.71,0.63-1.04c-7.25,3.61-12.88,8.52-17.67,14.16c1.29-0.94,2.71-1.57,4.33-1.55c2.24,0.03,4.18,1.32,5.93,2.79
	c4.62,4.4,8.97,9.37,10.82,15.47c3.62,11.97-5.63,20.64-16.43,23.76c-6.16,1.78-12.75,0.37-18.93-1.33c-2.38-0.66-4.83-1.39-6.71-3
	c-0.69-0.59-1.31-1.33-1.43-2.23c-0.05-0.38,0-0.75,0.08-1.12c-0.3,0.4-0.58,0.81-0.88,1.21c-2.98,3.95-7.67,7.42-11.32,11.44
	c1.41-0.84,3.02-1.35,4.77-1.29C74.23,128.36,78.55,133.65,83.13,137.53z"/>
<path id="XMLID_11396_" class="st5" d="M83.04,168.04c-0.24-0.13-0.48-0.26-0.72-0.39c0.12,0.07,0.23,0.15,0.35,0.21
	C82.79,167.93,82.92,167.98,83.04,168.04z"/>
<linearGradient id="XMLID_10_" gradientUnits="userSpaceOnUse" x1="82.6763" y1="180.9071" x2="82.6763" y2="63.0265">
	<stop  offset="0" style="stop-color:#6CAF58"/>
	<stop  offset="0.2508" style="stop-color:#79BE59"/>
	<stop  offset="0.5569" style="stop-color:#86CC59"/>
	<stop  offset="0.6683" style="stop-color:#8ECE5B"/>
	<stop  offset="0.8449" style="stop-color:#A5D35F"/>
	<stop  offset="1" style="stop-color:#BFD864"/>
</linearGradient>
<path id="XMLID_11395_" class="st10" d="M83.04,168.04c-0.24-0.13-0.48-0.26-0.72-0.39c0.12,0.07,0.23,0.15,0.35,0.21
	C82.79,167.93,82.92,167.98,83.04,168.04z"/>
<path id="XMLID_11398_" class="st5" d="M71.83,160.64c0.23,0.19,0.46,0.37,0.7,0.55C72.3,161.01,72.06,160.83,71.83,160.64z"/>
<linearGradient id="XMLID_11_" gradientUnits="userSpaceOnUse" x1="72.1812" y1="180.901" x2="72.1812" y2="63.0566">
	<stop  offset="0" style="stop-color:#6CAF58"/>
	<stop  offset="0.2508" style="stop-color:#79BE59"/>
	<stop  offset="0.5569" style="stop-color:#86CC59"/>
	<stop  offset="0.6683" style="stop-color:#8ECE5B"/>
	<stop  offset="0.8449" style="stop-color:#A5D35F"/>
	<stop  offset="1" style="stop-color:#BFD864"/>
</linearGradient>
<path id="XMLID_11397_" class="st11" d="M71.83,160.64c0.23,0.19,0.46,0.37,0.7,0.55C72.3,161.01,72.06,160.83,71.83,160.64z"/>
<path id="XMLID_11400_" class="st5" d="M63.12,151.68C63.12,151.68,63.11,151.67,63.12,151.68c-2.11-2.74-3.87-5.6-4.65-8.77
	c-0.05-0.05-0.1-0.1-0.15-0.14C58.91,146.02,61.04,148.98,63.12,151.68C63.11,151.67,63.12,151.68,63.12,151.68z"/>
<linearGradient id="XMLID_12_" gradientUnits="userSpaceOnUse" x1="60.7183" y1="180.9069" x2="60.7183" y2="63.0279">
	<stop  offset="0" style="stop-color:#6CAF58"/>
	<stop  offset="0.2508" style="stop-color:#79BE59"/>
	<stop  offset="0.5569" style="stop-color:#86CC59"/>
	<stop  offset="0.6683" style="stop-color:#8ECE5B"/>
	<stop  offset="0.8449" style="stop-color:#A5D35F"/>
	<stop  offset="1" style="stop-color:#BFD864"/>
</linearGradient>
<path id="XMLID_11399_" class="st12" d="M63.12,151.68C63.12,151.68,63.11,151.67,63.12,151.68c-2.11-2.74-3.87-5.6-4.65-8.77
	c-0.05-0.05-0.1-0.1-0.15-0.14C58.91,146.02,61.04,148.98,63.12,151.68C63.11,151.67,63.12,151.68,63.12,151.68z"/>
<path id="XMLID_11402_" class="st5" d="M67.69,156.86c-0.25-0.25-0.49-0.51-0.74-0.77C67.2,156.35,67.44,156.61,67.69,156.86z"/>
<linearGradient id="XMLID_13_" gradientUnits="userSpaceOnUse" x1="67.3194" y1="180.911" x2="67.3194" y2="63.0128">
	<stop  offset="0" style="stop-color:#6CAF58"/>
	<stop  offset="0.2508" style="stop-color:#79BE59"/>
	<stop  offset="0.5569" style="stop-color:#86CC59"/>
	<stop  offset="0.6683" style="stop-color:#8ECE5B"/>
	<stop  offset="0.8449" style="stop-color:#A5D35F"/>
	<stop  offset="1" style="stop-color:#BFD864"/>
</linearGradient>
<path id="XMLID_11401_" class="st13" d="M67.69,156.86c-0.25-0.25-0.49-0.51-0.74-0.77C67.2,156.35,67.44,156.61,67.69,156.86z"/>
<path id="XMLID_11403_" class="st14" d="M9.67,115.02l0.01,0.51c-0.29-0.2-0.54,0.32-0.51,0.67c0.08,0.94,0.31,1.87,0.65,2.75
	c0.21,0.53,0.7,1.13,1.22,0.9c0.13-0.96,0.27-1.92,0.4-2.88c0.09-0.64,0.16-1.34-0.19-1.88C10.9,114.56,9.93,114.43,9.67,115.02z"/>
<path id="XMLID_11404_" class="st15" d="M226.01,105.09c1.37,2.36,2.45,4.93,3.69,7.39c0.05-0.18,0.15-0.34,0.18-0.53
	c0.3-2.09-0.74-4.12-1.82-5.93c-8.09-13.54-20.25-24.62-34.49-31.41l-0.36,0.06c0,0.06-0.01,0.11-0.01,0.17
	C206.95,82.17,218.72,92.55,226.01,105.09z"/>
<linearGradient id="XMLID_14_" gradientUnits="userSpaceOnUse" x1="210.5864" y1="180.9072" x2="210.5864" y2="63.0269">
	<stop  offset="0" style="stop-color:#6CAF58"/>
	<stop  offset="0.2508" style="stop-color:#79BE59"/>
	<stop  offset="0.5569" style="stop-color:#86CC59"/>
	<stop  offset="0.6683" style="stop-color:#8ECE5B"/>
	<stop  offset="0.8449" style="stop-color:#A5D35F"/>
	<stop  offset="1" style="stop-color:#BFD864"/>
</linearGradient>
<path id="XMLID_11408_" class="st16" d="M192.96,108.44c2.19,3.78,6.74,5.4,10.98,6.45c4.7,1.16,9.48,1.96,14.3,2.4
	c2.36,0.22,4.79,0.33,7.03-0.42c2.06-0.7,3.88-2.32,4.44-4.39c-1.24-2.46-2.32-5.03-3.69-7.39c-7.29-12.54-19.06-22.93-32.81-30.25
	c-0.53,7.76-1.05,15.53-1.58,23.29C191.38,101.65,191.19,105.4,192.96,108.44z M195.85,97.67c0.41-6.09,0.83-12.17,1.24-18.26
	l0.28-0.04c11.08,5.28,20.54,13.9,26.83,24.44c0.84,1.41,1.66,2.99,1.42,4.61c-0.27,1.82-1.85,3.24-3.59,3.83
	c-1.74,0.59-3.64,0.5-5.47,0.33c-3.75-0.34-7.47-0.97-11.13-1.87c-3.3-0.81-6.84-2.08-8.54-5.02
	C195.52,103.32,195.67,100.41,195.85,97.67z"/>
<path id="XMLID_11407_" class="st14" d="M192.96,108.44c2.19,3.78,6.74,5.4,10.98,6.45c4.7,1.16,9.48,1.96,14.3,2.4
	c2.36,0.22,4.79,0.33,7.03-0.42c2.06-0.7,3.88-2.32,4.44-4.39c-1.24-2.46-2.32-5.03-3.69-7.39c-7.29-12.54-19.06-22.93-32.81-30.25
	c-0.53,7.76-1.05,15.53-1.58,23.29C191.38,101.65,191.19,105.4,192.96,108.44z M195.85,97.67c0.41-6.09,0.83-12.17,1.24-18.26
	l0.28-0.04c11.08,5.28,20.54,13.9,26.83,24.44c0.84,1.41,1.66,2.99,1.42,4.61c-0.27,1.82-1.85,3.24-3.59,3.83
	c-1.74,0.59-3.64,0.5-5.47,0.33c-3.75-0.34-7.47-0.97-11.13-1.87c-3.3-0.81-6.84-2.08-8.54-5.02
	C195.52,103.32,195.67,100.41,195.85,97.67z"/>
<path id="XMLID_11411_" class="st14" d="M21.56,126.26c2.87-0.97,5.32-2.79,7.1-5.24c0.66-0.91-0.85-1.79-1.51-0.88
	c-1.57,2.15-3.83,3.75-6.37,4.54c-2.84,0.89-5.55,0.5-8.39-0.19c-0.33-0.08-0.58,0.04-0.77,0.23c-0.43,0.43-0.46,1.27,0.3,1.46
	c0.47,0.11,0.94,0.2,1.41,0.29C16.08,127.02,18.79,127.19,21.56,126.26z"/>
<path id="XMLID_11413_" class="st14" d="M126,82.19c4.14,3.5,8.79,6.19,13.63,8.22c8.35,3.49,17.56,5.04,26.21,2.67
	c8.65-2.37,16.63-9.09,19.78-18.5c0.24-0.72,0.46-1.5,0.29-2.25c-0.13-0.59-0.48-1.01-0.91-1.36c-0.62-0.51-1.43-0.83-2.19-1.04
	c-0.56-0.16-1.13-0.31-1.7-0.47c-8.14-2.26-16.46-4.62-24.9-5.93c-2.27-0.35-4.55-0.62-6.84-0.79c-0.01,0.39-0.03,0.77-0.04,1.16
	c8.89,0.53,17.93,3.23,26.21,5.52c0.99,0.27,2.14,0.72,2.38,1.84c0.13,0.57-0.04,1.18-0.22,1.73c-2.42,7.23-8.54,12.39-15.19,14.21
	c-6.64,1.82-13.71,0.63-20.12-2.05c-3.71-1.55-7.28-3.62-10.46-6.31c-1.32-1.12-6.52-5.26-6.86-6.98c-0.16-0.82,0.52-1.52,1.15-1.97
	c6.73-4.87,14.21-6.32,21.83-6.05c0.02-0.4,0.07-0.79,0.07-1.19c-9.76-0.59-19.65,0.7-29.56,5.68c-0.6,0.3-2.03,0.87-2.86,1.53
	c-0.42,0.33-0.7,0.68-0.63,1.04C115.51,73.12,124.27,80.74,126,82.19z"/>
<path id="XMLID_11416_" class="st14" d="M77.02,120.15c1.88,1.6,4.33,2.34,6.71,3c6.18,1.7,12.78,3.11,18.93,1.33
	c10.8-3.12,20.05-11.78,16.43-23.76c-1.84-6.09-6.2-11.06-10.82-15.47c-1.75-1.47-3.69-2.76-5.93-2.79
	c-1.61-0.02-3.04,0.6-4.33,1.55c-1.66,1.21-3.07,2.96-4.28,4.65c-3.58,5.02-6.96,10.16-10.23,15.39c-2.57,4.1-5.99,7.19-7.61,11.91
	c-0.09,0.27-0.17,0.55-0.24,0.83c-0.08,0.37-0.13,0.75-0.08,1.12C75.71,118.82,76.34,119.56,77.02,120.15z M82.21,112.28
	c1.12-3.28,3.5-5.43,5.29-8.28c2.27-3.63,4.62-7.21,7.11-10.69c1.49-2.08,3.42-4.35,5.98-4.31c1.52,0.02,2.84,0.87,4.03,1.86
	c3.25,3.08,6.32,6.56,7.61,10.83c2.52,8.32-3.91,14.34-11.42,16.51c-4.28,1.24-8.87,0.26-13.16-0.92c-1.65-0.46-3.36-0.97-4.66-2.08
	c-0.48-0.41-0.91-0.93-1-1.55C81.93,113.18,82.06,112.72,82.21,112.28z"/>
<path id="XMLID_11419_" class="st14" d="M190.81,143.8c3.12-4.69,4.38-10.83,2.37-16.09c-2.09-5.46-7.15-9.1-11.96-12.42
	c-3.7-2.55-7.4-5.11-11.1-7.66c-2.11-1.46-4.26-2.93-6.72-3.65c-3.01-0.88-6.24-0.53-9.31,0.11c-10.45,2.21-20.11,7.99-26.98,16.16
	c-5.4,6.41-9.71,15.53-10.3,23.93c-0.11,1.56-0.08,3.19,0.55,4.62c0.66,1.5,1.91,2.64,3.13,3.74c1,0.9,2,1.8,3,2.7
	c12.96,3.07,26.37,4.26,39.66,3.29c1.26-0.09,2.5-0.27,3.76-0.4c3.75-0.97,7.43-2.2,10.93-3.86
	C182.91,151.86,187.69,148.49,190.81,143.8z M159.51,152.01c-6.62,1.23-19.62,3.74-25.04-1.14c-1.42-1.28-2.84-2.56-4.27-3.85
	c-0.88-0.79-1.78-1.62-2.26-2.7c-0.46-1.04-0.48-2.21-0.4-3.34c0.43-6.07,3.54-12.65,7.44-17.29c4.97-5.9,11.94-10.08,19.49-11.67
	c2.22-0.47,4.55-0.71,6.73-0.08c1.78,0.52,3.33,1.58,4.85,2.64c2.67,1.85,5.34,3.69,8.01,5.54c3.47,2.4,7.13,5.03,8.64,8.97
	c1.45,3.8,0.54,8.24-1.71,11.62c-2.26,3.39-5.71,5.82-9.38,7.57C167.79,150.1,163.67,151.24,159.51,152.01z"/>
<path id="XMLID_11420_" class="st14" d="M148.9,62.9c-4.05-0.21-8.1,0.02-12.1,0.9c-4.52,1-8.81,2.9-12.56,5.61
	c-0.67,0.49-1.41,1.24-1.24,2.12c0.37,1.85,5.97,6.32,7.4,7.52c3.42,2.89,7.27,5.12,11.27,6.8c6.91,2.89,14.52,4.17,21.68,2.21
	c7.16-1.96,13.75-7.52,16.36-15.31c0.2-0.6,0.38-1.24,0.24-1.86c-0.26-1.2-1.51-1.69-2.57-1.98C168.28,66.39,158.57,63.4,148.9,62.9
	z"/>
<path id="XMLID_11421_" class="st14" d="M86.22,119.24c4.93,1.36,10.19,2.48,15.1,1.06c8.61-2.49,15.99-9.4,13.1-18.94
	c-1.48-4.91-5.01-8.89-8.74-12.43c-1.37-1.13-2.88-2.1-4.62-2.13c-2.94-0.04-5.15,2.55-6.86,4.94c-2.86,4-5.55,8.1-8.16,12.27
	c-2.05,3.27-4.78,5.73-6.07,9.5c-0.17,0.5-0.32,1.03-0.25,1.56c0.1,0.71,0.6,1.31,1.14,1.78C82.37,118.13,84.32,118.72,86.22,119.24
	z"/>
<linearGradient id="XMLID_15_" gradientUnits="userSpaceOnUse" x1="210.7008" y1="180.9073" x2="210.7008" y2="63.0265">
	<stop  offset="0" style="stop-color:#6CAF58"/>
	<stop  offset="0.2508" style="stop-color:#79BE59"/>
	<stop  offset="0.5569" style="stop-color:#86CC59"/>
	<stop  offset="0.6683" style="stop-color:#8ECE5B"/>
	<stop  offset="0.8449" style="stop-color:#A5D35F"/>
	<stop  offset="1" style="stop-color:#BFD864"/>
</linearGradient>
<path id="XMLID_11424_" class="st17" d="M205.44,110.71c3.66,0.9,7.38,1.53,11.13,1.87c1.83,0.17,3.73,0.26,5.47-0.33
	c1.74-0.59,3.32-2,3.59-3.83c0.24-1.63-0.58-3.2-1.42-4.61c-6.29-10.54-15.75-19.16-26.83-24.44l-0.28,0.04
	c-0.41,6.09-0.83,12.17-1.24,18.26c-0.18,2.73-0.33,5.65,1.04,8.01C198.6,108.63,202.14,109.89,205.44,110.71z"/>
<path id="XMLID_11423_" class="st15" d="M205.44,110.71c3.66,0.9,7.38,1.53,11.13,1.87c1.83,0.17,3.73,0.26,5.47-0.33
	c1.74-0.59,3.32-2,3.59-3.83c0.24-1.63-0.58-3.2-1.42-4.61c-6.29-10.54-15.75-19.16-26.83-24.44l-0.28,0.04
	c-0.41,6.09-0.83,12.17-1.24,18.26c-0.18,2.73-0.33,5.65,1.04,8.01C198.6,108.63,202.14,109.89,205.44,110.71z"/>
<path id="XMLID_11422_" class="st14" d="M204.67,112.85c4.19,1.03,8.46,1.75,12.75,2.14c2.1,0.19,4.27,0.3,6.27-0.38
	c2-0.67,3.81-2.3,4.11-4.39c0.27-1.86-0.66-3.67-1.63-5.29c-7.21-12.08-18.06-21.96-30.76-28.01l-0.32,0.05
	c-0.47,6.98-0.95,13.95-1.42,20.93c-0.21,3.13-0.38,6.47,1.19,9.19C196.83,110.47,200.89,111.92,204.67,112.85z"/>
<path id="XMLID_11425_" class="st14" d="M185.85,142.24c2.68-4.03,3.77-9.31,2.04-13.83c-1.79-4.69-6.15-7.82-10.28-10.68
	c-3.18-2.2-6.36-4.39-9.54-6.59c-1.81-1.25-3.66-2.52-5.78-3.14c-2.59-0.75-5.37-0.46-8,0.1c-8.98,1.9-17.28,6.87-23.19,13.89
	c-4.64,5.51-8.34,13.35-8.85,20.57c-0.1,1.34-0.07,2.74,0.47,3.97c0.57,1.29,1.64,2.27,2.69,3.21c1.69,1.53,3.38,3.05,5.08,4.58
	c6.45,5.81,21.92,2.82,29.8,1.36c4.96-0.92,9.85-2.28,14.41-4.44C179.05,149.17,183.16,146.27,185.85,142.24z"/>
<path id="XMLID_11426_" class="st18" d="M39.09,111.26c-4.24,0-7.68,2.62-7.68,5.85s3.44,5.85,7.68,5.85c4.24,0,7.68-2.62,7.68-5.85
	S43.33,111.26,39.09,111.26z"/>
<linearGradient id="XMLID_16_" gradientUnits="userSpaceOnUse" x1="245.5326" y1="162.5147" x2="245.5326" y2="145.5579">
	<stop  offset="0" style="stop-color:#6CAF58"/>
	<stop  offset="0.259" style="stop-color:#78BC58"/>
	<stop  offset="0.6277" style="stop-color:#82C859"/>
	<stop  offset="1" style="stop-color:#86CC59"/>
</linearGradient>
<path id="XMLID_11427_" class="st19" d="M227.98,160.15c9.45,1.74,30.94,5.11,35.1-1.83c-7.27-2.11-14.05-4.31-19.8-8.97
	C238.97,153.74,233.36,157.21,227.98,160.15z"/>
<path id="XMLID_11428_" class="st20" d="M248.73,141.76c1.22-2.66,1.06-10.43-1-15.37c-1.09-2.62-2.71-4.45-4.96-4.28
	c-0.89,0.07-1.87,0.43-2.95,1.2c-1.75,1.24-2.6,3.36-3.77,5.15c-1.81,2.75-4.48,4.79-7.17,6.68
	c-18.24,12.79-39.81,20.73-61.98,22.99c-1.25,0.13-2.5,0.31-3.76,0.4c-13.29,0.96-26.69-0.22-39.66-3.29
	c-9.95-2.36-19.64-5.79-28.76-10.39c-4.09-2.06-8.1-4.36-11.59-7.32c-4.57-3.88-8.89-9.17-14.89-9.37
	c-1.75-0.06-3.36,0.45-4.77,1.29c-2.87,1.71-4.89,4.89-5.32,8.22c-0.18,1.36-0.15,2.66,0.04,3.91c0.07,0.45,0.18,0.89,0.28,1.32
	c0.78,3.17,2.55,6.03,4.65,8.77c0,0,0,0,0.01,0.01c1.2,1.56,2.49,3.01,3.83,4.41c0.25,0.26,0.49,0.52,0.74,0.77
	c1.33,1.33,2.71,2.59,4.14,3.78c0.23,0.19,0.46,0.37,0.7,0.55c3.06,2.45,6.34,4.59,9.79,6.46c0.24,0.13,0.48,0.26,0.72,0.39
	c1.47,0.78,2.96,1.52,4.47,2.2c3.14,1.41,6.38,2.62,9.67,3.67c2.91,0.93,5.87,1.68,8.84,2.37c1.43,0.33,2.87,0.68,4.3,0.96
	c21.68,4.23,43.63,4.99,65.47,1.31c8.64-1.46,17.16-3.63,25.46-6.46c7.52-2.57,14.86-5.68,21.9-9.36c0.67-0.35,1.38-0.73,2.07-1.09
	c0.05-0.03,0.1-0.05,0.15-0.08c0.02-0.01,0.04-0.02,0.06-0.03c0.01,0,0.01-0.01,0.02-0.01c0.84-0.44,1.67-0.9,2.53-1.36
	c5.38-2.93,10.99-6.41,15.3-10.8C245.52,147.08,247.43,144.58,248.73,141.76z"/>
<path id="XMLID_11429_" class="st20" d="M83.04,168.04c1.47,0.77,2.96,1.52,4.47,2.2C85.99,169.56,84.51,168.82,83.04,168.04z"/>
<path id="XMLID_11430_" class="st20" d="M72.53,161.2c3.06,2.45,6.34,4.59,9.79,6.46C78.87,165.79,75.59,163.64,72.53,161.2z"/>
<path id="XMLID_11431_" class="st20" d="M71.83,160.64c-1.44-1.19-2.82-2.45-4.14-3.78C69.01,158.19,70.39,159.45,71.83,160.64z"/>
<path id="XMLID_11432_" class="st20" d="M63.12,151.68c1.2,1.56,2.49,3.01,3.83,4.41C65.61,154.69,64.32,153.24,63.12,151.68z"/>
<linearGradient id="XMLID_17_" gradientUnits="userSpaceOnUse" x1="140.4621" y1="53.9217" x2="149.4217" y2="53.9217">
	<stop  offset="0" style="stop-color:#533421"/>
	<stop  offset="0.2807" style="stop-color:#573622"/>
	<stop  offset="0.5342" style="stop-color:#623D26"/>
	<stop  offset="0.7762" style="stop-color:#74492D"/>
	<stop  offset="0.9994" style="stop-color:#8C5936"/>
</linearGradient>
<path id="XMLID_11433_" class="st21" d="M146.27,45.57c-0.53-0.13-1.03-0.3-1.55-0.46c2.23,5.6,3.47,11.52,3.38,17.52
	c0.42,0.03,0.84,0.06,1.26,0.09C149.46,56.87,148.34,51.08,146.27,45.57z"/>
<path id="XMLID_11435_" class="st14" d="M147.06,71.25c-0.18,0.73,0.78,1.12,1.2,0.5c0.14-0.22,0.29-0.44,0.44-0.65
	c0.2-0.3,0.1-0.59-0.11-0.78c0.44-2.14,0.64-4.29,0.73-6.43c0.02-0.39,0.04-0.77,0.04-1.16c-0.42-0.03-0.84-0.07-1.26-0.09
	c-0.01,0.39-0.05,0.79-0.07,1.19C147.93,66.29,147.65,68.77,147.06,71.25z"/>
<linearGradient id="XMLID_18_" gradientUnits="userSpaceOnUse" x1="140.4615" y1="67.3463" x2="149.4217" y2="67.3463">
	<stop  offset="0" style="stop-color:#533421"/>
	<stop  offset="0.2807" style="stop-color:#573622"/>
	<stop  offset="0.5342" style="stop-color:#623D26"/>
	<stop  offset="0.7762" style="stop-color:#74492D"/>
	<stop  offset="0.9994" style="stop-color:#8C5936"/>
</linearGradient>
<path id="XMLID_11434_" class="st22" d="M147.06,71.25c-0.18,0.73,0.78,1.12,1.2,0.5c0.14-0.22,0.29-0.44,0.44-0.65
	c0.2-0.3,0.1-0.59-0.11-0.78c0.44-2.14,0.64-4.29,0.73-6.43c0.02-0.39,0.04-0.77,0.04-1.16c-0.42-0.03-0.84-0.07-1.26-0.09
	c-0.01,0.39-0.05,0.79-0.07,1.19C147.93,66.29,147.65,68.77,147.06,71.25z"/>
<linearGradient id="XMLID_19_" gradientUnits="userSpaceOnUse" x1="163.7008" y1="34.0211" x2="163.7008" y2="57.8252">
	<stop  offset="0" style="stop-color:#533421"/>
	<stop  offset="0.3071" style="stop-color:#563622"/>
	<stop  offset="0.5476" style="stop-color:#603C26"/>
	<stop  offset="0.7654" style="stop-color:#71472C"/>
	<stop  offset="0.9688" style="stop-color:#885634"/>
	<stop  offset="0.9994" style="stop-color:#8C5936"/>
</linearGradient>
<path id="XMLID_11436_" class="st23" d="M172.81,57.61c0.84-0.14,0.48-1.41-0.34-1.27c-7.25,1.25-12.87-3.64-16.83-9.77
	c-0.48,0.01-1,0.01-1.53,0C158.38,53.44,164.62,59.02,172.81,57.61z"/>
<linearGradient id="XMLID_20_" gradientUnits="userSpaceOnUse" x1="131.2298" y1="31.791" x2="171.9275" y2="31.791">
	<stop  offset="0" style="stop-color:#FF9620"/>
	<stop  offset="0.357" style="stop-color:#FE921E"/>
	<stop  offset="0.687" style="stop-color:#F98717"/>
	<stop  offset="0.9987" style="stop-color:#F2750D"/>
</linearGradient>
<path id="XMLID_11437_" class="st24" d="M141.69,36.07c1.83,3.03,3.35,6.22,4.58,9.5c2.68,0.66,5.47,0.95,7.84,0.99
	c-2.28-3.66-3.99-7.68-5.13-11.22c-0.15-0.06-0.32-0.09-0.47-0.16c-1.39-0.64-2.76-1.54-3.75-2.72c-0.25-0.3-1.8-3.09-2.24-4.32
	c-0.12-0.32-0.16-0.53-0.08-0.57c1.02-0.51,9.5-4.34,9.05-5.73c0.06,0.18,0.11,0.36,0.17,0.53c1.42,3.97,3.69,7.49,6.87,10.24
	c0.51,0.45,1.05,0.81,1.59,1.16c-0.6,0.48-1.21,0.96-1.92,1.38c-2.3,1.32-5.11,1.41-7.66,0.73c1.16,3.38,2.86,7.23,5.1,10.7
	c0.05,0,0.11,0,0.15,0c5.94-0.18,12.25-2.33,15.58-7.55c1.03-1.62,0.5-3.38-0.67-4.48c-4.17,1.12-8.52,0.79-12.17-2.35
	c-3.18-2.75-5.45-6.26-6.87-10.24c-0.58-1.61-1.08-3.28-1.59-4.94c0.04,0.3,0.12,0.6,0.14,0.9c-4.36,4.77-12.07,9.29-18.62,8.91
	c0.03,0.35,0.04,0.7,0.07,1.05c1.41,4.61,3.18,9.12,6.1,13c1.52,2.02,4.1,3.36,6.96,4.25c-1.15-2.89-2.54-5.69-4.17-8.38
	C140.12,36.01,141.26,35.36,141.69,36.07z"/>
<linearGradient id="XMLID_21_" gradientUnits="userSpaceOnUse" x1="140.4618" y1="40.6675" x2="149.4215" y2="40.6675">
	<stop  offset="0" style="stop-color:#533421"/>
	<stop  offset="0.2807" style="stop-color:#573622"/>
	<stop  offset="0.5342" style="stop-color:#623D26"/>
	<stop  offset="0.7762" style="stop-color:#74492D"/>
	<stop  offset="0.9994" style="stop-color:#8C5936"/>
</linearGradient>
<path id="XMLID_11439_" class="st25" d="M141.69,36.07c-0.43-0.72-1.57-0.06-1.13,0.66c1.62,2.68,3.02,5.49,4.17,8.38
	c0.51,0.16,1.02,0.33,1.55,0.46C145.04,42.29,143.52,39.11,141.69,36.07z"/>
<linearGradient id="XMLID_22_" gradientUnits="userSpaceOnUse" x1="131.2305" y1="40.6675" x2="171.9262" y2="40.6675">
	<stop  offset="0" style="stop-color:#FF9620"/>
	<stop  offset="0.357" style="stop-color:#FE921E"/>
	<stop  offset="0.687" style="stop-color:#F98717"/>
	<stop  offset="0.9987" style="stop-color:#F2750D"/>
</linearGradient>
<path id="XMLID_11438_" class="st26" d="M141.69,36.07c-0.43-0.72-1.57-0.06-1.13,0.66c1.62,2.68,3.02,5.49,4.17,8.38
	c0.51,0.16,1.02,0.33,1.55,0.46C145.04,42.29,143.52,39.11,141.69,36.07z"/>
<linearGradient id="XMLID_23_" gradientUnits="userSpaceOnUse" x1="152.3129" y1="34.0213" x2="152.3129" y2="57.8255">
	<stop  offset="0" style="stop-color:#533421"/>
	<stop  offset="0.3071" style="stop-color:#563622"/>
	<stop  offset="0.5476" style="stop-color:#603C26"/>
	<stop  offset="0.7654" style="stop-color:#71472C"/>
	<stop  offset="0.9688" style="stop-color:#885634"/>
	<stop  offset="0.9994" style="stop-color:#8C5936"/>
</linearGradient>
<path id="XMLID_11441_" class="st27" d="M148.99,35.35c1.14,3.54,2.85,7.56,5.13,11.22c0.53,0.01,1.05,0.02,1.53,0
	c-2.24-3.47-3.94-7.31-5.1-10.7C150.01,35.73,149.49,35.55,148.99,35.35z"/>
<linearGradient id="XMLID_24_" gradientUnits="userSpaceOnUse" x1="131.23" y1="40.9613" x2="171.9275" y2="40.9613">
	<stop  offset="0" style="stop-color:#FF9620"/>
	<stop  offset="0.357" style="stop-color:#FE921E"/>
	<stop  offset="0.687" style="stop-color:#F98717"/>
	<stop  offset="0.9987" style="stop-color:#F2750D"/>
</linearGradient>
<path id="XMLID_11440_" class="st28" d="M148.99,35.35c1.14,3.54,2.85,7.56,5.13,11.22c0.53,0.01,1.05,0.02,1.53,0
	c-2.24-3.47-3.94-7.31-5.1-10.7C150.01,35.73,149.49,35.55,148.99,35.35z"/>
<path id="XMLID_11444_" class="st29" d="M150.08,17.01c-0.73-5.02-5.28-10.65-8.8-10.25c-5.76-0.51-8.39,2.62-9.61,6.54
	c0.01-0.01,0.04-0.01,0.05-0.02c2.3,0.52,2.4,3.94,0.28,4.69c-0.4-0.08-0.78-0.22-1.17-0.35c0,0.03-0.01,0.07-0.01,0.1
	c-0.38,2.74,0.4,7.87,0.77,9.1c0.01,0,0.01,0,0.02,0c6.54,0.38,14.26-4.14,18.62-8.91C150.21,17.61,150.13,17.31,150.08,17.01z
	 M140.88,15.44c-0.57,0.93-2.32,0.74-2.29-0.62c0.02-0.92,0.06-2.02,0.9-2.59c0.46-0.32,1.11-0.17,1.5,0.2
	c0.53,0.49,0.49,1.32,0.5,1.98C141.5,14.92,141.23,15.26,140.88,15.44z"/>
<linearGradient id="XMLID_25_" gradientUnits="userSpaceOnUse" x1="131.2301" y1="29.0614" x2="171.9276" y2="29.0614">
	<stop  offset="0" style="stop-color:#FF9620"/>
	<stop  offset="0.357" style="stop-color:#FE921E"/>
	<stop  offset="0.687" style="stop-color:#F98717"/>
	<stop  offset="0.9987" style="stop-color:#F2750D"/>
</linearGradient>
<path id="XMLID_11446_" class="st30" d="M150.08,34.47c0.14,0.45,0.3,0.93,0.46,1.4c2.55,0.67,5.36,0.59,7.66-0.73
	c0.71-0.42,1.32-0.9,1.92-1.38c-0.54-0.34-1.08-0.71-1.59-1.16c-3.18-2.74-5.45-6.27-6.87-10.24c-0.07-0.17-0.12-0.36-0.17-0.53
	c0.45,1.4-8.03,5.23-9.05,5.73c-0.07,0.04-0.03,0.25,0.08,0.57c0.44,1.23,1.99,4.03,2.24,4.32c0.99,1.18,2.36,2.09,3.75,2.72
	c0.15,0.07,0.32,0.1,0.47,0.16c-0.05-0.17-0.12-0.35-0.17-0.52C148.56,34.02,149.83,33.68,150.08,34.47z"/>
<linearGradient id="XMLID_26_" gradientUnits="userSpaceOnUse" x1="151.2645" y1="21.8344" x2="151.2645" y2="36.3072">
	<stop  offset="0" style="stop-color:#FF9620"/>
	<stop  offset="0.1794" style="stop-color:#F98617"/>
	<stop  offset="0.3959" style="stop-color:#F4790F"/>
	<stop  offset="0.6037" style="stop-color:#F2750D"/>
	<stop  offset="0.9949" style="stop-color:#EA5B14"/>
</linearGradient>
<path id="XMLID_11445_" class="st31" d="M150.08,34.47c0.14,0.45,0.3,0.93,0.46,1.4c2.55,0.67,5.36,0.59,7.66-0.73
	c0.71-0.42,1.32-0.9,1.92-1.38c-0.54-0.34-1.08-0.71-1.59-1.16c-3.18-2.74-5.45-6.27-6.87-10.24c-0.07-0.17-0.12-0.36-0.17-0.53
	c0.45,1.4-8.03,5.23-9.05,5.73c-0.07,0.04-0.03,0.25,0.08,0.57c0.44,1.23,1.99,4.03,2.24,4.32c0.99,1.18,2.36,2.09,3.75,2.72
	c0.15,0.07,0.32,0.1,0.47,0.16c-0.05-0.17-0.12-0.35-0.17-0.52C148.56,34.02,149.83,33.68,150.08,34.47z"/>
<linearGradient id="XMLID_27_" gradientUnits="userSpaceOnUse" x1="149.6602" y1="34.0213" x2="149.6602" y2="57.8227">
	<stop  offset="0" style="stop-color:#533421"/>
	<stop  offset="0.3071" style="stop-color:#563622"/>
	<stop  offset="0.5476" style="stop-color:#603C26"/>
	<stop  offset="0.7654" style="stop-color:#71472C"/>
	<stop  offset="0.9688" style="stop-color:#885634"/>
	<stop  offset="0.9994" style="stop-color:#8C5936"/>
</linearGradient>
<path id="XMLID_11449_" class="st32" d="M150.08,34.47c-0.25-0.8-1.51-0.46-1.26,0.35c0.05,0.17,0.12,0.35,0.17,0.52
	c0.5,0.21,1.02,0.39,1.56,0.53C150.38,35.4,150.22,34.93,150.08,34.47z"/>
<linearGradient id="XMLID_28_" gradientUnits="userSpaceOnUse" x1="131.2296" y1="34.9478" x2="171.9283" y2="34.9478">
	<stop  offset="0" style="stop-color:#FF9620"/>
	<stop  offset="0.357" style="stop-color:#FE921E"/>
	<stop  offset="0.687" style="stop-color:#F98717"/>
	<stop  offset="0.9987" style="stop-color:#F2750D"/>
</linearGradient>
<path id="XMLID_11448_" class="st33" d="M150.08,34.47c-0.25-0.8-1.51-0.46-1.26,0.35c0.05,0.17,0.12,0.35,0.17,0.52
	c0.5,0.21,1.02,0.39,1.56,0.53C150.38,35.4,150.22,34.93,150.08,34.47z"/>
<linearGradient id="XMLID_29_" gradientUnits="userSpaceOnUse" x1="149.6602" y1="21.8356" x2="149.6602" y2="36.3068">
	<stop  offset="0" style="stop-color:#FF9620"/>
	<stop  offset="0.1794" style="stop-color:#F98617"/>
	<stop  offset="0.3959" style="stop-color:#F4790F"/>
	<stop  offset="0.6037" style="stop-color:#F2750D"/>
	<stop  offset="0.9949" style="stop-color:#EA5B14"/>
</linearGradient>
<path id="XMLID_11447_" class="st34" d="M150.08,34.47c-0.25-0.8-1.51-0.46-1.26,0.35c0.05,0.17,0.12,0.35,0.17,0.52
	c0.5,0.21,1.02,0.39,1.56,0.53C150.38,35.4,150.22,34.93,150.08,34.47z"/>
<path id="XMLID_11450_" class="st35" d="M131.73,13.27c-0.01,0.01-0.04,0.01-0.05,0.02c-0.19,0.16-0.42,0.28-0.73,0.29
	c-1.96,0.03-4.21,0.2-6.16,0.86c-0.06,0.24-0.1,0.49-0.1,0.75c2.07,0.6,4.08,1.76,6.15,2.42c0.39,0.12,0.78,0.27,1.17,0.35
	C134.13,17.22,134.03,13.79,131.73,13.27z"/>
<path id="XMLID_11451_" class="st4" d="M139.49,12.23c-0.83,0.57-0.87,1.68-0.9,2.59c-0.03,1.36,1.72,1.55,2.29,0.62
	c0.35-0.18,0.62-0.52,0.61-1.04c-0.01-0.66,0.03-1.49-0.5-1.98C140.6,12.06,139.95,11.91,139.49,12.23z"/>
</svg>
