<?xml version="1.0" encoding="UTF-8" standalone="no"?>
<!-- Generator: Adobe Illustrator 16.0.0, SVG Export Plug-In . SVG Version: 6.00 Build 0)  -->

<svg
   xmlns:dc="http://purl.org/dc/elements/1.1/"
   xmlns:cc="http://creativecommons.org/ns#"
   xmlns:rdf="http://www.w3.org/1999/02/22-rdf-syntax-ns#"
   xmlns:svg="http://www.w3.org/2000/svg"
   xmlns="http://www.w3.org/2000/svg"
   xmlns:sodipodi="http://sodipodi.sourceforge.net/DTD/sodipodi-0.dtd"
   xmlns:inkscape="http://www.inkscape.org/namespaces/inkscape"
   version="1.1"
   id="Capa_1"
   x="0px"
   y="0px"
   width="670"
   height="670"
   viewBox="0 0 670.00003 670.00003"
   xml:space="preserve"
   sodipodi:docname="button-close.svg"
   inkscape:version="0.92.4 (5da689c313, 2019-01-14)"><metadata
   id="metadata53"><rdf:RDF><cc:Work
       rdf:about=""><dc:format>image/svg+xml</dc:format><dc:type
         rdf:resource="http://purl.org/dc/dcmitype/StillImage" /><dc:title></dc:title></cc:Work></rdf:RDF></metadata><defs
   id="defs51" /><sodipodi:namedview
   pagecolor="#ffffff"
   bordercolor="#666666"
   borderopacity="1"
   objecttolerance="10"
   gridtolerance="10"
   guidetolerance="10"
   inkscape:pageopacity="0"
   inkscape:pageshadow="2"
   inkscape:window-width="1920"
   inkscape:window-height="1001"
   id="namedview49"
   showgrid="false"
   inkscape:zoom="0.54328358"
   inkscape:cx="335"
   inkscape:cy="293.95499"
   inkscape:window-x="-9"
   inkscape:window-y="-9"
   inkscape:window-maximized="1"
   inkscape:current-layer="layer1" />

<g
   id="g18"
   transform="translate(0,82.090024)">
</g>
<g
   id="g20"
   transform="translate(0,82.090024)">
</g>
<g
   id="g22"
   transform="translate(0,82.090024)">
</g>
<g
   id="g24"
   transform="translate(0,82.090024)">
</g>
<g
   id="g26"
   transform="translate(0,82.090024)">
</g>
<g
   id="g28"
   transform="translate(0,82.090024)">
</g>
<g
   id="g30"
   transform="translate(0,82.090024)">
</g>
<g
   id="g32"
   transform="translate(0,82.090024)">
</g>
<g
   id="g34"
   transform="translate(0,82.090024)">
</g>
<g
   id="g36"
   transform="translate(0,82.090024)">
</g>
<g
   id="g38"
   transform="translate(0,82.090024)">
</g>
<g
   id="g40"
   transform="translate(0,82.090024)">
</g>
<g
   id="g42"
   transform="translate(0,82.090024)">
</g>
<g
   id="g44"
   transform="translate(0,82.090024)">
</g>
<g
   id="g46"
   transform="translate(0,82.090024)">
</g>
<g
   inkscape:groupmode="layer"
   id="layer2"
   inkscape:label="Layer 2"
   transform="translate(0,82.090024)"><rect
     style="fill:#268281;fill-opacity:1;stroke:#ffffff;stroke-width:48.65015411;stroke-linecap:round;stroke-miterlimit:4;stroke-dasharray:none;stroke-opacity:1"
     id="rect4601"
     width="591.34985"
     height="591.34985"
     x="40.961208"
     y="-39.856873"
     ry="87.190041" /></g><g
   inkscape:groupmode="layer"
   id="layer1"
   inkscape:label="Layer 1"
   transform="translate(0,82.090024)"><g
     transform="matrix(0.91101665,0,0,0.91101665,68.547887,-18.072158)"
     id="g16"><g
       id="g14"><g
         id="g4609"
         transform="matrix(0.88837206,0,0,0.88837206,33.132301,39.500971)"><g
           style="fill:#ffffff"
           id="g6"><path
             style="fill:#ffffff"
             id="path2"
             d="m 86.451,501.46 c 26.937,26.936 58.315,48.088 93.265,62.871 36.207,15.314 74.642,23.078 114.239,23.078 39.596,0 78.032,-7.764 114.239,-23.078 34.949,-14.783 66.328,-35.936 93.266,-62.871 26.936,-26.938 48.09,-58.316 62.871,-93.266 15.314,-36.207 23.08,-74.643 23.08,-114.238 0,-39.598 -7.766,-78.033 -23.08,-114.239 C 549.55,144.767 528.395,113.389 501.46,86.452 474.522,59.515 443.144,38.362 408.194,23.58 371.986,8.265 333.551,0.501 293.955,0.501 254.358,0.501 215.923,8.266 179.716,23.58 144.766,38.362 113.388,59.516 86.451,86.452 59.514,113.388 38.361,144.767 23.578,179.716 8.265,215.923 0.5,254.358 0.5,293.956 c 0,39.596 7.765,78.031 23.079,114.238 14.782,34.95 35.936,66.328 62.872,93.266 z M 293.955,43.341 c 138.411,0 250.614,112.204 250.614,250.615 0,138.41 -112.203,250.613 -250.614,250.613 C 155.544,544.569 43.34,432.366 43.34,293.956 43.34,155.545 155.544,43.341 293.955,43.341 Z"
             inkscape:connector-curvature="0" /><path
             style="fill:#ffffff"
             id="path4"
             d="m 293.955,587.909 c -39.667,0 -78.167,-7.778 -114.434,-23.117 C 144.511,549.983 113.079,528.794 86.098,501.813 59.115,474.829 37.926,443.396 23.119,408.388 7.778,372.119 0,333.618 0,293.956 0,254.293 7.778,215.791 23.118,179.521 37.925,144.513 59.115,113.081 86.097,86.098 113.079,59.115 144.512,37.926 179.52,23.119 215.79,7.779 254.291,0.001 293.954,0.001 c 39.666,0 78.167,7.778 114.433,23.119 35.009,14.807 66.441,35.997 93.425,62.979 26.984,26.985 48.173,58.417 62.979,93.423 15.341,36.27 23.119,74.771 23.119,114.434 0,39.662 -7.778,78.163 -23.119,114.433 -14.806,35.007 -35.994,66.439 -62.979,93.425 -26.982,26.98 -58.415,48.169 -93.425,62.979 -36.266,15.338 -74.767,23.116 -114.432,23.116 z m 0,-586.908 C 254.426,1.001 216.057,8.752 179.911,24.04 145.022,38.797 113.696,59.914 86.805,86.805 59.913,113.697 38.796,145.022 24.039,179.91 8.751,216.057 1,254.427 1,293.956 1,333.483 8.751,371.854 24.039,408 c 14.757,34.889 35.874,66.214 62.766,93.106 26.89,26.889 58.215,48.006 93.106,62.765 36.142,15.287 74.512,23.038 114.044,23.038 39.532,0 77.901,-7.751 114.044,-23.039 34.89,-14.758 66.216,-35.875 93.106,-62.764 26.893,-26.895 48.009,-58.22 62.764,-93.106 15.289,-36.146 23.041,-74.516 23.041,-114.044 0,-39.529 -7.752,-77.899 -23.041,-114.044 C 549.115,145.025 527.998,113.7 501.105,86.806 474.213,59.915 442.887,38.798 407.999,24.041 371.855,8.752 333.485,1.001 293.955,1.001 Z m 0,544.068 C 226.88,545.069 163.819,518.949 116.39,471.52 68.961,424.09 42.84,361.031 42.84,293.956 c 0,-67.075 26.12,-130.136 73.55,-177.565 47.429,-47.429 110.49,-73.55 177.565,-73.55 67.075,0 130.135,26.121 177.564,73.55 47.43,47.43 73.55,110.49 73.55,177.565 0,67.075 -26.12,130.135 -73.55,177.564 -47.429,47.429 -110.49,73.549 -177.564,73.549 z m 0,-501.228 c -66.808,0 -129.617,26.017 -176.858,73.257 -47.24,47.241 -73.257,110.05 -73.257,176.858 0,66.808 26.017,129.617 73.257,176.856 47.24,47.24 110.05,73.257 176.858,73.257 66.808,0 129.617,-26.017 176.857,-73.257 47.24,-47.239 73.257,-110.049 73.257,-176.856 0,-66.808 -26.017,-129.618 -73.257,-176.858 C 423.571,69.857 360.763,43.841 293.955,43.841 Z"
             inkscape:connector-curvature="0" /></g><g
           style="fill:#ffffff"
           id="g12"><path
             style="fill:#ffffff"
             id="path8"
             d="m 184.92,402.989 c 4.183,4.184 9.664,6.275 15.146,6.275 5.482,0 10.964,-2.092 15.146,-6.275 l 78.742,-78.742 78.743,78.742 c 4.182,4.184 9.664,6.275 15.146,6.275 5.482,0 10.963,-2.092 15.146,-6.275 8.365,-8.363 8.365,-21.926 0,-30.291 l -78.744,-78.742 78.742,-78.743 c 8.365,-8.365 8.365,-21.928 0,-30.292 -8.363,-8.365 -21.926,-8.365 -30.291,0 l -78.743,78.743 -78.742,-78.743 c -8.365,-8.365 -21.928,-8.365 -30.292,0 -8.365,8.365 -8.365,21.927 0,30.292 l 78.743,78.743 -78.743,78.742 c -8.364,8.365 -8.364,21.928 10e-4,30.291 z"
             inkscape:connector-curvature="0" /><path
             style="fill:#ffffff"
             id="path10"
             d="m 387.844,409.765 c -5.856,0 -11.36,-2.28 -15.5,-6.422 l -78.389,-78.389 -78.388,78.389 c -4.14,4.142 -9.645,6.422 -15.5,6.422 -5.855,0 -11.36,-2.28 -15.5,-6.422 -4.14,-4.14 -6.42,-9.644 -6.42,-15.498 0,-5.855 2.28,-11.359 6.42,-15.5 l 78.389,-78.389 -78.389,-78.389 c -8.546,-8.547 -8.546,-22.453 0,-31 4.14,-4.14 9.644,-6.42 15.5,-6.42 5.855,0 11.36,2.28 15.5,6.42 l 78.389,78.389 78.389,-78.389 c 4.141,-4.14 9.645,-6.42 15.5,-6.42 5.854,0 11.358,2.28 15.498,6.42 4.141,4.14 6.42,9.645 6.42,15.5 0,5.855 -2.279,11.36 -6.42,15.5 l -78.389,78.389 78.391,78.389 c 4.141,4.141 6.421,9.645 6.421,15.5 0,5.854 -2.28,11.358 -6.421,15.498 -4.143,4.141 -9.647,6.422 -15.501,6.422 z m -93.889,-86.225 79.096,79.096 c 3.95,3.952 9.204,6.129 14.793,6.129 5.587,0 10.841,-2.177 14.793,-6.129 3.951,-3.95 6.128,-9.203 6.128,-14.791 0,-5.588 -2.177,-10.842 -6.128,-14.793 l -79.098,-79.096 79.096,-79.096 c 3.951,-3.951 6.127,-9.205 6.127,-14.793 0,-5.588 -2.176,-10.841 -6.127,-14.792 -3.95,-3.951 -9.203,-6.127 -14.791,-6.127 -5.588,0 -10.842,2.176 -14.793,6.127 l -79.096,79.096 -79.096,-79.096 c -3.951,-3.951 -9.205,-6.127 -14.793,-6.127 -5.588,0 -10.841,2.176 -14.792,6.127 -8.156,8.157 -8.156,21.428 0,29.585 l 79.096,79.096 -79.096,79.096 c -3.951,3.951 -6.127,9.205 -6.127,14.793 0,5.588 2.176,10.841 6.127,14.791 3.952,3.952 9.205,6.129 14.793,6.129 5.588,0 10.841,-2.177 14.793,-6.129 z"
             inkscape:connector-curvature="0" /></g></g></g></g></g></svg>