<?xml version="1.0" encoding="utf-8"?>
<!-- Generator: Adobe Illustrator 24.0.2, SVG Export Plug-In . SVG Version: 6.00 Build 0)  -->
<svg version="1.1" id="Layer_1" xmlns="http://www.w3.org/2000/svg" xmlns:xlink="http://www.w3.org/1999/xlink" x="0px" y="0px"
	 viewBox="0 0 50 50" style="enable-background:new 0 0 50 50;" xml:space="preserve">
<style type="text/css">
	.st0{fill:#C0B399;}
	.st1{fill:#FFFFFF;}
	.st2{fill:#462B17;}
	.st3{fill:#B0E2F1;}
	.st4{fill:#F6D436;}
	.st5{fill:#794833;}
	.st6{fill:#FDFAF3;}
</style>
<g>
	<path class="st0" d="M10.42,40.61c0,1.16-0.07,2.36,0.24,3.49c0.76,2.76,3.07,4.44,5.76,4.86c0.23,0.05,0.47,0.09,0.74,0.09
		c0.14,0.01,0.28,0.01,0.41,0c3.27,0,6.53,0,9.8,0c3.49,0,8.41,0.84,11.4-1.19c3.67-2.5,2.93-7.38,2.93-11.25c0-4.53,0-9.06,0-13.59
		c0-1.66,0.15-3.4-0.4-4.98c-0.88-2.51-2.78-3.7-5.01-4.19c0-0.71,0-1.42,0-2.12c1.58-2.91,0-7.11-3.44-8.17
		c-2.08-0.64-4.65-0.29-6.79-0.29c-2.07,0-4.51-0.34-6.54,0.22c-3.56,0.98-5.33,5.27-3.69,8.26c0,0.71,0,1.43,0,2.14
		c-2.69,0.63-4.89,2.27-5.32,5.51c-0.23,1.69-0.09,3.53-0.09,5.24C10.42,29.95,10.42,35.28,10.42,40.61z"/>
	<path class="st1" d="M8.48,38.67c0,1.16-0.07,2.36,0.24,3.49c0.76,2.76,3.07,4.44,5.76,4.86c0.23,0.05,0.47,0.09,0.74,0.09
		c0.14,0.01,0.28,0.01,0.41,0c3.27,0,6.53,0,9.8,0c3.49,0,8.41,0.84,11.4-1.19c3.67-2.5,2.93-7.38,2.93-11.25c0-4.53,0-9.06,0-13.59
		c0-1.66,0.15-3.4-0.4-4.98c-0.88-2.51-2.78-3.7-5.01-4.19c0-0.71,0-1.42,0-2.12c1.58-2.91,0-7.11-3.44-8.17
		c-2.08-0.64-4.65-0.29-6.79-0.29c-2.07,0-4.51-0.34-6.54,0.22c-3.56,0.98-5.33,5.27-3.69,8.26c0,0.71,0,1.43,0,2.14
		C11.2,12.56,9,14.2,8.57,17.44c-0.23,1.69-0.09,3.53-0.09,5.24C8.48,28.01,8.48,33.34,8.48,38.67z"/>
	<g>
		<g>
			<g>
				<g>
					<path class="st1" d="M27.63,15.71h-1.69v-1.65c0-0.03-0.03-0.06-0.06-0.06h-3.52c-0.03,0-0.06,0.03-0.06,0.06v1.65H20.6v-1.65
						c0-0.97,0.79-1.75,1.75-1.75h3.52c0.97,0,1.75,0.79,1.75,1.75V15.71z"/>
					<path class="st2" d="M28.17,16.25h-2.78v-1.71h-2.56v1.71h-2.78v-2.2c0-1.27,1.03-2.3,2.3-2.3h3.52c1.27,0,2.3,1.03,2.3,2.3
						V16.25z M26.48,15.17h0.6v-1.11c0-0.67-0.54-1.21-1.21-1.21h-3.52c-0.67,0-1.21,0.54-1.21,1.21v1.11h0.6v-1.11
						c0-0.33,0.27-0.61,0.61-0.61h3.52c0.33,0,0.61,0.27,0.61,0.61V15.17z"/>
				</g>
			</g>
			<g>
				<path class="st3" d="M27.86,43.65h-7.48c-4.66,0-8.44-3.78-8.44-8.44v-11.7c0-4.66,3.78-8.44,8.44-8.44h7.48
					c4.66,0,8.44,3.78,8.44,8.44v11.7C36.29,39.87,32.52,43.65,27.86,43.65z"/>
				<path class="st2" d="M33.02,44.19H15.21c-2.11,0-3.82-1.71-3.82-3.82V18.35c0-2.11,1.71-3.82,3.82-3.82h17.81
					c2.11,0,3.82,1.71,3.82,3.82v22.02C36.84,42.48,35.12,44.19,33.02,44.19z M15.21,15.61c-1.51,0-2.73,1.23-2.73,2.73v22.02
					c0,1.51,1.23,2.73,2.73,2.73h17.81c1.51,0,2.73-1.23,2.73-2.73V18.35c0-1.51-1.23-2.73-2.73-2.73H15.21z"/>
			</g>
			<g>
				<g>
					<path class="st4" d="M16.07,15.07h-0.86c-1.81,0-3.28,1.47-3.28,3.28v0.86C14.22,19.2,16.07,17.35,16.07,15.07z"/>
					<path class="st2" d="M11.94,19.75h-0.54v-1.4c0-2.11,1.71-3.82,3.82-3.82h1.4v0.54C16.61,17.65,14.51,19.75,11.94,19.75z
						 M15.21,15.61c-1.51,0-2.73,1.23-2.73,2.73v0.27c1.54-0.24,2.77-1.46,3-3H15.21z"/>
				</g>
				<g>
					<path class="st4" d="M36.29,19.2v-0.86c0-1.81-1.47-3.28-3.28-3.28h-0.86C32.16,17.35,34.01,19.2,36.29,19.2z"/>
					<path class="st2" d="M36.84,19.75h-0.54c-2.58,0-4.68-2.1-4.68-4.68v-0.54h1.4c2.11,0,3.82,1.71,3.82,3.82V19.75z M32.74,15.61
						c0.24,1.54,1.46,2.77,3,3v-0.27c0-1.51-1.23-2.73-2.73-2.73H32.74z"/>
				</g>
				<g>
					<path class="st4" d="M11.94,39.51v0.86c0,1.81,1.47,3.28,3.28,3.28h0.86C16.07,41.36,14.22,39.51,11.94,39.51z"/>
					<path class="st2" d="M16.61,44.19h-1.4c-2.11,0-3.82-1.71-3.82-3.82v-1.4h0.54c2.58,0,4.68,2.1,4.68,4.68V44.19z M12.48,40.1
						v0.27c0,1.51,1.23,2.73,2.73,2.73h0.27C15.25,41.56,14.02,40.33,12.48,40.1z"/>
				</g>
				<g>
					<path class="st4" d="M36.29,40.37v-0.86c-2.28,0-4.13,1.85-4.13,4.13h0.86C34.83,43.65,36.29,42.18,36.29,40.37z"/>
					<path class="st2" d="M33.02,44.19h-1.4v-0.54c0-2.58,2.1-4.68,4.68-4.68h0.54v1.4C36.84,42.48,35.12,44.19,33.02,44.19z
						 M32.74,43.1h0.27c1.51,0,2.73-1.23,2.73-2.73V40.1C34.2,40.33,32.98,41.56,32.74,43.1z"/>
				</g>
			</g>
			<g>
				<g>
					<g>
						<rect x="16.83" y="26.2" class="st5" width="3.54" height="17.44"/>
						<path class="st2" d="M20.92,44.19h-4.63V25.66h4.63V44.19z M17.38,43.1h2.45V26.75h-2.45V43.1z"/>
					</g>
					<g>
						<path class="st5" d="M18.6,32.02L18.6,32.02c-0.98,0-1.77-0.79-1.77-1.77V15.07h3.54v15.18
							C20.38,31.23,19.58,32.02,18.6,32.02z"/>
						<path class="st2" d="M18.6,32.57c-1.28,0-2.32-1.04-2.32-2.32V14.53h4.63v15.73C20.92,31.53,19.88,32.57,18.6,32.57z
							 M17.38,15.61v14.64c0,0.68,0.55,1.23,1.23,1.23c0.68,0,1.23-0.55,1.23-1.23V15.61H17.38z"/>
					</g>
					<g>
						<path class="st2" d="M18.6,29.96c-1.28,0-2.32-1.04-2.32-2.32v-1.15c0-1.28,1.04-2.31,2.32-2.31c1.28,0,2.31,1.04,2.31,2.31
							v1.15C20.92,28.92,19.88,29.96,18.6,29.96z M18.6,25.27c-0.68,0-1.23,0.55-1.23,1.23v1.15c0,0.68,0.55,1.23,1.23,1.23
							c0.68,0,1.23-0.55,1.23-1.23v-1.15C19.83,25.82,19.28,25.27,18.6,25.27z"/>
					</g>
					<g>
						<g>
							<path class="st2" d="M18.6,30.36L18.6,30.36c-0.21,0-0.37-0.17-0.37-0.37v-3.51c0-0.21,0.17-0.37,0.37-0.37l0,0
								c0.21,0,0.37,0.17,0.37,0.37v3.51C18.98,30.19,18.81,30.36,18.6,30.36z"/>
						</g>
					</g>
				</g>
				<g>
					<g>
						<rect x="27.85" y="31.17" class="st5" width="3.54" height="12.47"/>
						<path class="st2" d="M31.94,44.19h-4.63V30.63h4.63V44.19z M28.4,43.1h2.45V31.72H28.4V43.1z"/>
					</g>
					<g>
						<path class="st5" d="M29.62,36.99L29.62,36.99c-0.98,0-1.77-0.79-1.77-1.77V15.07h3.54v20.15
							C31.39,36.2,30.6,36.99,29.62,36.99z"/>
						<path class="st2" d="M29.62,37.54c-1.28,0-2.32-1.04-2.32-2.31v-20.7h4.63v20.7C31.94,36.5,30.9,37.54,29.62,37.54z
							 M28.4,15.61v19.61c0,0.68,0.55,1.23,1.23,1.23c0.68,0,1.23-0.55,1.23-1.23V15.61H28.4z"/>
					</g>
					<g>
						<path class="st2" d="M29.62,34.93c-1.28,0-2.32-1.04-2.32-2.32v-1.15c0-1.28,1.04-2.31,2.32-2.31c1.28,0,2.31,1.04,2.31,2.31
							v1.15C31.94,33.89,30.9,34.93,29.62,34.93z M29.62,30.24c-0.68,0-1.23,0.55-1.23,1.23v1.15c0,0.68,0.55,1.23,1.23,1.23
							c0.68,0,1.23-0.55,1.23-1.23v-1.15C30.85,30.79,30.3,30.24,29.62,30.24z"/>
					</g>
					<g>
						<g>
							<path class="st2" d="M29.62,35.33L29.62,35.33c-0.21,0-0.37-0.17-0.37-0.37v-3.51c0-0.21,0.17-0.37,0.37-0.37l0,0
								c0.21,0,0.37,0.17,0.37,0.37v3.51C30,35.17,29.83,35.33,29.62,35.33z"/>
						</g>
					</g>
				</g>
			</g>
			<g>
				<g>
					<rect x="17.35" y="7.47" class="st1" width="1.33" height="7.6"/>
					<path class="st2" d="M19.22,15.61H16.8V6.93h2.42V15.61z M17.89,14.53h0.24V8.02h-0.24V14.53z"/>
				</g>
				<g>
					<rect x="29.56" y="7.47" class="st1" width="1.33" height="7.6"/>
					<path class="st2" d="M31.43,15.61h-2.42V6.93h2.42V15.61z M30.1,14.53h0.24V8.02H30.1V14.53z"/>
				</g>
			</g>
			<g>
				<g>
					<path class="st4" d="M30.96,8.46h-1.24c-0.3,0-0.54-0.24-0.54-0.54V7.18c0-0.05-0.04-0.08-0.08-0.08h-9.97
						c-0.05,0-0.08,0.04-0.08,0.08v0.74c0,0.3-0.24,0.54-0.54,0.54h-1.24c-0.3,0-0.54-0.24-0.54-0.54V7.18
						c0-1.33,1.08-2.41,2.41-2.41h9.97c1.33,0,2.41,1.08,2.41,2.41v0.74C31.51,8.22,31.26,8.46,30.96,8.46z"/>
					<path class="st2" d="M30.96,9h-1.24c-0.6,0-1.09-0.49-1.09-1.09V7.64h-9.05v0.28C19.59,8.52,19.1,9,18.5,9h-1.24
						c-0.6,0-1.09-0.49-1.09-1.09V7.18c0-1.63,1.32-2.95,2.95-2.95h9.97c1.63,0,2.95,1.32,2.95,2.95v0.74
						C32.05,8.52,31.56,9,30.96,9z M19.13,6.55h9.97c0.35,0,0.63,0.28,0.63,0.63v0.74l1.24,0l0-0.73c0-1.03-0.84-1.86-1.86-1.86
						h-9.97c-1.03,0-1.86,0.84-1.86,1.86v0.74l1.24,0l0-0.73C18.5,6.83,18.78,6.55,19.13,6.55z"/>
				</g>
			</g>
		</g>
		<path class="st6" d="M13.98,28.87L13.98,28.87c-0.3,0-0.54-0.24-0.54-0.54v-7.01c0-0.3,0.24-0.54,0.54-0.54l0,0
			c0.3,0,0.54,0.24,0.54,0.54v7.01C14.53,28.63,14.28,28.87,13.98,28.87z"/>
		<path class="st6" d="M13.98,33.48L13.98,33.48c-0.3,0-0.54-0.24-0.54-0.54v-2.15c0-0.3,0.24-0.54,0.54-0.54l0,0
			c0.3,0,0.54,0.24,0.54,0.54v2.15C14.53,33.23,14.28,33.48,13.98,33.48z"/>
		<path class="st6" d="M22.49,16.8L22.49,16.8c0-0.3,0.24-0.54,0.54-0.54h2.15c0.3,0,0.54,0.24,0.54,0.54l0,0
			c0,0.3-0.24,0.54-0.54,0.54h-2.15C22.74,17.34,22.49,17.1,22.49,16.8z"/>
	</g>
</g>
</svg>
