<?xml version="1.0" encoding="utf-8"?>
<!-- Generator: Adobe Illustrator 24.0.2, SVG Export Plug-In . SVG Version: 6.00 Build 0)  -->
<svg version="1.1" id="Layer_1" xmlns="http://www.w3.org/2000/svg" xmlns:xlink="http://www.w3.org/1999/xlink" x="0px" y="0px"
	 viewBox="0 0 30 30" style="enable-background:new 0 0 30 30;" xml:space="preserve">
<style type="text/css">
	.st0{fill:#268281;}
</style>
<g>
	<path class="st0" d="M9.72,13.19l0.85-0.94c0.7-0.78,1.06-1.78,1.01-2.83C11.53,8.37,11.08,7.4,10.3,6.7L8.86,5.4
		C8.13,4.74,7.2,4.38,6.23,4.38c-1.11,0-2.17,0.47-2.91,1.29L2.46,6.62c-0.11,0.12-0.21,0.25-0.31,0.4L2.11,7.06
		C1.3,7.75,0.61,9.43,1.01,11.48c1.83,9.56,9.88,16.84,19.58,17.7c1.27,0.12,2.47-0.15,3.38-0.7c0.36-0.21,0.68-0.47,0.96-0.77
		l0.85-0.94c1.45-1.61,1.33-4.09-0.28-5.54l-1.44-1.3c-0.72-0.65-1.66-1.01-2.63-1.01c-1.11,0-2.17,0.47-2.91,1.29l-0.85,0.94
		c-0.36,0.4-0.64,0.87-0.81,1.38l-0.08,0.23l-0.22-0.09c-3.81-1.5-6.91-4.35-8.74-8.02l-0.12-0.24l0.26-0.08
		C8.63,14.11,9.24,13.72,9.72,13.19z"/>
	<path class="st0" d="M14.52,1.87c0,0.5,0.41,0.91,0.92,0.91c6.41,0,11.63,5.22,11.63,11.63c0,0.51,0.41,0.91,0.92,0.91
		c0.51,0,0.91-0.41,0.91-0.91c0-7.42-6.04-13.46-13.46-13.46C14.93,0.95,14.52,1.36,14.52,1.87z"/>
	<path class="st0" d="M14.37,6.34c0,0.51,0.41,0.92,0.91,0.92c4.03,0,7.3,3.28,7.3,7.3c0,0.51,0.41,0.92,0.92,0.92
		c0.51,0,0.92-0.41,0.92-0.92c0-5.04-4.1-9.13-9.13-9.13C14.78,5.43,14.37,5.84,14.37,6.34z"/>
</g>
</svg>
