<?xml version="1.0" encoding="utf-8"?>
<!-- Generator: Adobe Illustrator 24.0.2, SVG Export Plug-In . SVG Version: 6.00 Build 0)  -->
<svg version="1.1" id="Layer_1" xmlns="http://www.w3.org/2000/svg" xmlns:xlink="http://www.w3.org/1999/xlink" x="0px" y="0px"
	 viewBox="0 0 48 48" style="enable-background:new 0 0 48 48;" xml:space="preserve">
<style type="text/css">
	.st0{fill:url(#XMLID_2_);}
	.st1{fill:#FFFFFF;}
</style>
<g id="XMLID_1621_">
	<radialGradient id="XMLID_2_" cx="-0.7935" cy="47.5585" r="87.6878" gradientUnits="userSpaceOnUse">
		<stop  offset="0" style="stop-color:#F5EC53"/>
		<stop  offset="0.2412" style="stop-color:#E48244"/>
		<stop  offset="0.3974" style="stop-color:#D15767"/>
		<stop  offset="0.4888" style="stop-color:#C84278"/>
		<stop  offset="1" style="stop-color:#192CFA"/>
	</radialGradient>
	<path id="XMLID_1630_" class="st0" d="M39.35,47.4H8.86c-4.68,0-8.47-3.79-8.47-8.47V8.44c0-4.68,3.79-8.47,8.47-8.47h30.49
		c4.68,0,8.47,3.79,8.47,8.47v30.49C47.82,43.61,44.03,47.4,39.35,47.4z"/>
	<g id="XMLID_1622_">
		<path id="XMLID_1627_" class="st1" d="M24.11,13.03c3.47,0,3.88,0.01,5.25,0.08c1.27,0.06,1.96,0.27,2.41,0.45
			c0.61,0.24,1.04,0.52,1.49,0.97c0.46,0.46,0.74,0.89,0.97,1.49c0.18,0.46,0.39,1.15,0.45,2.41c0.06,1.37,0.08,1.78,0.08,5.25
			c0,3.47-0.01,3.88-0.08,5.25c-0.06,1.27-0.27,1.96-0.45,2.41c-0.24,0.61-0.52,1.04-0.97,1.5c-0.45,0.45-0.89,0.74-1.49,0.97
			c-0.46,0.18-1.15,0.39-2.41,0.45c-1.37,0.06-1.78,0.08-5.25,0.08s-3.88-0.01-5.25-0.08c-1.27-0.06-1.96-0.27-2.41-0.45
			c-0.61-0.24-1.04-0.52-1.5-0.97c-0.45-0.46-0.74-0.89-0.97-1.5c-0.18-0.46-0.39-1.15-0.45-2.41c-0.06-1.37-0.08-1.78-0.08-5.25
			c0-3.47,0.01-3.88,0.08-5.25c0.06-1.27,0.27-1.96,0.45-2.41c0.24-0.61,0.52-1.04,0.97-1.49c0.46-0.46,0.89-0.74,1.5-0.97
			c0.46-0.18,1.15-0.39,2.41-0.45C20.22,13.04,20.64,13.03,24.11,13.03 M24.11,10.69c-3.53,0-3.97,0.02-5.36,0.08
			c-1.38,0.06-2.33,0.28-3.16,0.6c-0.86,0.33-1.58,0.78-2.3,1.5c-0.72,0.72-1.17,1.45-1.5,2.3c-0.32,0.83-0.54,1.77-0.6,3.16
			c-0.06,1.39-0.08,1.83-0.08,5.36c0,3.53,0.01,3.97,0.08,5.36c0.06,1.38,0.28,2.33,0.6,3.16c0.33,0.85,0.78,1.58,1.5,2.3
			c0.72,0.72,1.45,1.17,2.3,1.5c0.83,0.32,1.77,0.54,3.16,0.6c1.39,0.06,1.83,0.08,5.36,0.08s3.97-0.01,5.36-0.08
			c1.38-0.06,2.33-0.28,3.16-0.6c0.86-0.33,1.58-0.78,2.3-1.5c0.72-0.72,1.17-1.45,1.5-2.3c0.32-0.83,0.54-1.77,0.6-3.16
			c0.06-1.39,0.08-1.83,0.08-5.36c0-3.53-0.01-3.97-0.08-5.36c-0.06-1.38-0.28-2.33-0.6-3.16c-0.33-0.85-0.78-1.58-1.5-2.3
			c-0.72-0.72-1.45-1.17-2.3-1.5c-0.83-0.32-1.77-0.54-3.16-0.6C28.08,10.7,27.64,10.69,24.11,10.69"/>
		<path id="XMLID_1624_" class="st1" d="M24.11,17.01c-3.69,0-6.68,2.99-6.68,6.68s2.99,6.68,6.68,6.68c3.69,0,6.68-2.99,6.68-6.68
			S27.79,17.01,24.11,17.01 M24.11,28.02c-2.39,0-4.33-1.94-4.33-4.33c0-2.39,1.94-4.33,4.33-4.33s4.33,1.94,4.33,4.33
			C28.44,26.08,26.5,28.02,24.11,28.02"/>
		<path id="XMLID_1623_" class="st1" d="M32.61,16.75c0,0.86-0.7,1.56-1.56,1.56c-0.86,0-1.56-0.7-1.56-1.56
			c0-0.86,0.7-1.56,1.56-1.56C31.91,15.19,32.61,15.89,32.61,16.75"/>
	</g>
</g>
</svg>
