<?xml version="1.0" encoding="utf-8"?>
<!-- Generator: Adobe Illustrator 24.0.2, SVG Export Plug-In . SVG Version: 6.00 Build 0)  -->
<svg version="1.1" id="Layer_1" xmlns="http://www.w3.org/2000/svg" xmlns:xlink="http://www.w3.org/1999/xlink" x="0px" y="0px"
	 viewBox="0 0 50 50" style="enable-background:new 0 0 50 50;" xml:space="preserve">
<style type="text/css">
	.st0{fill:#FFFFFF;}
</style>
<g id="XMLID_61_">
	<path id="XMLID_73_" class="st0" d="M30.65,40h-5.81l0,0h-5.81c-0.2,0-0.35,0.16-0.35,0.35v0c0,0.13,0.08,0.25,0.2,0.32
		c0.19,0.1,0.46,0.37,0.46,1.08v2.45c0,2.51,2.03,4.54,4.54,4.54h0.97l0,0h0.97c2.51,0,4.54-2.03,4.54-4.54v-2.45
		c0-0.71,0.26-0.98,0.46-1.08c0.12-0.06,0.2-0.18,0.2-0.32v0C31,40.16,30.85,40,30.65,40z"/>
	<g id="XMLID_64_">
		<path id="XMLID_72_" class="st0" d="M24.84,7.59L24.84,7.59c-0.37,0-0.68-0.3-0.68-0.68V1.42c0-0.37,0.3-0.68,0.68-0.68l0,0
			c0.37,0,0.68,0.3,0.68,0.68v5.49C25.52,7.29,25.22,7.59,24.84,7.59z"/>
		<path id="XMLID_71_" class="st0" d="M32.82,9.46L32.82,9.46c-0.31-0.2-0.4-0.62-0.2-0.93l2.99-4.61c0.2-0.31,0.62-0.4,0.93-0.2
			l0,0c0.31,0.2,0.4,0.62,0.2,0.93l-2.99,4.61C33.55,9.58,33.13,9.67,32.82,9.46z"/>
		<path id="XMLID_70_" class="st0" d="M37.86,14.68L37.86,14.68c-0.15-0.34,0-0.74,0.34-0.89l5.02-2.23c0.34-0.15,0.74,0,0.89,0.34
			l0,0c0.15,0.34,0,0.74-0.34,0.89l-5.02,2.23C38.41,15.17,38.01,15.02,37.86,14.68z"/>
		<path id="XMLID_69_" class="st0" d="M39.38,21.8L39.38,21.8c0.06-0.37,0.4-0.62,0.77-0.56l5.43,0.86c0.37,0.06,0.62,0.4,0.56,0.77
			l0,0c-0.06,0.37-0.4,0.62-0.77,0.56l-5.43-0.86C39.58,22.51,39.32,22.16,39.38,21.8z"/>
		<path id="XMLID_68_" class="st0" d="M24.84,7.59L24.84,7.59c0.37,0,0.68-0.3,0.68-0.68V1.42c0-0.37-0.3-0.68-0.68-0.68l0,0
			c-0.37,0-0.68,0.3-0.68,0.68v5.49C24.17,7.29,24.47,7.59,24.84,7.59z"/>
		<path id="XMLID_67_" class="st0" d="M16.86,9.46L16.86,9.46c0.31-0.2,0.4-0.62,0.2-0.93l-2.99-4.61c-0.2-0.31-0.62-0.4-0.93-0.2
			l0,0c-0.31,0.2-0.4,0.62-0.2,0.93l2.99,4.61C16.13,9.58,16.55,9.67,16.86,9.46z"/>
		<path id="XMLID_66_" class="st0" d="M11.83,14.68L11.83,14.68c0.15-0.34,0-0.74-0.34-0.89l-5.02-2.23c-0.34-0.15-0.74,0-0.89,0.34
			l0,0c-0.15,0.34,0,0.74,0.34,0.89l5.02,2.23C11.28,15.17,11.68,15.02,11.83,14.68z"/>
		<path id="XMLID_65_" class="st0" d="M10.3,21.8L10.3,21.8c-0.06-0.37-0.4-0.62-0.77-0.56l-5.43,0.86
			c-0.37,0.06-0.62,0.4-0.56,0.77l0,0c0.06,0.37,0.4,0.62,0.77,0.56l5.43-0.86C10.11,22.51,10.36,22.16,10.3,21.8z"/>
	</g>
	<path id="XMLID_62_" class="st0" d="M24.84,9.57c-9,0-12.92,7.3-12.6,12.7c0.27,4.55,3.37,7.74,4.32,9.9
		c0.88,1.99,1.3,3.89,1.49,4.98c0.09,0.53,0.55,0.92,1.1,0.92h5.69h5.69c0.54,0,1-0.39,1.1-0.92c0.19-1.08,0.61-2.98,1.49-4.98
		c0.95-2.16,4.05-5.36,4.32-9.9C37.76,16.88,33.84,9.57,24.84,9.57z"/>
</g>
</svg>
