<?xml version="1.0" encoding="utf-8"?>
<!-- Generator: Adobe Illustrator 24.0.2, SVG Export Plug-In . SVG Version: 6.00 Build 0)  -->
<svg version="1.1" id="Layer_1" xmlns="http://www.w3.org/2000/svg" xmlns:xlink="http://www.w3.org/1999/xlink" x="0px" y="0px"
	 viewBox="0 0 48 48" style="enable-background:new 0 0 48 48;" xml:space="preserve">
<style type="text/css">
	.st0{fill:#C3271A;}
	.st1{fill:#FFFFFF;}
</style>
<g id="XMLID_1518_">
	<path id="XMLID_1523_" class="st0" d="M39.35,47.4H8.86c-4.68,0-8.47-3.79-8.47-8.47V8.44c0-4.68,3.79-8.47,8.47-8.47h30.49
		c4.68,0,8.47,3.79,8.47,8.47v30.49C47.82,43.61,44.03,47.4,39.35,47.4z"/>
	<g id="XMLID_1519_">
		<path id="XMLID_1521_" class="st1" d="M42.29,14.49c-0.44-1.64-1.72-2.94-3.36-3.38c-2.96-0.8-14.83-0.8-14.83-0.8
			s-11.87,0-14.83,0.8c-1.63,0.44-2.92,1.73-3.36,3.38c-0.79,2.98-0.79,9.2-0.79,9.2s0,6.22,0.79,9.2c0.44,1.64,1.72,2.94,3.36,3.38
			c2.96,0.8,14.83,0.8,14.83,0.8s11.87,0,14.83-0.8c1.63-0.44,2.92-1.73,3.36-3.38c0.79-2.98,0.79-9.2,0.79-9.2
			S43.09,17.47,42.29,14.49z"/>
		<polygon id="XMLID_1520_" class="st0" points="20.22,29.33 20.22,18.04 30.15,23.69 		"/>
	</g>
</g>
</svg>
