<?xml version="1.0" encoding="utf-8"?>
<!-- Generator: Adobe Illustrator 24.0.2, SVG Export Plug-In . SVG Version: 6.00 Build 0)  -->
<svg version="1.1" id="Layer_1" xmlns="http://www.w3.org/2000/svg" xmlns:xlink="http://www.w3.org/1999/xlink" x="0px" y="0px"
	 viewBox="0 0 50 50" style="enable-background:new 0 0 50 50;" xml:space="preserve">
<style type="text/css">
	.st0{fill:#FFFFFF;}
</style>
<g>
	<path class="st0" d="M47.8,26.72c0.93-0.17,1.63-0.98,1.63-1.96c0-0.98-0.7-1.79-1.63-1.96c0.88-0.33,1.44-1.25,1.27-2.21
		c-0.17-0.96-1-1.64-1.95-1.64c0.81-0.48,1.2-1.48,0.86-2.4c-0.33-0.92-1.27-1.44-2.2-1.28c0.72-0.61,0.92-1.67,0.44-2.51
		c-0.49-0.85-1.5-1.2-2.39-0.88c0.6-0.73,0.62-1.8-0.01-2.55c-0.63-0.75-1.69-0.92-2.51-0.45c0.47-0.82,0.3-1.88-0.45-2.51
		c-0.75-0.63-1.82-0.61-2.55-0.01c0.32-0.89-0.03-1.9-0.88-2.39c-0.85-0.49-1.9-0.28-2.51,0.44c0.16-0.93-0.36-1.87-1.28-2.2
		c-0.92-0.34-1.92,0.05-2.4,0.87c0-0.94-0.68-1.78-1.64-1.95c-0.96-0.17-1.88,0.38-2.21,1.27c-0.17-0.93-0.98-1.63-1.96-1.63
		c-0.98,0-1.79,0.7-1.96,1.63c-0.33-0.88-1.25-1.44-2.21-1.27c-0.96,0.17-1.64,1-1.64,1.95c-0.48-0.81-1.48-1.2-2.4-0.86
		c-0.92,0.33-1.44,1.27-1.28,2.2c-0.61-0.72-1.66-0.92-2.51-0.43c-0.85,0.49-1.2,1.5-0.88,2.39c-0.73-0.6-1.8-0.62-2.55,0.01
		C9.26,7,9.09,8.06,9.56,8.88c-0.82-0.47-1.88-0.3-2.51,0.45c-0.63,0.75-0.61,1.82-0.01,2.55c-0.89-0.32-1.9,0.03-2.39,0.88
		c-0.49,0.85-0.28,1.9,0.43,2.51c-0.93-0.16-1.87,0.36-2.2,1.28c-0.33,0.92,0.05,1.92,0.86,2.4c-0.94,0.01-1.78,0.68-1.95,1.64
		c-0.17,0.96,0.38,1.88,1.27,2.21c-0.93,0.17-1.63,0.98-1.63,1.96c0,0.98,0.7,1.79,1.63,1.96c-0.88,0.33-1.44,1.25-1.27,2.21
		c0.17,0.96,1,1.64,1.95,1.64c-0.81,0.48-1.2,1.48-0.86,2.4c0.33,0.92,1.27,1.44,2.2,1.28c-0.72,0.61-0.92,1.66-0.43,2.51
		c0.49,0.85,1.5,1.2,2.39,0.88c-0.6,0.73-0.62,1.8,0.01,2.55c0.63,0.75,1.69,0.92,2.51,0.45c-0.47,0.82-0.3,1.88,0.45,2.51
		c0.75,0.63,1.82,0.61,2.55,0.01c-0.32,0.89,0.03,1.9,0.88,2.39c0.85,0.49,1.9,0.28,2.51-0.43c-0.16,0.93,0.36,1.87,1.28,2.2
		c0.92,0.33,1.92-0.05,2.4-0.86c0.01,0.94,0.68,1.78,1.64,1.95c0.96,0.17,1.88-0.38,2.21-1.27c0.17,0.93,0.98,1.63,1.96,1.63
		c0.98,0,1.79-0.7,1.96-1.63c0.33,0.88,1.25,1.44,2.21,1.27c0.96-0.17,1.64-1,1.64-1.95c0.48,0.81,1.48,1.2,2.4,0.86
		c0.92-0.33,1.44-1.27,1.28-2.2c0.61,0.72,1.66,0.92,2.51,0.43c0.85-0.49,1.2-1.5,0.88-2.39c0.73,0.6,1.8,0.62,2.55-0.01
		c0.75-0.63,0.92-1.69,0.45-2.51c0.82,0.47,1.88,0.3,2.51-0.45c0.63-0.75,0.61-1.82,0.01-2.55c0.89,0.32,1.9-0.03,2.39-0.88
		c0.49-0.85,0.28-1.9-0.44-2.51c0.93,0.16,1.87-0.36,2.2-1.28c0.33-0.92-0.05-1.92-0.86-2.4c0.94-0.01,1.78-0.68,1.95-1.64
		C49.24,27.97,48.69,27.05,47.8,26.72z M45.36,28.25c0.77,0.36,1.19,1.23,0.97,2.08c-0.23,0.85-1.03,1.39-1.88,1.33
		c0.69,0.49,0.96,1.42,0.59,2.22c-0.37,0.8-1.25,1.19-2.08,0.98c0.6,0.6,0.7,1.57,0.2,2.29c-0.5,0.72-1.44,0.96-2.21,0.6
		c0.48,0.7,0.42,1.66-0.2,2.29c-0.62,0.62-1.59,0.69-2.29,0.21c0.36,0.77,0.12,1.71-0.6,2.22c-0.72,0.51-1.68,0.41-2.29-0.19
		c0.22,0.82-0.18,1.71-0.97,2.08c-0.8,0.37-1.73,0.11-2.22-0.58c0.07,0.85-0.47,1.65-1.32,1.88c-0.85,0.23-1.72-0.19-2.08-0.96
		c-0.08,0.85-0.75,1.54-1.63,1.62c-0.88,0.08-1.66-0.49-1.89-1.31c-0.22,0.82-1.01,1.39-1.88,1.31c-0.88-0.08-1.55-0.77-1.63-1.62
		c-0.36,0.77-1.23,1.19-2.08,0.97c-0.85-0.23-1.39-1.03-1.32-1.87c-0.49,0.69-1.42,0.96-2.22,0.59c-0.8-0.37-1.19-1.25-0.98-2.08
		c-0.6,0.6-1.57,0.7-2.29,0.2c-0.72-0.5-0.96-1.44-0.6-2.21c-0.7,0.48-1.66,0.42-2.29-0.2c-0.62-0.62-0.69-1.59-0.21-2.29
		c-0.77,0.36-1.71,0.12-2.22-0.6c-0.51-0.72-0.41-1.68,0.19-2.29c-0.82,0.22-1.71-0.18-2.08-0.97c-0.37-0.8-0.11-1.73,0.58-2.22
		c-0.85,0.07-1.65-0.47-1.88-1.32c-0.23-0.85,0.19-1.72,0.96-2.08c-0.85-0.08-1.54-0.75-1.62-1.63c-0.08-0.88,0.49-1.66,1.31-1.89
		c-0.82-0.22-1.39-1.01-1.31-1.88c0.08-0.88,0.77-1.55,1.62-1.63c-0.77-0.36-1.19-1.23-0.97-2.08c0.23-0.85,1.03-1.39,1.87-1.32
		c-0.69-0.49-0.96-1.42-0.59-2.22c0.37-0.8,1.25-1.19,2.08-0.98c-0.6-0.6-0.7-1.57-0.2-2.29c0.5-0.72,1.44-0.96,2.21-0.6
		c-0.48-0.7-0.42-1.66,0.21-2.29c0.62-0.62,1.59-0.69,2.29-0.21c-0.36-0.77-0.12-1.71,0.6-2.22c0.72-0.51,1.68-0.41,2.29,0.19
		c-0.22-0.82,0.18-1.71,0.97-2.08c0.8-0.37,1.73-0.11,2.22,0.58c-0.07-0.85,0.47-1.65,1.32-1.88c0.85-0.23,1.72,0.19,2.08,0.96
		C21.98,4,22.65,3.3,23.52,3.23c0.88-0.08,1.66,0.49,1.89,1.31c0.22-0.82,1.01-1.39,1.88-1.31c0.88,0.08,1.55,0.77,1.63,1.62
		c0.36-0.77,1.23-1.19,2.08-0.97c0.85,0.23,1.39,1.03,1.32,1.88c0.49-0.69,1.42-0.96,2.22-0.59c0.8,0.37,1.19,1.25,0.98,2.08
		c0.6-0.6,1.57-0.7,2.29-0.2c0.72,0.5,0.96,1.44,0.6,2.22c0.7-0.49,1.66-0.42,2.29,0.2c0.62,0.62,0.69,1.59,0.21,2.29
		c0.77-0.36,1.71-0.12,2.22,0.6c0.51,0.72,0.41,1.68-0.19,2.29c0.82-0.22,1.71,0.18,2.08,0.97c0.37,0.8,0.11,1.73-0.58,2.22
		c0.85-0.07,1.65,0.47,1.88,1.32c0.23,0.85-0.19,1.72-0.96,2.08c0.85,0.08,1.54,0.75,1.62,1.63c0.08,0.88-0.49,1.66-1.31,1.89
		c0.82,0.22,1.39,1.01,1.31,1.88C46.9,27.5,46.2,28.17,45.36,28.25z"/>
	<g>
		<g>
			<path class="st0" d="M30.25,34.57c0.64-0.35,5.02-2.77,5.02-2.77l0-0.03l-0.02-0.02l-4.29,1.74c0,0-0.07,0.03-0.1-0.04
				c-0.03-0.07,0.04-0.1,0.04-0.1l4.08-2.19l0-0.03l-0.02-0.02l-4.29,1.72c0,0-0.07,0.03-0.1-0.03c-0.03-0.06,0.04-0.09,0.04-0.09
				l4.08-2.18l0-0.03l-0.02-0.02l-4.3,1.72c0,0-0.07,0.03-0.1-0.04c-0.03-0.06,0.03-0.1,0.03-0.1l4.09-2.17l0-0.02l-0.02-0.02
				c0,0-4.67,1.8-5.35,2.07c-0.06,0.03-0.09,0.08-0.08,0.14c0.03,0.23,0,0.81-0.59,1.43c-0.59,0.66-9.63,4.11-11.61,4.82
				c-0.49,0.18-1.07,0.67-1.2,1.49l0,0c0.71,0.43,1.46,0.3,1.91,0.04c1.81-1.05,10.26-5.77,11.15-5.8c0.85-0.05,1.32,0.3,1.48,0.47
				C30.13,34.59,30.19,34.61,30.25,34.57z M16.88,38.46c0.38-0.14,0.52-0.15,0.52-0.15s-0.63,0.23-0.92,0.45
				c-0.25,0.18-0.49,0.42-0.78,0.99C15.88,39.03,16.43,38.62,16.88,38.46z M30.1,34.44c-0.16-0.17-0.59-0.53-1.45-0.48
				c0,0,0.59-0.12,1.26,0.22c0.09,0.05,0.3,0.17,0.46,0.12c0.17-0.06,0.46-0.19,1.13-0.52c-0.59,0.33-1.06,0.6-1.25,0.7
				C30.2,34.5,30.15,34.49,30.1,34.44z"/>
			<path class="st0" d="M34.12,38.23c-1.01-0.36-5.08-2-8.8-3.68c-3.63-2.03-7.88-3.72-8.52-4.07c-0.69-0.38-1.07,0.15-0.4,1.06
				c1.09,1.51,5.51,3.94,8.33,3.98c0.06,0.01,0.09,0.01,0.15,0.02c1.22,0.27,6.8,3.2,8.53,4.21c0.45,0.26,1.2,0.39,1.91-0.04l0,0
				C35.19,38.9,34.61,38.41,34.12,38.23z M16.85,31.87c0,0-0.1-0.06-0.28-0.28c-0.44-0.56-0.5-0.94-0.31-1.1
				c-0.11,0.21-0.02,0.47,0.12,0.72C16.57,31.55,16.85,31.87,16.85,31.87z M25.11,35.4c-0.06,0.12-0.2,0.09-0.25,0.07
				c0,0,0.09-0.04,0.14-0.13l0.3-0.65c0.04-0.08,0.15-0.03,0.11,0.06L25.11,35.4z M35.15,39.62c-0.28-0.57-0.53-0.81-0.78-0.99
				c-0.29-0.22-0.92-0.45-0.92-0.45s0.13,0.01,0.52,0.15C34.42,38.49,34.97,38.9,35.15,39.62z"/>
		</g>
		<path class="st0" d="M32.74,10.48c-1.03,0-2,0.3-2.81,0.82c-1.14-1.17-2.73-1.9-4.49-1.9c-1.76,0-3.35,0.73-4.49,1.9
			c-0.81-0.52-1.77-0.82-2.81-0.82c-2.87,0-5.2,2.33-5.2,5.2c0,2.87,2.33,5.2,5.2,5.2c0.26,0,0.52-0.02,0.77-0.06v6.23h13.06v-6.23
			c0.25,0.04,0.51,0.06,0.77,0.06c2.87,0,5.2-2.33,5.2-5.2C37.93,12.81,35.61,10.48,32.74,10.48z"/>
	</g>
</g>
</svg>
