<?xml version="1.0" encoding="utf-8"?>
<!-- Generator: Adobe Illustrator 24.0.2, SVG Export Plug-In . SVG Version: 6.00 Build 0)  -->
<svg version="1.1" id="Layer_1" xmlns="http://www.w3.org/2000/svg" xmlns:xlink="http://www.w3.org/1999/xlink" x="0px" y="0px"
	 viewBox="0 0 50 50" style="enable-background:new 0 0 50 50;" xml:space="preserve">
<style type="text/css">
	.st0{fill:#C0B399;}
	.st1{fill:#FFFFFF;}
	.st2{fill:#794833;}
	.st3{fill:#462B17;}
	.st4{fill:#FB796B;}
	.st5{fill:#F6D436;}
	.st6{fill:#B0E2F1;}
	.st7{fill:#FFFDFB;}
	.st8{fill:#A0D29D;}
	.st9{fill:#FDFAF3;}
</style>
<g>
	<path class="st0" d="M39.6,12.17c-0.12-0.01-0.25-0.02-0.39-0.02c-1.16,0-2.32,0-3.48,0c-0.77-1.5-1.62-3.12-2.89-4.02
		c-1.92-1.37-4.79-0.92-7.03-0.92c-2.23,0-5.12-0.45-7.03,0.92c-0.85,0.61-1.5,1.53-2.08,2.52c-0.9-0.23-1.87-0.16-2.79-0.16
		c-2.2,0-4.07,0.66-4.92,2.32c-3.93,1.5-6.2,5.35-6.22,9.62c-0.02,3.37,0,6.75,0,10.12c0,3.87,0.36,7.52,3.67,10.14
		c2.53,2,5.37,2.11,8.4,2.11c6.93,0,13.87,0,20.8,0c2.56,0,5.13,0.2,7.53-0.88c4.16-1.86,5.67-5.86,5.67-10.13
		c0-3.73,0-7.45,0-11.18C48.86,17.05,45.24,12.58,39.6,12.17z"/>
	<path class="st1" d="M37.68,10.24c-0.12-0.01-0.25-0.02-0.39-0.02c-1.16,0-2.32,0-3.48,0c-0.77-1.5-1.62-3.12-2.89-4.02
		c-1.92-1.37-4.79-0.92-7.03-0.92c-2.23,0-5.12-0.45-7.03,0.92c-0.85,0.61-1.5,1.53-2.08,2.52c-0.9-0.23-1.87-0.16-2.79-0.16
		c-2.2,0-4.07,0.66-4.92,2.32c-3.93,1.5-6.2,5.35-6.22,9.62c-0.02,3.37,0,6.75,0,10.12c0,3.87,0.36,7.52,3.67,10.14
		c2.53,2,5.37,2.11,8.4,2.11c6.93,0,13.87,0,20.8,0c2.56,0,5.13,0.2,7.53-0.88c4.16-1.86,5.67-5.86,5.67-10.13
		c0-3.73,0-7.45,0-11.18C46.93,15.12,43.32,10.65,37.68,10.24z"/>
	<g>
		<g>
			<g>
				<path class="st2" d="M14.38,14.3H10v-0.6c0-0.95,0.77-1.72,1.72-1.72h0.94c0.95,0,1.72,0.77,1.72,1.72V14.3z"/>
				<path class="st3" d="M14.92,14.84H9.46v-2.2c0-0.66,0.54-1.2,1.2-1.2h3.06c0.66,0,1.2,0.54,1.2,1.2V14.84z M10.54,13.76h3.3
					v-1.12c0-0.07-0.06-0.12-0.12-0.12h-3.06c-0.07,0-0.12,0.06-0.12,0.12V13.76z"/>
			</g>
			<g>
				<path class="st4" d="M31.94,13.94H15.86l2.65-4.6c0.23-0.39,0.64-0.63,1.1-0.63h8.59c0.45,0,0.87,0.24,1.1,0.63L31.94,13.94z"/>
				<path class="st3" d="M32.87,14.48H14.92l3.12-5.41c0.32-0.56,0.92-0.9,1.56-0.9h8.59c0.64,0,1.24,0.35,1.56,0.9L32.87,14.48z
					 M16.79,13.4h14.22l-2.19-3.8c-0.13-0.22-0.37-0.36-0.63-0.36H19.6c-0.26,0-0.5,0.14-0.63,0.36L16.79,13.4z"/>
			</g>
			<g>
				<path class="st5" d="M30.61,39.44H17.19c-7.12,0-12.9-5.77-12.9-12.9v0c0-7.12,5.77-12.9,12.9-12.9h13.42
					c7.12,0,12.9,5.77,12.9,12.9v0C43.51,33.67,37.73,39.44,30.61,39.44z"/>
				<path class="st3" d="M37.29,39.98H10.5c-3.72,0-6.75-3.03-6.75-6.75V19.86c0-3.72,3.03-6.75,6.75-6.75h26.79
					c3.72,0,6.75,3.03,6.75,6.75v13.37C44.04,36.95,41.02,39.98,37.29,39.98z M10.5,14.19c-3.13,0-5.67,2.55-5.67,5.67v13.37
					c0,3.13,2.55,5.67,5.67,5.67h26.79c3.13,0,5.67-2.55,5.67-5.67V19.86c0-3.13-2.55-5.67-5.67-5.67H10.5z"/>
			</g>
			<g>
				<g>
					
						<ellipse transform="matrix(0.1646 -0.9864 0.9864 0.1646 -6.2175 45.7454)" class="st6" cx="23.9" cy="26.54" rx="9.87" ry="9.87"/>
					<path class="st3" d="M23.9,36.96c-5.74,0-10.41-4.67-10.41-10.41c0-5.74,4.67-10.41,10.41-10.41c5.74,0,10.41,4.67,10.41,10.41
						C34.31,32.29,29.64,36.96,23.9,36.96z M23.9,17.21c-5.15,0-9.34,4.19-9.34,9.33c0,5.15,4.19,9.33,9.34,9.33
						c5.15,0,9.33-4.19,9.33-9.33C33.23,21.4,29.05,17.21,23.9,17.21z"/>
				</g>
				<g>
					
						<ellipse transform="matrix(0.7366 -0.6764 0.6764 0.7366 -11.6576 23.1569)" class="st1" cx="23.9" cy="26.54" rx="6.29" ry="6.29"/>
					<path class="st3" d="M23.9,33.37c-3.77,0-6.83-3.06-6.83-6.83c0-3.77,3.06-6.83,6.83-6.83c3.77,0,6.83,3.06,6.83,6.83
						C30.73,30.31,27.66,33.37,23.9,33.37z M23.9,20.79c-3.17,0-5.75,2.58-5.75,5.75c0,3.17,2.58,5.75,5.75,5.75
						c3.17,0,5.75-2.58,5.75-5.75C29.65,23.37,27.07,20.79,23.9,20.79z"/>
				</g>
			</g>
			<g>
				<path class="st7" d="M38.06,18.87h-3.79c-0.88,0-1.59-0.71-1.59-1.59v0c0-0.88,0.71-1.59,1.59-1.59h3.79
					c0.88,0,1.59,0.71,1.59,1.59v0C39.65,18.16,38.94,18.87,38.06,18.87z"/>
				<path class="st3" d="M38.61,19.41h-4.9c-0.87,0-1.58-0.71-1.58-1.58v-1.11c0-0.87,0.71-1.58,1.58-1.58h4.9
					c0.87,0,1.58,0.71,1.58,1.58v1.11C40.19,18.7,39.48,19.41,38.61,19.41z M33.71,16.22c-0.27,0-0.5,0.22-0.5,0.5v1.11
					c0,0.27,0.22,0.5,0.5,0.5h4.9c0.27,0,0.5-0.22,0.5-0.5v-1.11c0-0.27-0.22-0.5-0.5-0.5H33.71z"/>
			</g>
			<g>
				<path class="st1" d="M26.35,12.2h-4.9c-0.57,0-1.04-0.46-1.04-1.04l0,0c0-0.57,0.46-1.04,1.04-1.04h4.9
					c0.57,0,1.04,0.46,1.04,1.04l0,0C27.38,11.74,26.92,12.2,26.35,12.2z"/>
				<path class="st3" d="M26.35,12.74h-4.9c-0.87,0-1.58-0.71-1.58-1.58c0-0.87,0.71-1.58,1.58-1.58h4.9c0.87,0,1.58,0.71,1.58,1.58
					C27.92,12.03,27.22,12.74,26.35,12.74z M21.45,10.67c-0.27,0-0.5,0.22-0.5,0.5c0,0.27,0.22,0.5,0.5,0.5h4.9
					c0.27,0,0.5-0.22,0.5-0.5c0-0.27-0.22-0.5-0.5-0.5H21.45z"/>
			</g>
			<g>
				<circle class="st8" cx="14.02" cy="17.28" r="1.84"/>
				<path class="st3" d="M14.02,19.65c-1.31,0-2.38-1.07-2.38-2.38s1.07-2.38,2.38-2.38c1.31,0,2.38,1.07,2.38,2.38
					S15.34,19.65,14.02,19.65z M14.02,15.98c-0.72,0-1.3,0.58-1.3,1.3s0.58,1.3,1.3,1.3c0.72,0,1.3-0.58,1.3-1.3
					S14.74,15.98,14.02,15.98z"/>
			</g>
		</g>
		<path class="st9" d="M6.72,34.57L6.72,34.57c-0.3,0-0.54-0.24-0.54-0.54v-6.95c0-0.3,0.24-0.54,0.54-0.54l0,0
			c0.3,0,0.54,0.24,0.54,0.54v6.95C7.26,34.33,7.02,34.57,6.72,34.57z"/>
		<path class="st9" d="M6.72,24.54L6.72,24.54c-0.3,0-0.54-0.24-0.54-0.54v-3.21c0-0.3,0.24-0.54,0.54-0.54l0,0
			c0.3,0,0.54,0.24,0.54,0.54V24C7.26,24.3,7.02,24.54,6.72,24.54z"/>
	</g>
</g>
</svg>
