<?xml version="1.0" encoding="utf-8"?>
<!-- Generator: Adobe Illustrator 24.0.2, SVG Export Plug-In . SVG Version: 6.00 Build 0)  -->
<svg version="1.1" id="Layer_1" xmlns="http://www.w3.org/2000/svg" xmlns:xlink="http://www.w3.org/1999/xlink" x="0px" y="0px"
	 viewBox="0 0 50 50" style="enable-background:new 0 0 50 50;" xml:space="preserve">
<style type="text/css">
	.st0{fill:#FFFFFF;}
</style>
<g>
	<g>
		<path class="st0" d="M26.96,3.25c1.08,0.04,1.8,1.11,1.61,2.34c-0.65,4.33-1.27,8.6-1.81,12.82c-0.42-4.23-0.92-8.54-1.47-12.93
			C25.14,4.23,25.88,3.21,26.96,3.25z"/>
		<path class="st0" d="M14.65,10.53c0.62-0.37,1.55-0.03,2.06,0.76c1.79,2.76,3.48,5.59,5.03,8.41c-2.12-2.5-4.45-4.96-6.91-7.3
			C14.12,11.74,14.03,10.9,14.65,10.53z"/>
		<path class="st0" d="M2.39,17.23c0.29-0.75,1.67-1.02,3.03-0.52c4.73,1.74,9.14,4,13.12,6.43c-4.34-1.65-9.04-3.11-14.02-4.09
			C3.08,18.77,2.11,17.99,2.39,17.23z"/>
		<path class="st0" d="M47.43,19.03c0.21,0.57-0.53,1.16-1.61,1.37c-3.79,0.71-7.4,1.7-10.81,2.85c3.14-1.75,6.54-3.35,10.14-4.62
			C46.18,18.25,47.22,18.46,47.43,19.03z"/>
		<path class="st0" d="M44.45,6.1c1.07,0.77,0.86,2.03-0.41,2.91c-4.43,3.06-8.61,6.82-12.25,10.77c2.7-4.52,5.79-8.95,9.03-12.99
			C41.74,5.62,43.38,5.33,44.45,6.1z"/>
		<path class="st0" d="M19.37,1.82c0.02,0.49-0.46,0.92-1.06,0.96c-0.61,0.04-1.12-0.31-1.15-0.8c-0.03-0.49,0.45-0.93,1.07-0.98
			C18.84,0.96,19.35,1.33,19.37,1.82z"/>
		<path class="st0" d="M31.48,15.1c-0.03,0.47-0.5,0.83-1.03,0.8c-0.54-0.03-0.95-0.43-0.93-0.9c0.02-0.48,0.48-0.84,1.03-0.81
			C31.09,14.22,31.51,14.63,31.48,15.1z"/>
		<path class="st0" d="M29.64,24.72c-0.03,0.47-0.5,0.83-1.03,0.8c-0.54-0.03-0.95-0.43-0.93-0.9c0.02-0.48,0.48-0.84,1.03-0.81
			C29.26,23.84,29.68,24.25,29.64,24.72z"/>
		<path class="st0" d="M14.86,24.58c0.09,0.45-0.21,0.83-0.68,0.85c-0.46,0.02-0.93-0.33-1.03-0.77c-0.11-0.45,0.2-0.83,0.68-0.86
			C14.31,23.78,14.77,24.13,14.86,24.58z"/>
		<path class="st0" d="M43.58,23.93c-0.14,0.42-0.64,0.72-1.12,0.67c-0.48-0.04-0.76-0.42-0.63-0.84c0.12-0.43,0.62-0.73,1.11-0.68
			C43.43,23.13,43.72,23.51,43.58,23.93z"/>
		<path class="st0" d="M21.07,6.94c0.01,0.36-0.33,0.66-0.76,0.68c-0.43,0.02-0.8-0.26-0.82-0.62c-0.02-0.36,0.32-0.67,0.76-0.69
			C20.69,6.3,21.06,6.58,21.07,6.94z"/>
		<path class="st0" d="M33.04,2.21c-0.02,0.36-0.4,0.61-0.85,0.56c-0.45-0.05-0.8-0.37-0.79-0.74c0.01-0.36,0.39-0.62,0.85-0.57
			C32.7,1.51,33.06,1.85,33.04,2.21z"/>
		<path class="st0" d="M18.76,19.03c0.03,0.35-0.25,0.64-0.62,0.65c-0.38,0.01-0.72-0.25-0.76-0.6c-0.04-0.35,0.24-0.64,0.62-0.66
			C18.38,18.41,18.72,18.68,18.76,19.03z"/>
		<path class="st0" d="M7.56,24.42c0.11,0.32-0.09,0.6-0.44,0.62c-0.35,0.03-0.73-0.2-0.85-0.52c-0.12-0.31,0.08-0.59,0.44-0.62
			C7.07,23.87,7.45,24.1,7.56,24.42z"/>
		<path class="st0" d="M10.83,14.67c0.06,0.34-0.22,0.65-0.62,0.69c-0.41,0.05-0.79-0.18-0.85-0.52c-0.07-0.33,0.22-0.65,0.63-0.7
			C10.4,14.09,10.78,14.33,10.83,14.67z"/>
		<path class="st0" d="M33.47,25.74c-0.05,0.34-0.37,0.6-0.71,0.59c-0.34-0.01-0.58-0.29-0.54-0.63c0.04-0.34,0.36-0.6,0.7-0.59
			C33.28,25.12,33.52,25.4,33.47,25.74z"/>
		<path class="st0" d="M34.72,7.21c-0.04,0.45-0.51,0.75-1.06,0.7c-0.55-0.06-0.97-0.46-0.95-0.91c0.03-0.45,0.5-0.77,1.06-0.71
			C34.33,6.34,34.76,6.76,34.72,7.21z"/>
		<path class="st0" d="M42.59,12.97c0.61-0.57,1.23-1.13,1.85-1.67c0.37,0.75,0.73,1.49,1.07,2.22
			C44.54,13.33,43.56,13.14,42.59,12.97z"/>
		<path class="st0" d="M24.85,19.49c0.83,0.29,1.65,0.58,2.46,0.87c-0.68,0.5-1.35,1.01-2,1.53C25.16,21.1,25,20.3,24.85,19.49z"/>
		<path class="st0" d="M9.07,9.71C8.51,9.07,7.96,8.44,7.4,7.83c1.03-0.14,2.05-0.26,3.07-0.36C9.99,8.22,9.52,8.97,9.07,9.71z"/>
		<path class="st0" d="M11.56,0.75c0.24,0.29,0.47,0.59,0.7,0.88c0.47-0.02,0.94-0.03,1.41-0.04c-0.32,0.3-0.63,0.61-0.95,0.91
			c0.11,0.35,0.22,0.7,0.33,1.05c-0.43-0.11-0.85-0.22-1.28-0.33c-0.4,0.23-0.79,0.47-1.18,0.7c0.04-0.37,0.09-0.73,0.13-1.1
			C10.36,2.61,10,2.42,9.64,2.23c0.46-0.14,0.92-0.27,1.38-0.4C11.2,1.47,11.38,1.11,11.56,0.75z"/>
		<path class="st0" d="M23.4,23.07c0.24,0.29,0.47,0.59,0.71,0.88c0.47-0.02,0.94-0.03,1.41-0.04c-0.32,0.3-0.63,0.61-0.95,0.91
			c0.11,0.35,0.22,0.7,0.32,1.05c-0.42-0.11-0.85-0.22-1.28-0.33c-0.4,0.23-0.79,0.47-1.19,0.7c0.04-0.37,0.08-0.73,0.13-1.1
			c-0.36-0.2-0.72-0.39-1.08-0.57c0.46-0.14,0.92-0.27,1.38-0.4C23.03,23.79,23.21,23.43,23.4,23.07z"/>
	</g>
	<g>
		<path class="st0" d="M25.54,46.21c-0.41,0-0.76-0.91-0.76-2.03c0.02-3.92,0.21-7.92,0.52-11.99c0.42,4.07,0.74,8.07,0.91,11.99
			C26.26,45.3,25.95,46.21,25.54,46.21z"/>
		<path class="st0" d="M32.12,39.8c-0.43,0.31-0.81-0.05-0.91-0.8c-0.35-2.61-0.99-5.3-1.87-8.04c1.39,2.45,2.49,4.83,3.22,7.11
			C32.77,38.72,32.55,39.49,32.12,39.8z"/>
		<path class="st0" d="M42.02,34.81c-0.69,0.65-1.58,0.72-2.08,0.1c-1.76-2.15-4.2-4.6-7.2-7.16c3.53,1.83,6.63,3.59,9.23,5.12
			C42.72,33.31,42.71,34.16,42.02,34.81z"/>
		<path class="st0" d="M10.23,33.41c-0.52-0.52-0.48-1.22,0.14-1.59c2.15-1.25,4.58-2.62,7.28-4.01c-2.26,1.97-4.19,3.88-5.73,5.65
			C11.48,33.97,10.75,33.93,10.23,33.41z"/>
		<path class="st0" d="M18.63,45.35c-0.64-0.54-1.26-1.78-1.19-2.8c0.23-3.59,1.59-7.48,3.79-11.52c-1.34,4.55-1.99,8.95-1.7,13.13
			C19.6,45.36,19.27,45.88,18.63,45.35z"/>
		<path class="st0" d="M28.24,47.42c0.07-0.43,0.3-0.8,0.53-0.82c0.23-0.02,0.34,0.31,0.25,0.74c-0.09,0.43-0.33,0.8-0.53,0.82
			C28.29,48.18,28.18,47.85,28.24,47.42z"/>
		<path class="st0" d="M22.22,35.52c-0.05-0.45,0.21-0.81,0.59-0.81c0.38,0,0.7,0.37,0.73,0.82c0.03,0.45-0.23,0.81-0.59,0.81
			C22.6,36.34,22.27,35.97,22.22,35.52z"/>
		<path class="st0" d="M36.62,26.6c0.1-0.44,0.55-0.78,1.01-0.76c0.46,0.03,0.75,0.4,0.63,0.84c-0.11,0.43-0.57,0.77-1.02,0.75
			C36.81,27.42,36.52,27.05,36.62,26.6z"/>
		<path class="st0" d="M9.79,28.04c-0.15-0.43,0.09-0.79,0.54-0.81c0.45-0.02,0.93,0.32,1.06,0.75c0.14,0.44-0.1,0.8-0.54,0.81
			C10.42,28.8,9.94,28.46,9.79,28.04z"/>
		<path class="st0" d="M28.23,42.84c0.03-0.33,0.24-0.6,0.45-0.6c0.21-0.01,0.35,0.25,0.3,0.57c-0.05,0.32-0.25,0.6-0.45,0.61
			C28.33,43.43,28.2,43.17,28.23,42.84z"/>
		<path class="st0" d="M23.44,47.49c-0.05-0.32,0.04-0.58,0.21-0.57c0.17,0.01,0.33,0.28,0.37,0.6c0.04,0.32-0.05,0.58-0.21,0.57
			C23.66,48.08,23.49,47.81,23.44,47.49z"/>
		<path class="st0" d="M31.59,31.69c0.05-0.33,0.33-0.6,0.64-0.6c0.31,0,0.51,0.28,0.45,0.61c-0.06,0.33-0.34,0.6-0.64,0.6
			C31.75,32.29,31.54,32.02,31.59,31.69z"/>
		<path class="st0" d="M43.24,27.56c0.12-0.31,0.49-0.53,0.83-0.51c0.34,0.03,0.51,0.29,0.38,0.59c-0.13,0.3-0.5,0.52-0.83,0.51
			C43.29,28.13,43.12,27.87,43.24,27.56z"/>
		<path class="st0" d="M35.69,36.25c0.1-0.32,0.4-0.58,0.67-0.59c0.27-0.01,0.4,0.24,0.28,0.55c-0.11,0.31-0.42,0.58-0.67,0.59
			C35.71,36.82,35.58,36.57,35.69,36.25z"/>
		<path class="st0" d="M18.35,25.22c-0.05-0.34,0.2-0.63,0.55-0.63c0.35-0.01,0.67,0.26,0.7,0.61c0.04,0.34-0.21,0.62-0.55,0.63
			C18.72,25.83,18.4,25.56,18.35,25.22z"/>
		<path class="st0" d="M21.86,43.11c-0.08-0.41,0.07-0.74,0.34-0.73c0.27,0.01,0.53,0.35,0.59,0.77c0.06,0.41-0.09,0.74-0.34,0.73
			C22.21,43.87,21.94,43.52,21.86,43.11z"/>
		<path class="st0" d="M16.28,38.57c-0.05,0.63-0.08,1.25-0.08,1.86c-0.52-0.66-1.06-1.32-1.61-1.97
			C15.15,38.5,15.71,38.54,16.28,38.57z"/>
		<path class="st0" d="M26.82,31.13c-0.66-0.27-1.33-0.55-2.01-0.83c0.54-0.5,1.11-1.01,1.69-1.51
			C26.61,29.57,26.72,30.35,26.82,31.13z"/>
		<path class="st0" d="M34.54,40.95c-0.02,0.63-0.07,1.25-0.14,1.87c-0.44,0.02-0.89,0.03-1.34,0.04
			C33.53,42.22,34.03,41.58,34.54,40.95z"/>
		<path class="st0" d="M30.35,48.75c0.04-0.27,0.07-0.55,0.09-0.83c-0.14-0.02-0.28-0.04-0.42-0.06c0.18-0.25,0.36-0.49,0.55-0.74
			c0.07-0.32,0.14-0.63,0.21-0.95c0.11,0.13,0.21,0.26,0.31,0.38c0.2-0.17,0.41-0.35,0.61-0.53c-0.14,0.32-0.29,0.65-0.43,0.97
			c0.04,0.2,0.07,0.41,0.09,0.6c-0.17,0.08-0.34,0.16-0.51,0.23C30.68,48.14,30.51,48.45,30.35,48.75z"/>
	</g>
</g>
</svg>
