<?xml version="1.0" encoding="utf-8"?>
<!-- Generator: Adobe Illustrator 24.0.2, SVG Export Plug-In . SVG Version: 6.00 Build 0)  -->
<svg version="1.1" id="Layer_1" xmlns="http://www.w3.org/2000/svg" xmlns:xlink="http://www.w3.org/1999/xlink" x="0px" y="0px"
	 viewBox="0 0 50 50" style="enable-background:new 0 0 50 50;" xml:space="preserve">
<style type="text/css">
	.st0{fill:#FF001B;}
	.st1{fill:#FFFFFF;}
</style>
<g>
	<g>
		<path class="st0" d="M2.93,23.99v1.54c0.26,7.75,4.44,14.5,10.61,18.35V5.64C7.37,9.49,3.2,16.24,2.93,23.99z"/>
		<path class="st0" d="M47.93,24.76c0-8.01-4.19-15.05-10.49-19.03V43.8C43.75,39.81,47.93,32.77,47.93,24.76z"/>
		<path class="st1" d="M37.44,43.8V5.73c-3.48-2.2-7.6-3.47-12.02-3.47c-4.36,0-8.43,1.24-11.88,3.39v38.24
			c3.45,2.15,7.52,3.39,11.88,3.39C29.85,47.27,33.97,45.99,37.44,43.8z"/>
	</g>
	<path class="st0" d="M25.5,14.91l-1.57,3.04c-0.18,0.33-0.49,0.3-0.81,0.11l-1.13-0.61l0.85,4.67c0.18,0.85-0.39,0.85-0.67,0.49
		l-1.98-2.31l-0.32,1.17c-0.04,0.15-0.2,0.32-0.44,0.28l-2.5-0.55l0.66,2.49c0.14,0.56,0.25,0.79-0.14,0.93l-0.89,0.44l4.31,3.64
		c0.17,0.14,0.26,0.38,0.19,0.61l-0.38,1.29c1.48-0.18,2.81-0.34,4.29-0.52c0.13,0,0.35,0.12,0.35,0.27l-0.2,4.72h0.72l-0.12-4.71
		c0-0.15,0.2-0.28,0.33-0.28c1.48,0.18,2.81,0.34,4.29,0.52l-0.38-1.29c-0.06-0.23,0.03-0.47,0.2-0.61l4.3-3.64l-0.89-0.44
		c-0.39-0.15-0.28-0.38-0.14-0.93l0.66-2.49l-2.5,0.55c-0.25,0.04-0.41-0.12-0.44-0.28l-0.32-1.17l-1.98,2.31
		c-0.28,0.37-0.85,0.37-0.67-0.49l0.84-4.67l-1.13,0.61c-0.32,0.18-0.64,0.22-0.81-0.11L25.5,14.91z"/>
</g>
</svg>
