<?xml version="1.0" encoding="utf-8"?>
<!-- Generator: Adobe Illustrator 24.0.2, SVG Export Plug-In . SVG Version: 6.00 Build 0)  -->
<svg version="1.1" id="Layer_1" xmlns="http://www.w3.org/2000/svg" xmlns:xlink="http://www.w3.org/1999/xlink" x="0px" y="0px"
	 viewBox="0 0 50 50" style="enable-background:new 0 0 50 50;" xml:space="preserve">
<style type="text/css">
	.st0{fill-rule:evenodd;clip-rule:evenodd;fill:#FFFFFF;}
</style>
<path class="st0" d="M8.62,6.34H20V2.78c0-1.09,1.21-2.03,2.7-2.03l0,0c1.49,0,2.7,0.94,2.7,2.03v3.56h13.52
	c0.28,0,0.56,0.07,0.75,0.29c0.47,0.29,0.47,0.87,0,1.16l-5.6,4.29l5.6,4.5c0.19,0.14,0.37,0.36,0.37,0.58
	c0,0.51-0.47,0.87-1.12,0.87H25.41v1.45h16.04c0.37,0,0.65,0.08,0.84,0.29l6.44,4.87c0.37,0.36,0.37,0.87,0,1.24l0,0l-6.53,5.01
	c-0.19,0.15-0.47,0.22-0.75,0.22l0,0H25.41v17.65H20V31.1h-8.86c-0.65,0-1.12-0.36-1.12-0.8c0-0.29,0.09-0.51,0.37-0.66l5.59-4.43
	l-5.69-4.29c-0.37-0.36-0.37-0.87,0-1.23c0.28-0.15,0.56-0.22,0.84-0.22l0,0H20v-1.45H8.62c-0.28,0-0.65-0.07-0.84-0.29l-6.43-5.01
	c-0.47-0.29-0.47-0.8,0-1.16l6.43-4.94C7.97,6.48,8.25,6.34,8.62,6.34L8.62,6.34z"/>
</svg>
