<?xml version="1.0" encoding="UTF-8" standalone="no"?>
<!-- Generator: Adobe Illustrator 24.0.2, SVG Export Plug-In . SVG Version: 6.00 Build 0)  -->

<svg
   xmlns:dc="http://purl.org/dc/elements/1.1/"
   xmlns:cc="http://creativecommons.org/ns#"
   xmlns:rdf="http://www.w3.org/1999/02/22-rdf-syntax-ns#"
   xmlns:svg="http://www.w3.org/2000/svg"
   xmlns="http://www.w3.org/2000/svg"
   xmlns:sodipodi="http://sodipodi.sourceforge.net/DTD/sodipodi-0.dtd"
   xmlns:inkscape="http://www.inkscape.org/namespaces/inkscape"
   version="1.1"
   id="Layer_1"
   x="0px"
   y="0px"
   viewBox="0 0 30 30"
   xml:space="preserve"
   sodipodi:docname="plane.svg"
   width="30"
   height="30"
   inkscape:version="0.92.4 (5da689c313, 2019-01-14)"><metadata
   id="metadata17"><rdf:RDF><cc:Work
       rdf:about=""><dc:format>image/svg+xml</dc:format><dc:type
         rdf:resource="http://purl.org/dc/dcmitype/StillImage" /><dc:title></dc:title></cc:Work></rdf:RDF></metadata><defs
   id="defs15" /><sodipodi:namedview
   pagecolor="#ffffff"
   bordercolor="#666666"
   borderopacity="1"
   objecttolerance="10"
   gridtolerance="10"
   guidetolerance="10"
   inkscape:pageopacity="0"
   inkscape:pageshadow="2"
   inkscape:window-width="1920"
   inkscape:window-height="1001"
   id="namedview13"
   showgrid="false"
   inkscape:zoom="5.2444444"
   inkscape:cx="22.5"
   inkscape:cy="22.5"
   inkscape:window-x="-9"
   inkscape:window-y="-9"
   inkscape:window-maximized="1"
   inkscape:current-layer="Layer_1" />
<style
   type="text/css"
   id="style2">
	.st0{fill:#268281;}
</style>
<g
   id="g10"
   transform="matrix(0.61902504,0,0,0.61902504,0.9295789,0.8483677)">
	<path
   class="st0"
   d="m 33.25,30.72 1.21,-0.53 c 0,0 -0.01,0 -0.01,-0.01 v 0 c 0,0 -0.68,-0.84 -0.83,-0.86 -0.12,-0.02 -3.93,0.17 -5.71,0.25 -0.02,-0.03 -0.04,-0.07 -0.06,-0.1 -0.38,-0.66 -0.8,-1.35 -1.23,-2.08 C 26.58,27.32 26.54,27.26 26.5,27.2 26.28,26.84 26.06,26.47 25.84,26.11 25.8,26.05 25.77,26 25.74,25.94 25.53,25.58 25.31,25.23 25.08,24.87 25.07,24.84 25.05,24.82 25.03,24.79 v 0 C 24.18,23.4 23.29,21.98 22.44,20.63 l 1.68,-0.67 c 0,0 0.01,0.01 0.01,0.01 0.01,0.01 0.02,0.03 0.03,0.04 0.01,0.01 0.02,0.02 0.02,0.03 v 0 c 0.05,0.05 0.1,0.09 0.14,0.13 0.01,0 0.02,0 0.04,-0.01 v 0 c 0.04,-0.01 0.08,-0.03 0.09,-0.07 l 0.01,0.01 c 0.01,-0.01 0.01,-0.02 0.02,-0.04 -0.02,-0.04 -0.04,-0.08 -0.06,-0.13 0,0 0,0 0.01,0 -0.01,-0.01 -0.01,-0.03 -0.03,-0.04 0,-0.01 -0.01,-0.02 -0.01,-0.04 L 26,19.19 v 0 c 0.02,0.02 0.03,0.03 0.03,0.04 0.01,0.01 0.02,0.02 0.03,0.03 v 0 c 0.05,0.05 0.1,0.1 0.14,0.13 0.01,0 0.02,0 0.04,-0.01 v 0 c 0.05,-0.01 0.08,-0.04 0.1,-0.07 l 0.01,0.01 c 0,-0.01 0.01,-0.03 0.01,-0.04 -0.01,-0.04 -0.04,-0.08 -0.06,-0.13 0,0 0,0 0.01,0 -0.01,-0.01 -0.02,-0.02 -0.02,-0.04 0,-0.01 0,-0.01 -0.01,-0.02 l 1.27,-0.51 0.35,-0.14 c 0.01,0 0.02,0.02 0.02,0.02 0.01,0.01 0.02,0.02 0.02,0.03 0.01,0 0.01,0 0.01,0 0.05,0.05 0.09,0.1 0.14,0.13 0.01,0 0.02,0 0.04,0 l -0.01,-0.01 c 0.05,-0.01 0.08,-0.03 0.1,-0.07 v 0.01 c 0.01,-0.01 0.02,-0.02 0.02,-0.03 -0.01,-0.04 -0.04,-0.09 -0.05,-0.13 v 0 c -0.01,-0.01 -0.01,-0.03 -0.03,-0.05 l 1.62,-0.65 c 0,0 0,0 0.01,0.01 0.01,0.01 0.02,0.02 0.03,0.04 0.01,0.01 0.01,0.02 0.02,0.03 v 0 c 0.05,0.05 0.1,0.1 0.14,0.13 0.01,0 0.03,0 0.04,0 v -0.01 c 0.05,-0.01 0.08,-0.03 0.1,-0.07 v 0.01 c 0.01,-0.01 0.01,-0.02 0.02,-0.04 -0.01,-0.04 -0.04,-0.08 -0.06,-0.12 0,0 0,0 0.01,0 -0.01,-0.02 -0.02,-0.04 -0.04,-0.07 v 0 l 1.66,-0.66 v 0 0 c 0,0 -0.07,-0.34 -0.26,-0.43 -0.01,0 -0.02,-0.01 -0.05,-0.01 -0.01,0 -0.02,0 -0.03,0 -0.02,0 -0.05,0 -0.08,0 -0.01,0 -0.02,0 -0.04,0 -0.04,0 -0.08,0 -0.14,-0.01 -0.01,0 -0.03,0 -0.04,0 -0.14,-0.01 -0.31,-0.01 -0.5,-0.02 -0.02,0 -0.04,0 -0.06,0 -0.09,0 -0.19,0 -0.3,-0.01 -0.01,0 -0.02,0 -0.03,0 -0.03,0 -0.07,0 -0.1,0 0,-0.01 -0.01,-0.02 -0.01,-0.02 0,0 0.01,0.01 0.01,0.02 -1.43,-0.04 -3.76,-0.09 -5.94,-0.12 -0.1,-0.16 -0.24,-0.35 -0.4,-0.54 v 0 0 c -0.12,-0.14 -0.25,-0.29 -0.39,-0.41 0,0 -0.01,0 -0.02,0 -0.01,0 -0.01,0 -0.02,0 v 0 c 0,0 -0.01,0 -0.01,0 -0.01,0.01 -0.02,0.01 -0.04,0.02 -0.02,0 -0.04,0.01 -0.06,0.01 v 0 c 0,0 0,0 0,0 v 0 c -0.02,0.01 -0.05,0.02 -0.08,0.03 -0.17,0.07 -0.41,0.19 -0.65,0.39 0,0 0,0 0,0 -0.03,0.03 -0.07,0.06 -0.1,0.1 -0.01,0.01 -0.02,0.02 -0.03,0.03 v 0 c -0.01,0.01 -0.01,0.01 -0.01,0.01 -0.01,0.01 -0.02,0.01 -0.02,0.02 -0.06,0.07 -0.12,0.14 -0.18,0.22 0,0 0.02,0.03 0.04,0.08 -0.55,-0.01 -1.05,-0.02 -1.5,-0.02 -0.06,0 -0.11,0 -0.17,0 0,0 0,0 0.01,0 -0.31,0 -0.58,-0.01 -0.82,-0.01 -0.18,-0.3 -0.37,-0.57 -0.54,-0.84 v 0 c -0.39,-0.61 -0.73,-1.13 -1,-1.54 -0.03,-0.05 -0.05,-0.08 -0.08,-0.12 -0.04,-0.06 -0.08,-0.13 -0.12,-0.19 -0.03,-0.04 -0.05,-0.08 -0.08,-0.12 -0.03,-0.05 -0.07,-0.1 -0.1,-0.14 -0.02,-0.04 -0.04,-0.07 -0.06,-0.1 -0.05,-0.07 -0.09,-0.13 -0.12,-0.18 -1.4,-2.03 -3.14,-3.27 -3.89,-2.76 -0.75,0.52 -0.21,2.58 1.19,4.62 0.03,0.05 0.08,0.11 0.12,0.17 0.02,0.04 0.05,0.08 0.08,0.12 0.02,0.03 0.05,0.07 0.08,0.11 0.04,0.05 0.07,0.1 0.11,0.16 0.02,0.03 0.04,0.06 0.07,0.1 0.13,0.19 0.29,0.4 0.47,0.64 0.07,0.1 0.14,0.19 0.22,0.29 0.01,0.01 0.02,0.04 0.04,0.06 0.16,0.21 0.32,0.43 0.49,0.67 v 0 c 0.19,0.26 0.39,0.53 0.61,0.82 -0.08,0.22 -0.17,0.46 -0.27,0.74 v 0 c -0.17,0.47 -0.36,1 -0.57,1.57 -0.03,-0.04 -0.05,-0.06 -0.05,-0.06 -0.09,0.02 -0.18,0.06 -0.27,0.08 -0.01,0.01 -0.02,0.02 -0.04,0.02 0,0 -0.01,0 -0.01,0 v 0 c -0.01,0.01 -0.03,0.02 -0.04,0.02 -0.04,0.02 -0.09,0.04 -0.13,0.07 0,0 0,0 0,0 -0.25,0.13 -0.44,0.31 -0.57,0.44 -0.03,0.03 -0.06,0.06 -0.08,0.09 v 0 c 0,0.01 0,0.01 -0.01,0.01 0,0 0,0 0,0 -0.01,0.01 -0.02,0.02 -0.03,0.04 -0.01,0.02 -0.02,0.03 -0.03,0.04 0,0 0,0.01 0,0.01 0,0 0,0 0,0 -0.01,0.01 -0.01,0.01 -0.01,0.02 -0.01,0.01 -0.01,0.02 -0.01,0.02 0.06,0.18 0.15,0.35 0.24,0.51 v 0 0 c 0.12,0.21 0.25,0.41 0.36,0.56 -0.38,1.04 -0.76,2.11 -1.11,3.1 -0.02,0.05 -0.03,0.1 -0.05,0.15 -0.05,0.13 -0.1,0.26 -0.14,0.39 -0.04,0.11 -0.07,0.22 -0.11,0.33 -0.02,0.05 -0.03,0.09 -0.05,0.14 -0.04,0.11 -0.07,0.21 -0.11,0.31 -0.02,0.04 -0.03,0.07 -0.04,0.11 -0.04,0.13 -0.09,0.26 -0.14,0.38 0,0.01 0,0.01 -0.01,0.02 -0.08,0.24 -0.16,0.46 -0.23,0.67 0,0 -0.01,-0.01 -0.01,-0.01 0,0 0.01,0.01 0.01,0.01 -0.01,0.03 -0.02,0.07 -0.03,0.1 0,0.01 -0.01,0.01 -0.01,0.03 -0.04,0.1 -0.07,0.2 -0.11,0.29 0,0.01 0,0.01 0,0.02 -0.06,0.19 -0.12,0.36 -0.17,0.5 0,0 -0.01,0.01 -0.01,0.02 -0.02,0.05 -0.03,0.1 -0.04,0.14 -0.01,0.01 -0.01,0.03 -0.02,0.03 -0.01,0.04 -0.02,0.07 -0.03,0.08 0,0.01 0,0.02 0,0.02 -0.01,0.03 -0.01,0.05 -0.01,0.05 0.01,0.16 0.18,0.3 0.26,0.36 0.03,0.02 0.05,0.03 0.05,0.03 l 1.2,-1.32 c 0.01,0 0.01,0 0.01,0 0.01,0.02 0.03,0.04 0.04,0.05 v 0 c 0.04,0.03 0.07,0.07 0.1,0.1 0.01,0 0.02,0 0.04,0 v -0.01 c 0.04,-0.01 0.07,-0.03 0.09,-0.07 h 0.01 c 0.01,-0.01 0.01,-0.02 0.02,-0.03 -0.02,-0.05 -0.05,-0.12 -0.08,-0.17 0,0 0,0 0,0 0,-0.01 -0.01,-0.02 -0.01,-0.02 C 14.96,28 14.95,27.98 14.94,27.96 l 1.18,-1.28 c 0.01,0.01 0.02,0.03 0.03,0.04 h 0.01 c 0.04,0.03 0.07,0.07 0.1,0.1 0.02,0 0.03,0 0.04,0 l -0.01,-0.01 c 0.04,-0.01 0.08,-0.03 0.1,-0.06 v 0 c 0.01,-0.01 0.02,-0.02 0.02,-0.04 -0.01,-0.05 -0.04,-0.11 -0.07,-0.17 0,0 0,0 0,0 0,0 -0.01,-0.02 -0.01,-0.02 -0.01,-0.02 -0.02,-0.03 -0.02,-0.04 l 0.8,-0.87 0.38,-0.41 c 0.02,0.02 0.04,0.04 0.05,0.05 0,0 0,-0.01 0,-0.01 0.03,0.04 0.07,0.08 0.1,0.1 0.01,0 0.03,0 0.04,0 l -0.01,-0.01 c 0.04,-0.01 0.08,-0.03 0.1,-0.07 v 0.01 c 0.01,-0.01 0.01,-0.02 0.02,-0.03 -0.01,-0.05 -0.04,-0.11 -0.07,-0.17 v 0 c 0,0 -0.01,-0.01 -0.01,-0.02 -0.01,-0.02 -0.02,-0.04 -0.03,-0.06 l 1.18,-1.28 c 0,0 0,0.01 0.01,0.01 0.01,0.02 0.03,0.04 0.05,0.05 0.01,0 0,0 0,0 0.03,0.03 0.07,0.07 0.1,0.1 0.01,0 0.03,0 0.04,0 l -0.01,-0.01 c 0.04,-0.01 0.08,-0.03 0.1,-0.07 v 0.01 c 0.01,-0.01 0.01,-0.02 0.01,-0.03 -0.01,-0.05 -0.04,-0.11 -0.07,-0.17 0,0 0,0 0,0 0,-0.01 -0.01,-0.02 -0.01,-0.02 -0.01,-0.02 -0.03,-0.04 -0.04,-0.07 l 1.21,-1.31 c 0.99,1.31 2.03,2.68 3.04,3.99 v 0 c 0.04,0.04 0.07,0.09 0.11,0.13 0.23,0.3 0.46,0.6 0.69,0.89 0.05,0.05 0.08,0.1 0.12,0.16 0.25,0.31 0.49,0.62 0.73,0.92 0.08,0.1 0.15,0.19 0.23,0.29 0.24,0.31 0.47,0.6 0.71,0.89 0.03,0.04 0.06,0.07 0.08,0.1 0.23,0.28 0.45,0.56 0.67,0.82 0.02,0.03 0.04,0.05 0.07,0.08 -0.06,0.15 -0.13,0.31 -0.21,0.49 -0.02,0.03 -0.03,0.05 -0.04,0.08 v 0 c -0.43,0.99 -1.01,2.32 -1.43,3.31 -0.02,0.04 -0.04,0.08 -0.05,0.11 -0.04,0.09 -0.08,0.18 -0.11,0.26 -0.02,0.04 -0.03,0.07 -0.05,0.1 -0.08,0.18 -0.15,0.34 -0.2,0.48 -0.01,0.01 -0.01,0.03 -0.02,0.04 -0.03,0.07 -0.05,0.13 -0.07,0.17 0,0 0,0 0,0.01 -0.02,0.05 -0.04,0.09 -0.05,0.12 0,0.01 -0.01,0.01 -0.01,0.02 -0.01,0.03 -0.02,0.05 -0.02,0.06 -0.03,0.1 0.22,0.56 0.37,0.85 v 0 c 0.08,0.14 0.14,0.24 0.14,0.24 l 0.93,-0.95 c 0,0 0,0.01 0,0 l 2.86,-2.92 0.03,-0.03 c 0.03,0.04 0.05,0.06 0.09,0.1 0.04,0.05 0.09,0.09 0.13,0.14 0.1,0.1 0.19,0.2 0.27,0.29 0.1,-0.05 0.2,-0.1 0.3,-0.17 0.1,-0.06 0.18,-0.14 0.26,-0.22 -0.03,-0.07 -0.06,-0.14 -0.1,-0.22 0,-0.01 0,-0.01 0,-0.01 -0.02,-0.04 -0.04,-0.08 -0.06,-0.12 0,-0.01 0,-0.01 -0.01,-0.02 -0.02,-0.03 -0.04,-0.07 -0.05,-0.1 -0.01,-0.01 -0.01,-0.01 -0.01,-0.02 0,0 -0.01,-0.01 -0.01,-0.01 -0.02,-0.05 -0.05,-0.09 -0.07,-0.15 z"
   id="path4"
   inkscape:connector-curvature="0"
   style="fill:#268281" />
	<path
   class="st0"
   d="M 22.46,42.1 C 11.42,42.1 2.44,33.12 2.44,22.08 2.44,11.04 11.42,2.06 22.46,2.06 c 11.04,0 20.02,8.98 20.02,20.02 0,11.03 -8.98,20.02 -20.02,20.02 z m 0,-39.36 C 11.8,2.74 3.13,11.41 3.13,22.08 3.13,32.74 11.8,41.41 22.46,41.41 33.12,41.41 41.8,32.74 41.8,22.08 41.8,11.41 33.12,2.74 22.46,2.74 Z"
   id="path6"
   inkscape:connector-curvature="0"
   style="fill:#268281" />
	<path
   class="st0"
   d="m 22.46,39.14 c -9.41,0 -17.07,-7.66 -17.07,-17.07 0,-9.41 7.66,-17.06 17.07,-17.06 9.41,0 17.07,7.65 17.07,17.06 0,9.41 -7.66,17.07 -17.07,17.07 z m 0,-33.79 c -9.22,0 -16.72,7.5 -16.72,16.72 0,9.22 7.5,16.72 16.72,16.72 9.22,0 16.73,-7.5 16.73,-16.72 C 39.18,12.85 31.68,5.35 22.46,5.35 Z"
   id="path8"
   inkscape:connector-curvature="0"
   style="fill:#268281" />
</g>
</svg>