<?xml version="1.0" encoding="utf-8"?>
<!-- Generator: Adobe Illustrator 24.0.2, SVG Export Plug-In . SVG Version: 6.00 Build 0)  -->
<svg version="1.1" id="Layer_1" xmlns="http://www.w3.org/2000/svg" xmlns:xlink="http://www.w3.org/1999/xlink" x="0px" y="0px"
	 viewBox="0 0 19 28" style="enable-background:new 0 0 19 28;" xml:space="preserve">
<style type="text/css">
	.st0{fill:#268281;}
</style>
<g>
	<path class="st0" d="M13.99,8.77c-0.01-0.06-0.02-0.13-0.03-0.19c-0.01-0.05-0.02-0.09-0.03-0.14l-0.04-0.15
		c-0.01-0.04-0.02-0.08-0.03-0.12c-0.02-0.06-0.04-0.12-0.06-0.17l-0.05-0.14c-0.01-0.03-0.02-0.05-0.03-0.08
		c-0.03-0.08-0.07-0.16-0.11-0.24l-0.04-0.09c-0.01-0.02-0.01-0.03-0.02-0.05c-0.05-0.09-0.11-0.19-0.17-0.28
		c-0.01-0.02-0.02-0.03-0.03-0.05c-0.08-0.12-0.15-0.22-0.23-0.31l-0.03-0.04c-0.08-0.1-0.17-0.2-0.26-0.29l-0.03-0.03
		C12,5.61,10.93,5.16,9.8,5.15l-0.05,0c-2.36,0-4.28,1.93-4.28,4.29c0,2.36,1.92,4.29,4.28,4.29l0.05,0c1.13-0.01,2.2-0.46,3-1.27
		c0.11-0.11,0.2-0.21,0.27-0.3c0.01-0.02,0.02-0.03,0.03-0.04c0.07-0.09,0.14-0.18,0.21-0.28c0.02-0.04,0.03-0.06,0.04-0.07
		c0.06-0.09,0.12-0.18,0.17-0.28c0.01-0.01,0.01-0.03,0.02-0.04c0.01-0.02,0.02-0.05,0.03-0.07l0.02-0.04
		c0.04-0.07,0.07-0.15,0.11-0.22c0.01-0.02,0.02-0.05,0.03-0.08l0.05-0.14c0.02-0.06,0.04-0.11,0.06-0.17
		c0.01-0.04,0.02-0.08,0.03-0.12l0.04-0.15c0.01-0.04,0.02-0.09,0.03-0.13c0.01-0.06,0.02-0.13,0.03-0.19l0.02-0.15
		c0.01-0.03,0.01-0.06,0.01-0.09c0.01-0.14,0.02-0.29,0.02-0.44c0-0.15-0.01-0.29-0.02-0.44c0-0.03-0.01-0.06-0.01-0.09L13.99,8.77z
		"/>
	<path class="st0" d="M17.25,15.06c0.04-0.07,0.09-0.15,0.15-0.24c0.01-0.01,0.02-0.02,0.02-0.04c0.11-0.21,0.29-0.52,0.3-0.54
		c0.7-1.37,1.05-2.84,1.05-4.38c0-0.17,0-0.33-0.01-0.49c0-0.07-0.01-0.14-0.01-0.21l-0.01-0.14c0-0.04,0-0.09-0.01-0.13
		c-0.01-0.06-0.01-0.12-0.02-0.17L18.7,8.59c-0.01-0.06-0.01-0.12-0.02-0.18c-0.01-0.05-0.01-0.09-0.02-0.14l-0.02-0.12
		c-0.01-0.07-0.02-0.14-0.03-0.2c-0.01-0.05-0.02-0.11-0.03-0.16l-0.03-0.14c-0.01-0.05-0.02-0.1-0.03-0.15
		c-0.02-0.07-0.03-0.14-0.05-0.21l-0.03-0.12c-0.01-0.04-0.02-0.07-0.03-0.11c-0.02-0.08-0.04-0.15-0.07-0.23l-0.03-0.09
		c-0.01-0.04-0.02-0.07-0.03-0.11c-0.02-0.07-0.05-0.15-0.08-0.22l-0.03-0.1c-0.01-0.03-0.02-0.07-0.04-0.1
		c-0.03-0.08-0.07-0.16-0.1-0.24l-0.04-0.09c-0.01-0.03-0.02-0.05-0.03-0.07c-0.05-0.11-0.1-0.21-0.15-0.32l-0.04-0.07
		c-0.05-0.1-0.11-0.21-0.18-0.33l-0.03-0.05c-0.06-0.11-0.13-0.21-0.2-0.33c0,0-0.02-0.03-0.02-0.03c-0.07-0.11-0.14-0.21-0.22-0.32
		c0,0-0.02-0.03-0.02-0.03c-0.08-0.11-0.16-0.21-0.24-0.31c0-0.01-0.01-0.02-0.02-0.02c-0.09-0.11-0.18-0.21-0.27-0.32
		c-0.09-0.1-0.19-0.21-0.29-0.3c0,0,0,0,0,0c-1.64-1.64-3.89-2.51-6.51-2.51c-5.3,0-9,3.7-9,9c0,1.64,0.42,3.26,1.21,4.68l0.14,0.25
		c0.01,0.01,0.01,0.02,0.02,0.03l0.23,0.35c0.02,0.04,0.05,0.08,0.06,0.1l5.76,9.68h0l1.33,2.24c0.07,0.12,0.2,0.2,0.34,0.2
		c0,0,0,0,0,0c0.14,0,0.27-0.08,0.34-0.2l1.3-2.24h0l5.62-9.66C17.16,15.19,17.21,15.13,17.25,15.06z M14.82,9.96
		c-0.01,0.05-0.01,0.09-0.02,0.14l-0.02,0.12c-0.01,0.08-0.02,0.16-0.04,0.24c-0.01,0.06-0.03,0.12-0.05,0.18l-0.03,0.13
		c-0.01,0.06-0.03,0.12-0.05,0.17c-0.02,0.08-0.05,0.15-0.08,0.22l-0.04,0.12c-0.01,0.04-0.03,0.08-0.05,0.12
		c-0.04,0.09-0.08,0.18-0.13,0.27l-0.04,0.08c-0.01,0.03-0.03,0.06-0.04,0.09c-0.06,0.11-0.13,0.22-0.2,0.33
		c-0.03,0.04-0.04,0.07-0.05,0.09c-0.08,0.12-0.16,0.23-0.25,0.34c-0.02,0.02-0.03,0.03-0.04,0.05c-0.09,0.12-0.2,0.23-0.31,0.35
		c-0.96,0.97-2.23,1.51-3.58,1.52c-0.02,0-0.03,0-0.05,0c-2.81,0-5.09-2.28-5.09-5.09c0-2.81,2.28-5.09,5.09-5.09l0.05,0
		c1.35,0.01,2.61,0.55,3.56,1.51l0.02,0.02C13.5,6,13.6,6.11,13.69,6.22c0.01,0.02,0.02,0.03,0.03,0.04
		c0.09,0.12,0.18,0.23,0.26,0.35c0.01,0.02,0.03,0.04,0.04,0.07c0.08,0.13,0.15,0.24,0.21,0.35c0.02,0.03,0.03,0.06,0.04,0.09
		l0.02,0.04c0.06,0.12,0.11,0.21,0.15,0.31c0.02,0.04,0.03,0.08,0.05,0.13l0.04,0.12c0.03,0.07,0.06,0.15,0.08,0.22
		c0.02,0.06,0.03,0.11,0.05,0.17l0.03,0.13c0.02,0.06,0.03,0.12,0.05,0.19c0.02,0.08,0.03,0.16,0.04,0.24l0.02,0.12
		c0.01,0.05,0.02,0.09,0.02,0.14c0.02,0.17,0.03,0.35,0.03,0.52C14.84,9.61,14.83,9.79,14.82,9.96z"/>
</g>
</svg>
