<?xml version="1.0" encoding="utf-8"?>
<!-- Generator: Adobe Illustrator 24.0.2, SVG Export Plug-In . SVG Version: 6.00 Build 0)  -->
<svg version="1.1" id="Layer_1" xmlns="http://www.w3.org/2000/svg" xmlns:xlink="http://www.w3.org/1999/xlink" x="0px" y="0px"
	 viewBox="0 0 70 46" style="enable-background:new 0 0 70 46;" xml:space="preserve">
<style type="text/css">
	.st0{fill:#268281;}
</style>
<g>
	<path class="st0" d="M2.01,41.53l28.3-16.69L1.89,8.09v32.43C1.89,40.87,1.94,41.21,2.01,41.53z"/>
	<path class="st0" d="M31.56,25.58L2.49,42.72C3.26,44.08,4.7,45,6.37,45h55.67c1.81,0,3.36-1.08,4.07-2.63L37.62,25.58l-3.03,1.79
		L31.56,25.58z"/>
	<path class="st0" d="M66.51,40.52V8.55L38.87,24.84l27.58,16.27C66.48,40.92,66.51,40.72,66.51,40.52z"/>
	<path class="st0" d="M6.37,2C3.89,2,1.89,4,1.89,6.47v0.14l32.71,19.28L66.51,7.07v-0.6c0-2.47-2-4.47-4.48-4.47H6.37z"/>
</g>
</svg>
