<?xml version="1.0" encoding="UTF-8" standalone="no"?>
<!-- Generator: Adobe Illustrator 16.0.0, SVG Export Plug-In . SVG Version: 6.00 Build 0)  -->

<svg
   xmlns:dc="http://purl.org/dc/elements/1.1/"
   xmlns:cc="http://creativecommons.org/ns#"
   xmlns:rdf="http://www.w3.org/1999/02/22-rdf-syntax-ns#"
   xmlns:svg="http://www.w3.org/2000/svg"
   xmlns="http://www.w3.org/2000/svg"
   xmlns:sodipodi="http://sodipodi.sourceforge.net/DTD/sodipodi-0.dtd"
   xmlns:inkscape="http://www.inkscape.org/namespaces/inkscape"
   version="1.1"
   id="Capa_1"
   x="0px"
   y="0px"
   width="49"
   height="31"
   viewBox="0 0 49 31"
   xml:space="preserve"
   sodipodi:docname="icon-upload.svg"
   inkscape:version="0.92.4 (5da689c313, 2019-01-14)"><metadata
   id="metadata44"><rdf:RDF><cc:Work
       rdf:about=""><dc:format>image/svg+xml</dc:format><dc:type
         rdf:resource="http://purl.org/dc/dcmitype/StillImage" /><dc:title /></cc:Work></rdf:RDF></metadata><defs
   id="defs42" /><sodipodi:namedview
   pagecolor="#ffffff"
   bordercolor="#666666"
   borderopacity="1"
   objecttolerance="10"
   gridtolerance="10"
   guidetolerance="10"
   inkscape:pageopacity="0"
   inkscape:pageshadow="2"
   inkscape:window-width="1920"
   inkscape:window-height="1001"
   id="namedview40"
   showgrid="false"
   inkscape:zoom="13.515607"
   inkscape:cx="41.017153"
   inkscape:cy="6.6966778"
   inkscape:window-x="-9"
   inkscape:window-y="-9"
   inkscape:window-maximized="1"
   inkscape:current-layer="Capa_1" />
<g
   id="g7"
   style="fill:#ff7f2a;fill-opacity:1"
   transform="matrix(0.11602274,0,0,0.11602274,1.6300573,-7.6575516)">
	<g
   id="g5"
   style="fill:#ff7f2a;fill-opacity:1">
		<g
   id="Layer_5_85_"
   style="fill:#ff7f2a;fill-opacity:1">
			<path
   d="m 360.693,198.729 c 1.373,-6.779 2.1,-13.794 2.1,-20.979 0,-58.085 -47.088,-105.173 -105.174,-105.173 -43.075,0 -80.082,25.91 -96.342,62.984 -12.494,-8.139 -27.381,-12.912 -43.403,-12.912 -42.125,0 -76.526,32.714 -79.396,74.109 C 15.79,207.169 0,230.028 0,256.626 c 0,36.396 29.506,65.902 65.902,65.902 0,0 71.396,0 95.194,0 4.667,0 4.894,-5.179 4.894,-5.179 v -42.28 c 0,-3.612 -2.955,-6.567 -6.568,-6.567 h -18.007 c -3.612,0 -4.809,-2.375 -2.658,-5.276 l 54.887,-74.094 c 2.15,-2.902 5.668,-2.902 7.818,0 l 54.886,74.094 c 2.148,2.901 0.953,5.276 -2.657,5.276 h -18.009 c -3.61,0 -6.567,2.955 -6.567,6.567 v 42.364 c 0,0 0.274,5.095 5.108,5.095 23.746,0 94.979,0 94.979,0 36.396,0 65.902,-29.506 65.902,-65.902 0,-24.987 -13.913,-46.725 -34.411,-57.897 z"
   id="path2"
   style="fill:#ff7f2a;fill-opacity:1"
   inkscape:connector-curvature="0" />
		</g>
	</g>
</g>
<g
   id="g9"
   transform="translate(0,-364.104)">
</g>
<g
   id="g11"
   transform="translate(0,-364.104)">
</g>
<g
   id="g13"
   transform="translate(0,-364.104)">
</g>
<g
   id="g15"
   transform="translate(0,-364.104)">
</g>
<g
   id="g17"
   transform="translate(0,-364.104)">
</g>
<g
   id="g19"
   transform="translate(0,-364.104)">
</g>
<g
   id="g21"
   transform="translate(0,-364.104)">
</g>
<g
   id="g23"
   transform="translate(0,-364.104)">
</g>
<g
   id="g25"
   transform="translate(0,-364.104)">
</g>
<g
   id="g27"
   transform="translate(0,-364.104)">
</g>
<g
   id="g29"
   transform="translate(0,-364.104)">
</g>
<g
   id="g31"
   transform="translate(0,-364.104)">
</g>
<g
   id="g33"
   transform="translate(0,-364.104)">
</g>
<g
   id="g35"
   transform="translate(0,-364.104)">
</g>
<g
   id="g37"
   transform="translate(0,-364.104)">
</g>
</svg>