<?xml version="1.0" encoding="utf-8"?>
<!-- Generator: Adobe Illustrator 24.0.2, SVG Export Plug-In . SVG Version: 6.00 Build 0)  -->
<svg version="1.1" id="Layer_1" xmlns="http://www.w3.org/2000/svg" xmlns:xlink="http://www.w3.org/1999/xlink" x="0px" y="0px"
	 viewBox="0 0 50 50" style="enable-background:new 0 0 50 50;" xml:space="preserve">
<style type="text/css">
	.st0{fill:#FFFFFF;}
	.st1{fill:none;}
</style>
<g>
	<g>
		<path class="st0" d="M15.96,12.17H3.91v-1.91C3.91,8.46,5.37,7,7.17,7h5.54c1.79,0,3.25,1.46,3.25,3.26V12.17z M6.25,9.9h7.37
			c-0.14-0.37-0.5-0.63-0.92-0.63H7.17C6.75,9.27,6.39,9.53,6.25,9.9z"/>
	</g>
	<g>
		<g>
			<path class="st1" d="M16.99,27.4c0,4.74,3.84,8.58,8.58,8.58c4.74,0,8.58-3.84,8.58-8.58c0-4.74-3.84-8.58-8.58-8.58
				C20.83,18.82,16.99,22.66,16.99,27.4z M32.62,27.4c0,1.95-0.79,3.71-2.07,4.99c-1.28,1.28-3.04,2.07-4.99,2.07
				c-1.95,0-3.71-0.79-4.99-2.07c-1.28-1.28-2.07-3.04-2.07-4.99c0-1.95,0.79-3.71,2.07-4.99c1.28-1.28,3.04-2.07,4.99-2.07
				c1.95,0,3.71,0.79,4.99,2.07C31.83,23.69,32.62,25.45,32.62,27.4z"/>
		</g>
		<g>
			<path class="st0" d="M25.57,35.43c-2.15,0-4.16-0.84-5.68-2.35c-1.52-1.52-2.35-3.53-2.35-5.68c0-2.14,0.84-4.16,2.35-5.68
				c1.52-1.52,3.53-2.35,5.67-2.35c2.14,0,4.16,0.83,5.68,2.35c1.51,1.52,2.35,3.53,2.35,5.68c0,2.15-0.84,4.16-2.35,5.68
				C29.73,34.59,27.71,35.43,25.57,35.43z M20.58,22.41l0.69,0.69c-1.15,1.15-1.78,2.68-1.78,4.3s0.63,3.15,1.78,4.3
				c1.15,1.15,2.68,1.78,4.3,1.78c1.63,0,3.15-0.64,4.3-1.78c1.15-1.15,1.78-2.68,1.78-4.3c0-1.62-0.64-3.15-1.78-4.3
				c-1.15-1.15-2.68-1.78-4.3-1.78c-1.62,0-3.15,0.63-4.3,1.78L20.58,22.41z"/>
		</g>
		<g>
			<path class="st0" d="M45.07,42.15H6c-2.63,0-4.78-2.14-4.78-4.78V17.43c0-2.63,2.14-4.77,4.78-4.77h10
				c0.93-2.59,3.37-4.34,6.18-4.34h6.71c2.81,0,5.25,1.75,6.18,4.34h9.99c2.63,0,4.77,2.14,4.77,4.77v19.95
				C49.84,40.01,47.7,42.15,45.07,42.15z M6,14.6c-1.56,0-2.83,1.27-2.83,2.83v19.95c0,1.56,1.27,2.83,2.83,2.83h39.07
				c1.56,0,2.83-1.27,2.83-2.83V17.43c0-1.56-1.27-2.83-2.83-2.83H33.57l-0.17-0.75c-0.49-2.11-2.34-3.59-4.51-3.59h-6.71
				c-2.17,0-4.02,1.48-4.51,3.59L17.5,14.6H6z M25.57,36.95c-5.26,0-9.55-4.28-9.55-9.55c0-5.27,4.28-9.55,9.55-9.55
				c5.27,0,9.55,4.28,9.55,9.55C35.12,32.66,30.83,36.95,25.57,36.95z M25.57,19.79c-4.19,0-7.6,3.41-7.6,7.61
				c0,4.19,3.41,7.6,7.6,7.6c4.19,0,7.61-3.41,7.61-7.6C33.17,23.2,29.76,19.79,25.57,19.79z M43.24,18.6h-3.99
				c-0.94,0-1.7-0.76-1.7-1.7c0-0.94,0.76-1.7,1.7-1.7h3.99c0.94,0,1.7,0.76,1.7,1.7C44.94,17.83,44.18,18.6,43.24,18.6z"/>
		</g>
	</g>
</g>
</svg>
