<?xml version="1.0" encoding="utf-8"?>
<!-- Generator: Adobe Illustrator 24.0.2, SVG Export Plug-In . SVG Version: 6.00 Build 0)  -->
<svg version="1.1" id="Pattern" xmlns="http://www.w3.org/2000/svg" xmlns:xlink="http://www.w3.org/1999/xlink" x="0px" y="0px"
	 viewBox="0 0 1000 1000" style="enable-background:new 0 0 1000 1000;" xml:space="preserve">
<style type="text/css">
	.st0{fill:none;}
	.st1{fill:#E6E6E7;}
	.st2{fill:#FFFFFF;}
	.st3{fill:url(#SVGID_1_);}
</style>
<pattern  x="-61" y="-61" width="1000" height="1000" patternUnits="userSpaceOnUse" id="New_Pattern_Swatch_37" viewBox="0 -1000 1000 1000" style="overflow:visible;">
	<g>
		<rect y="-1000" class="st0" width="1000" height="1000"/>
		<path class="st1" d="M931.59,0h-59.26c1.63-3.85,3.15-7.76,4.66-11.64c5.47-14.14,16.42-42.41,16.42-42.41
			s-62.65,16.32-90.87,31.78C793.11-17.11,783.01-9.06,773.22,0h-46.59c1.4-2.27,2.73-4.59,3.94-6.99
			c14.04-27.88,11.57-61.52,12.73-91.83c0,0-22.9,14.77-27.59,18.27c-16,11.95-30.77,22.39-43.17,36.57
			c-4.44,5.08-8.58,10.64-12.36,16.93C654.98-18.44,650.12-9.36,645.78,0h-82.47c13.06-18.9,20.69-41.39,20.17-64.32
			c-33.66,5.28-66.01,5.66-93.97,28.12C476.77-25.98,466.61-13.24,456.93,0h-48.36c1.15-2.02,2.25-4.08,3.24-6.2
			c5.86-12.55,8.64-26.28,11.37-39.85c4.61-22.93,9.22-45.86,13.82-68.78c-29.31,17.79-66.04,22.98-91.5,45.95
			c-18.03,16.26-28.03,39.43-36.4,62.23c-0.82,2.24-1.68,4.46-2.56,6.67h-43.93c2.91-9.01,4.52-18.38,4.39-27.88
			c-0.43-30.68-18.55-59.57-16.3-90.17c-22.91,20.6-46.42,41.99-59.39,69.94C184.79-34.07,180.87-17.33,179.56,0H154.8
			c-1.14-23.79-7.49-47.8-18.22-68.8c-16.81-32.9-76.6-73.82-76.6-73.82s2,43.23,2.15,49.46c0.42,17.41-0.28,36.78,2.44,53.56
			C66.83-25.71,71.11-12.5,76.94,0H11.21c1.55-2.03,3.02-4.13,4.38-6.32c7.91-12.8,11.21-27.8,12.67-42.61
			c1.94-19.71,2.6-39.69-3.4-59c-0.27-0.85-3.92-10.73-3.37-11.1C14.3-114.27,7.07-109.83,0-105.34v-147.15
			c0.65-0.73,1.31-1.45,1.95-2.19c15.06-17.42,25.48-38.47,31.64-60.59c5.2-18.68,9.5-40.7,11.09-60
			c-15.6,7.57-30.53,18.55-44.68,29v-45.49c13.58-2.5,26.43-6.73,38.23-12.47c33.99-16.53,78.31-77.15,78.31-77.15
			s-28.01-2.38-42.38-5.67c-26.12-5.99-51.67-5.03-74.15,1.82v-59.5c12.54-5.9,24.75-12.43,36.15-20.28
			c18.9-13.01,35.63-29.89,45.4-50.65c10.82-22.99,18.25-49.52,25.95-73.88c-22.42,6.27-44.35,12.75-65.9,20.91
			c-9.27,3.51-18.6,7.18-26.7,12.9c-5.77,4.07-10.7,9.05-14.9,14.64v-82.77c17.94-10.87,36.49-20.86,49.38-37.15
			c13.75-17.37,19.23-39.74,23.29-61.52c4.09-21.92,11.47-42.66,16.9-64.11c-25.05,1.72-49.35,12.37-70.04,26.71
			C12.4-854.97,5.78-849.18,0-842.69v-27.02c19.33-7.15,34.89-23.41,44.13-42.05c10.44-21.1,13.72-45.02,14.64-68.54
			C38.53-977.4,18.71-971.68,0-963.43v-24.44c2.89-2.64,5.64-5.42,8.19-8.39c1.04-1.21,2.04-2.47,3.02-3.74h65.73
			c7.5,16.08,17.58,30.98,29.24,44.63c3.39,3.97,25.21,33.67,25.21,33.67s22.39-38.62,23.48-63.83c0.21-4.8,0.17-9.63-0.06-14.47
			h24.75c-2.13,28.08,2.59,57.75,14.28,80.18c18.24-7.2,38.07-29.65,49.9-45.05c8.12-10.56,14.79-22.49,18.87-35.13h43.93
			c-8.14,20.4-18.58,39.51-27.41,59.53c27.39,2.72,55.59-4.36,80.57-16.07c20.05-9.4,37.97-24.29,48.87-43.46h48.36
			c-12.74,17.43-24.64,35.73-40.44,50.32c37.93,8.79,79.64,3.86,112.47-17.09c13.49-8.61,25.25-20.05,34.36-33.23h82.47
			c-7.88,16.99-14.02,34.95-17.16,53c-0.13,0.73,40.02-7.75,43.78-9.17c22.16-8.39,41.81-23.61,54.24-43.83h46.59
			c-27.72,25.67-52.89,59.55-52.89,59.55s32.89,1.51,49.69-0.21c15.47-1.59,32.1-4.08,46.9-9.08c14.78-5.01,29.31-12.13,39.73-23.75
			c6.9-7.69,11.63-16.94,15.68-26.51h59.26c-3.64,18.59-7,37.32-14.26,54.7c19.55-3.99,38.29-13.69,55.51-23.45
			c9.51-5.39,18.94-11.63,27.16-19.12v24.44c-10.69,4.71-21.02,10.24-30.84,16.56c-7.6,4.89-14.93,10.26-21.35,16.62
			c-22.08,21.18-31.7,50.7-43.97,77.82c29.42-10.81,58.71-8.16,88.36-14.94c2.67-0.61,5.27-1.4,7.81-2.34v27.02
			c-9.12,10.23-16.17,22.21-19.81,35.39c-3.36,12.18-3.78,24.95-4.17,37.58c-0.66,21.33-1.32,42.66-1.98,63.98
			c7.95-6.88,16.88-12.6,25.96-18.1v82.77c-8.97,11.93-14.58,26.66-17.7,41.4c-4.59,21.65-4.62,43.98-7.32,65.94
			c8.4-3.51,16.78-7.11,25.02-10.99v59.5c-29.49,8.99-53.7,28.15-66.93,55.21c-6.25,12.78-20.22,35.9-20.22,35.9
			s13.56-0.79,21.3,0.69c12.69,2.43,24.99,4.28,37.31,4.27c9.79,0,19.33-0.91,28.54-2.6v45.49c-1.75,1.3-3.5,2.58-5.22,3.86
			c-10.6,7.76-21.08,15.95-29.18,26.29c-12,15.31-18.13,34.59-20.27,53.93c-2.14,19.34-0.52,38.88,1.62,58.22
			c9.29-8.18,18.58-16.36,27.87-24.54c8.71-7.66,17.43-15.37,25.18-23.98v147.15c-0.15,0.09-0.29,0.18-0.44,0.28
			c-20.71,13.19-39.89,26.92-51.83,50.7C939.21-37.38,935.26-18.75,931.59,0z M905.69-352.25c-21.54,19.37-43.64,39.49-55.84,65.76
			c-16.06,34.6-15.39,86.51,2.37,120.63c17.15-6.77,35.8-27.88,46.92-42.36c13.07-17.01,22.17-37.8,21.87-59.25
			C920.62-296.32,903.58-323.48,905.69-352.25z M917.43-489.31c-33.28,5.76-64.69,21.16-89.76,44.02
			c-17.08,15.58-31.8,36.04-33.31,59.8c-1.69,26.63,10.67,50.12,23.54,72.38c21.25-33.32,53.33-56.53,73.71-91.43
			c7.58-12.99,13.66-26.95,18.05-41.5C910.79-449.8,917.51-489.32,917.43-489.31z M538.05-699.35
			c22.71-22.81,36.33-52.08,43.83-83.1c1.23-5.07,12.48-40.17,12.48-40.17s-44.41,4.52-65.47,18.42
			c-23.69,15.64-43.83,38.37-56.72,63.65c-16.78,32.91-14.87,105.34-14.87,105.34s33.84-26.98,38.79-30.75
			C509.95-676.52,526.06-687.31,538.05-699.35z M532.2-516.31c-22.95,25.44-52.64,37.79-77.88,59.43
			c-19.53,16.76-28.28,43.66-27.65,69.38c0.64,25.73,9.64,50.54,20.73,73.77c28.44-20.61,52.38-47.4,69.68-77.96
			c4.86-8.6,9.22-17.52,12.19-26.94C539.86-450.36,534.14-483.82,532.2-516.31z M711.38-564.11c27.62-7.41,56.91-21.57,74.83-44.49
			c18.54-23.72,24.05-54.79,28.97-84.48c-25.07,5.95-49.55,14.37-72.98,25.09c-13.69,6.26-27.09,13.35-39.06,22.48
			c-26.09,19.89-45.3,46.47-59.13,76.33C667.42-563.73,687.31-557.65,711.38-564.11z M654.75-531.39
			c-19.68,11.78-39.22,24.12-56.06,39.7c-16.84,15.58-30.98,34.69-37.68,56.63c-7.41,24.3-10.97,51.62-15.1,76.83
			c21.29-9.42,42.07-18.97,62.23-30.13c8.67-4.8,17.38-9.77,24.58-16.59c16.06-15.22,22.8-38.05,24.24-60.13
			C658.39-487.17,655.23-509.27,654.75-531.39z M689.83-411.81c26.04-26.06,66.28-41.27,89.91-68.85
			c22.4-26.14,19.47-55.81,21.93-86.8c-43.95,0.04-84.06,21.57-104.25,52.13C677.23-484.77,676-446.41,689.83-411.81z
			 M966.19-672.18c0,0-34.69,25.87-39.77,29.48c-14.19,10.1-30.63,20.37-43.01,32.01c-23.44,22.06-38,50.87-46.5,81.64
			c-1.39,5.03-13.78,39.74-13.78,39.74s44.53-3.08,66.03-16.3c24.18-14.87,45.05-36.93,58.75-61.78
			C965.76-599.73,966.19-672.18,966.19-672.18z M856.73-737.43c-21.41,32.52-26.64,76.14-9.95,111.32
			c28.57-18.56,57.94-32.12,74.31-64.03c17.26-33.68,16.43-74.01,31.33-108.8C914.2-791.48,878.15-769.95,856.73-737.43z
			 M727.67-815.23c42.56-15.77,87.93-12.91,124.51-43.85c24.54-20.75,40.56-52.57,38.37-84.63c-33.5,11.26-66.96,24.1-95.77,44.58
			c-13.63,9.69-29.08,21.67-38.81,35.44C745.17-848.4,735.69-832.16,727.67-815.23z M695.46-701.94
			c-2.65,7.39-9.51,21.29-9.51,21.29s43.49-10.49,59.3-16.57c18.57-7.14,36.54-15.9,53.28-26.68c34.2-22.03,62.03-52.49,80.25-88.92
			c0.3-0.59,0.59-1.19,0.89-1.78l-24.06,0.89c-31.17,1.15-62.57,7.88-89.54,23.28c-8.6,4.91-16.75,10.7-24.3,17.48
			C720.74-754.08,704.97-728.41,695.46-701.94z M628.69-718.88c1.63,3.85,15.85,27.61,13.17,30.25
			c26.13-25.74,46.27-61.04,52.64-97.34c4.35-24.76,1.62-49.93-0.2-74.78c-0.92-12.5-1.76-25.04-1.36-37.58
			c0.18-5.52,2.5-33.86,2.5-33.86s-59.59,43.21-72.85,76.89C605.84-812.78,611.07-760.39,628.69-718.88z M596.58-712.53
			c-12.69,26.88-36.78,48.19-44.21,76.97c-5.26,20.38-1.42,41.92,3.42,62.4c4.88,20.62,6.44,41.47,9.97,62.2
			c21.1-11.13,38.12-29.73,50.58-50.13c11.07-18.12,17.06-39.83,13.95-60.83c-1.76-11.88-6.31-23.13-10.83-34.25
			C611.84-674.96,604.21-693.74,596.58-712.53z M455.1-792.09c14.02-10.56,31.11-14.07,46.43-21.89c17.62-9,35.18-18.32,50.91-30.43
			c13.48-10.37,25.67-22.92,33.16-38.2c12.99-26.51,10.45-57.65,7.62-87.04c-18.56,10.08-36.7,20.92-54.37,32.48
			c-14.1,9.23-28.09,19.09-38.81,32.09c-8.42,10.21-15.05,22.29-20.56,35.23C468.78-844.73,462.29-816.36,455.1-792.09z
			 M434.8-581.79c-17.16,14.63-32.1,31.88-44.13,50.95c-9.02,14.3-17.15,29.23-24.3,44.5c0.42,0.47,1.09,0.62,1.63,0.94
			c18.5,2.23,36.65,2.39,55.05-1.26c12.37-2.45,24.46-6.49,35.87-11.87c22.51-10.61,41.27-30.06,50.43-53.26
			c9.89-25.05,12.8-56.95,12.22-83.73c-9.29,7.08-20.52,12.1-30.68,17.83c-8.33,4.7-16.89,9-25.13,13.84
			C454.81-597.41,444.46-590.01,434.8-581.79z M419.99-758.47c-21.37,36.61-58.23,62.76-77.02,100.76
			c-17.81,36.01-10.42,71.49-8.07,109.58c42.79-8.44,78.56-42.23,93.55-83.2C443.42-672.28,438.75-719.09,419.99-758.47z
			 M345.83-810.94c-15.54,18.46-28,40.41-34.04,64.29c-1.8,7.1-8.79,49.81-8.79,49.81s31.79-15.38,38.7-20.34
			c32.55-23.35,63.98-51.59,79.87-90.34c9.68-23.6,12.93-49.66,12.5-75.34C402.54-861.78,370.56-840.31,345.83-810.94z
			 M304.99-631.12c-4.68-13.43-11.28-39.63-11.28-39.63s-8.98,10.19-15.48,14.64c-10.66,7.31-20.63,14.74-29.29,23.5
			c-17.04,17.22-29.19,37.19-36.29,58.04c-12.18,35.78-0.3,109.93-0.3,109.93s21.4-18.22,33.86-26.12
			C298.55-523.92,322.46-581,304.99-631.12z M231.73-825.55c0,0,56.67-13.52,82.35-26.9c32.86-17.13,75.49-72.08,75.49-72.08
			s-29.56-1.97-44.71-0.73c-13.95,1.14-28.96,3.07-42.36,7.3c-13.39,4.23-26.6,10.37-36.19,20.63
			c-8.91,9.53-14.05,21.88-19.01,33.94C242.11-850.78,231.73-825.55,231.73-825.55z M208.86-771.41
			c-19.52,13.73-34.57,32.91-45.21,54.14c-11.04,22.02-29.81,66.5-29.81,66.5s59.8-16.11,69.33-19.45
			c30.36-10.64,63.47-27.7,79.53-57.01c15.14-27.63,17.22-92.32,17.22-92.32S237-791.2,208.86-771.41z M157.63-757.51
			c40.57-34.43,43.55-78.7,47.78-127.87c0.04-0.64,0.07-1.28,0.11-1.92c-12.52,4.29-24.73,9.13-36.48,14.13
			c-31.02,13.2-56.41,36.37-68.78,68.13c-7.63,19.6-9.85,42.02-20.9,59.71c-6.89,11.02-14.14,21.83-21.2,32.74
			c13.05-2.92,26.48-5.15,39.34-8.8C120-727.75,140-742.56,157.63-757.51z M165.3-542.27c8.58-9.28,14.81-20.44,20.95-31.48
			c10.38-18.65,20.75-37.29,31.13-55.94c-30.41,7.32-63.79,1.62-92.29,14.51c-20.19,9.12-35.32,26.48-48.92,43.96
			c-13.69,17.6-29.77,32.64-44.44,49.2c23.05,9.97,49.52,11.66,74.49,8.42C128.37-516.46,150.13-525.86,165.3-542.27z M64.03-309.2
			c-0.06,0.88,46.47-14.42,50.74-16.6c28.02-14.3,51.3-38.19,62.38-67.89c13.02-34.91,5.69-74.5,3.1-110.61
			c0,0-25.24,20.52-30.34,25.28c-17.42,16.26-33.58,30.58-46.44,49.02c-4.61,6.61-8.79,13.75-12.46,21.7
			C76.86-377.61,66.16-343.06,64.03-309.2z M143.35-303.85c0,0-29.76,11-44.81,16.39c-23.66,8.46-41.81,24.07-56.1,44.64
			c-5.63,8.11-10.22,16.99-13.81,26.18c-7.41,18.99-12.54,59.66-12.54,59.66s15.68-4.52,18.01-4.92c8.81-1.52,17.19-4.1,25.45-7.57
			c19.12-8.03,36.92-20.4,49.13-37.36C127.38-232.8,143.35-303.85,143.35-303.85z M249.61-312.97
			c-43.05,17.13-80.49,50.24-98.39,92.98c-17.9,42.74-14.42,94.9,12.83,132.38c29.34-27.99,60.71-50.3,72.83-91.22
			C249.68-222.02,239.84-269.01,249.61-312.97z M288.16-380.99c22.61-23.38,43.21-105.31,43.21-105.31s-33.44,7.31-37.89,8.75
			c-13.11,4.23-25.3,11.91-35.85,20.65c-21.5,17.82-37.4,41.92-49,67.11c-11.26,24.43-17.43,51.4-32.48,73.7
			C216.41-332.51,257.93-349.74,288.16-380.99z M288.64-230.42c31.4-22.33,63.37-45.21,86.06-76.35
			c7.35-10.09,13.68-21.05,17.41-32.97c6.69-21.4,4.43-44.11-0.62-65.59c-2.41-10.26-13.96-39.48-13.96-39.48s-5.7,14.97-9.32,21.67
			c-4.73,8.74-10.93,16.67-17.61,23.99c-13.13,14.39-28.34,26.9-40.38,42.22C282.66-321.88,274.26-272.63,288.64-230.42z
			 M398.43-280.43c-22.41,19.52-53.03,29.37-71.39,52.74c-13,16.55-18.14,37.82-21.92,58.52c-3.81,20.84-10.76,40.57-15.85,60.97
			c23.8-1.72,46.85-11.92,66.46-25.6c17.41-12.15,31.62-29.62,37.2-50.1c3.16-11.58,3.51-23.72,3.83-35.72
			C397.32-239.9,397.87-260.17,398.43-280.43z M553.29-242.55c0.09-0.13,0.18-0.25,0.26-0.38c15.53-22.35,25.56-47.89,35.31-73.13
			c3.08-7.99,11.8-22.65,11.8-22.65s-16.38,4.67-24.57,7c-28.93,8.24-60.21,24.01-84.86,41.16c-23.15,16.11-40.53,38.99-53.15,63.99
			C426.34-203.29,411.64-147,411.64-147s7.85-2.85,11.64-4.44C470.28-171.21,523.48-199.88,553.29-242.55z M607.4-216.12
			c0,0-33.31,15.54-49.17,24.05c-14.51,7.79-28.36,16.83-41.32,27c-15.37,12.06-29.94,26.34-36.85,44.61
			c-7.33,19.35-16.47,59.52-16.47,59.52s53.38-15.83,76.91-30.24c20.16-12.35,34.74-30.9,45.06-51.93
			C596.98-166.38,601.52-191.1,607.4-216.12z M725.78-235.44c-36.77,12.14-68.63,38.57-87.34,72.47
			c-19.24,34.85-28.49,82.47-30.24,121.9c9.3-2.47,18.31-6.05,26.77-10.64c30.03-16.3,52.97-42.3,66.91-73.45
			C717.3-159.63,721.63-197.89,725.78-235.44z M754.32-335.08c6.52-21.66,13.04-43.31,19.56-64.97
			c-29.83,14.47-65.67,16.13-92.27,35.92c-18.83,14.02-30.57,35.42-40.7,56.6c-10.19,21.33-23.43,40.53-34.87,61.01
			c26.12,5.1,53.92,0.85,79.03-8.15c22.29-7.99,42.7-22.66,54.69-43.08C746.54-309.29,750.46-322.25,754.32-335.08z M807.43-218.08
			c-1.93-9.42-5.57-18.4-9.48-27.19c-6.07-13.63-21.23-41.07-21.23-41.07s-16.85,34.77-21.12,53.23
			c-5.62,24.32-9.74,50.6-1.16,74.76c8.12,22.84,26.48,40.35,44.94,56.06C794.44-140.89,815.25-179.97,807.43-218.08z
			 M959.39-129.32c4.6-7.33,8.41-15.71,11.11-23.88c0.85-2.57,4.25-30.09,3.41-29.84c-31.21,8.97-61.6,18.27-88.49,34.97
			c-9.71,6.03-18.96,13.02-27.62,21.32c-21.23,20.32-51.25,70.8-51.25,70.8s15.85-6.54,19.32-7.64
			C872.55-78.39,930.79-83.72,959.39-129.32z"/>
		<path class="st2" d="M342.96-657.71c-17.81,36.01-10.42,71.49-8.07,109.58c42.79-8.44,78.56-42.23,93.55-83.2
			c14.99-40.96,10.31-87.77-8.45-127.15C398.61-721.86,361.75-695.71,342.96-657.71z"/>
		<path class="st2" d="M856.73-737.43c-21.41,32.52-26.64,76.14-9.95,111.32c28.57-18.56,57.94-32.12,74.31-64.03
			c17.26-33.68,16.43-74.01,31.33-108.8C914.2-791.48,878.15-769.95,856.73-737.43z"/>
		<path class="st2" d="M151.23-219.99c-17.9,42.74-14.42,94.9,12.83,132.38c29.34-27.99,60.71-50.3,72.83-91.22
			c12.79-43.18,2.95-90.17,12.73-134.13C206.56-295.84,169.12-262.73,151.23-219.99z"/>
		<path class="st2" d="M779.75-480.66c22.4-26.14,19.47-55.81,21.93-86.8c-43.95,0.04-84.06,21.57-104.25,52.13
			c-20.19,30.56-21.42,68.92-7.58,103.52C715.88-437.87,756.11-453.08,779.75-480.66z"/>
		<path class="st2" d="M390.67-530.83c-9.02,14.3-17.15,29.23-24.3,44.5c0.42,0.47,1.09,0.62,1.63,0.94
			c18.5,2.23,36.65,2.39,55.05-1.26c12.37-2.45,24.46-6.49,35.87-11.87c22.51-10.61,41.27-30.06,50.43-53.26
			c9.89-25.05,12.8-56.95,12.22-83.73c-9.29,7.08-20.52,12.1-30.68,17.83c-8.33,4.7-16.89,9-25.13,13.84
			c-10.94,6.42-21.3,13.82-30.95,22.04C417.64-567.16,402.71-549.9,390.67-530.83z"/>
		<path class="st2" d="M581.88-782.45c1.23-5.07,12.48-40.17,12.48-40.17s-44.41,4.52-65.47,18.42
			c-23.69,15.64-43.83,38.37-56.72,63.65c-16.78,32.91-14.87,105.34-14.87,105.34s33.84-26.98,38.79-30.75
			c13.85-10.55,29.96-21.35,41.95-33.39C560.76-722.16,574.38-751.43,581.88-782.45z"/>
		<path class="st2" d="M883.41-610.69c-23.44,22.06-38,50.87-46.5,81.64c-1.39,5.03-13.78,39.74-13.78,39.74s44.53-3.08,66.03-16.3
			c24.18-14.87,45.05-36.93,58.75-61.78c17.84-32.35,18.27-104.8,18.27-104.8s-34.69,25.87-39.77,29.48
			C912.23-632.6,895.78-622.34,883.41-610.69z"/>
		<path class="st2" d="M553.29-242.55c0.09-0.13,0.18-0.25,0.26-0.38c15.53-22.35,25.56-47.89,35.31-73.13
			c3.08-7.99,11.8-22.65,11.8-22.65s-16.38,4.67-24.57,7c-28.93,8.24-60.21,24.01-84.86,41.16c-23.15,16.11-40.53,38.99-53.15,63.99
			C426.34-203.29,411.64-147,411.64-147s7.85-2.85,11.64-4.44C470.28-171.21,523.48-199.88,553.29-242.55z"/>
		<path class="st2" d="M555.79-573.16c4.88,20.62,6.44,41.47,9.97,62.2c21.1-11.13,38.12-29.73,50.58-50.13
			c11.07-18.12,17.06-39.83,13.95-60.83c-1.76-11.88-6.31-23.13-10.83-34.25c-7.63-18.78-15.25-37.57-22.88-56.35
			c-12.69,26.88-36.78,48.19-44.21,76.97C547.11-615.18,550.95-593.64,555.79-573.16z"/>
		<path class="st2" d="M327.03-227.69c-13,16.55-18.14,37.82-21.92,58.52c-3.81,20.84-10.76,40.57-15.85,60.97
			c23.8-1.72,46.85-11.92,66.46-25.6c17.41-12.15,31.62-29.62,37.2-50.1c3.16-11.58,3.51-23.72,3.83-35.72
			c0.56-20.27,1.11-40.53,1.67-60.8C376.02-260.91,345.4-251.06,327.03-227.69z"/>
		<path class="st2" d="M165.3-542.27c8.58-9.28,14.81-20.44,20.95-31.48c10.38-18.65,20.75-37.29,31.13-55.94
			c-30.41,7.32-63.79,1.62-92.29,14.51c-20.19,9.12-35.32,26.48-48.92,43.96c-13.69,17.6-29.77,32.64-44.44,49.2
			c23.05,9.97,49.52,11.66,74.49,8.42C128.37-516.46,150.13-525.86,165.3-542.27z"/>
		<path class="st2" d="M773.88-400.04c-29.83,14.47-65.67,16.13-92.27,35.92c-18.83,14.02-30.57,35.42-40.7,56.6
			c-10.19,21.33-23.43,40.53-34.87,61.01c26.12,5.1,53.92,0.85,79.03-8.15c22.29-7.99,42.7-22.66,54.69-43.08
			c6.78-11.55,10.7-24.51,14.56-37.34C760.84-356.73,767.36-378.39,773.88-400.04z"/>
		<path class="st2" d="M454.33-456.88c-19.53,16.76-28.28,43.66-27.65,69.38c0.64,25.73,9.64,50.54,20.73,73.77
			c28.44-20.61,52.38-47.4,69.68-77.96c4.86-8.6,9.22-17.52,12.19-26.94c10.58-31.73,4.86-65.19,2.92-97.68
			C509.25-490.87,479.56-478.52,454.33-456.88z"/>
		<path class="st2" d="M561.01-435.06c-7.41,24.3-10.97,51.62-15.1,76.83c21.29-9.42,42.07-18.97,62.23-30.13
			c8.67-4.8,17.38-9.77,24.58-16.59c16.06-15.22,22.8-38.05,24.24-60.13c1.44-22.08-1.72-44.19-2.2-66.31
			c-19.68,11.78-39.22,24.12-56.06,39.7C581.85-476.11,567.7-457,561.01-435.06z"/>
		<path class="st2" d="M711.38-564.11c27.62-7.41,56.91-21.57,74.83-44.49c18.54-23.72,24.05-54.79,28.97-84.48
			c-25.07,5.95-49.55,14.37-72.98,25.09c-13.69,6.26-27.09,13.35-39.06,22.48c-26.09,19.89-45.3,46.47-59.13,76.33
			C667.42-563.73,687.31-557.65,711.38-564.11z"/>
		<path class="st2" d="M641.86-688.63c26.13-25.74,46.27-61.04,52.64-97.34c4.35-24.76,1.62-49.93-0.2-74.78
			c-0.92-12.5-1.76-25.04-1.36-37.58c0.18-5.52,2.5-33.86,2.5-33.86s-59.59,43.21-72.85,76.89c-16.75,42.53-11.51,94.92,6.1,136.43
			C630.32-715.03,644.54-691.27,641.86-688.63z"/>
		<path class="st2" d="M794.36-385.48c-1.69,26.63,10.67,50.12,23.54,72.38c21.25-33.32,53.33-56.53,73.71-91.43
			c7.58-12.99,13.66-26.95,18.05-41.5c1.13-3.76,7.86-43.28,7.77-43.27c-33.28,5.76-64.69,21.16-89.76,44.02
			C810.59-429.71,795.88-409.25,794.36-385.48z"/>
		<path class="st2" d="M685.96-680.66c0,0,43.49-10.49,59.3-16.57c18.57-7.14,36.54-15.9,53.28-26.68
			c34.2-22.03,62.03-52.49,80.25-88.92c0.3-0.59,0.59-1.19,0.89-1.78l-24.06,0.89c-31.17,1.15-62.57,7.88-89.54,23.28
			c-8.6,4.91-16.75,10.7-24.3,17.48c-21.04,18.88-36.8,44.56-46.31,71.03C692.81-694.55,685.96-680.66,685.96-680.66z"/>
		<path class="st2" d="M163.65-717.27c-11.04,22.02-29.81,66.5-29.81,66.5s59.8-16.11,69.33-19.45
			c30.36-10.64,63.47-27.7,79.53-57.01c15.14-27.63,17.22-92.32,17.22-92.32S237-791.2,208.86-771.41
			C189.34-757.68,174.29-738.5,163.65-717.27z"/>
		<path class="st2" d="M345.83-810.94c-15.54,18.46-28,40.41-34.04,64.29c-1.8,7.1-8.79,49.81-8.79,49.81s31.79-15.38,38.7-20.34
			c32.55-23.35,63.98-51.59,79.87-90.34c9.68-23.6,12.93-49.66,12.5-75.34C402.54-861.78,370.56-840.31,345.83-810.94z"/>
		<path class="st2" d="M278.24-656.11c-10.66,7.31-20.63,14.74-29.29,23.5c-17.04,17.22-29.19,37.19-36.29,58.04
			c-12.18,35.78-0.3,109.93-0.3,109.93s21.4-18.22,33.86-26.12c52.34-33.15,76.24-90.24,58.78-140.36
			c-4.68-13.43-11.28-39.63-11.28-39.63S284.74-660.57,278.24-656.11z"/>
		<path class="st2" d="M114.77-325.8c28.02-14.3,51.3-38.19,62.38-67.89c13.02-34.91,5.69-74.5,3.1-110.61
			c0,0-25.24,20.52-30.34,25.28c-17.42,16.26-33.58,30.58-46.44,49.02c-4.61,6.61-8.79,13.75-12.46,21.7
			c-14.15,30.69-24.85,65.24-26.98,99.1C63.98-308.32,110.5-323.62,114.77-325.8z"/>
		<path class="st2" d="M905.69-352.25c-21.54,19.37-43.64,39.49-55.84,65.76c-16.06,34.6-15.39,86.51,2.37,120.63
			c17.15-6.77,35.8-27.88,46.92-42.36c13.07-17.01,22.17-37.8,21.87-59.25C920.62-296.32,903.58-323.48,905.69-352.25z"/>
		<path class="st2" d="M288.16-380.99c22.61-23.38,43.21-105.31,43.21-105.31s-33.44,7.31-37.89,8.75
			c-13.11,4.23-25.3,11.91-35.85,20.65c-21.5,17.82-37.4,41.92-49,67.11c-11.26,24.43-17.43,51.4-32.48,73.7
			C216.41-332.51,257.93-349.74,288.16-380.99z"/>
		<path class="st2" d="M374.7-306.77c7.35-10.09,13.68-21.05,17.41-32.97c6.69-21.4,4.43-44.11-0.62-65.59
			c-2.41-10.26-13.96-39.48-13.96-39.48s-5.7,14.97-9.32,21.67c-4.73,8.74-10.93,16.67-17.61,23.99
			c-13.13,14.39-28.34,26.9-40.38,42.22c-27.56,35.06-35.96,84.3-21.58,126.52C320.04-252.74,352.02-275.63,374.7-306.77z"/>
		<path class="st2" d="M389.57-924.52c0,0-29.56-1.97-44.71-0.73c-13.95,1.14-28.96,3.07-42.36,7.3
			c-13.39,4.23-26.6,10.37-36.19,20.63c-8.91,9.53-14.05,21.88-19.01,33.94c-5.19,12.62-15.56,37.85-15.56,37.85
			s56.67-13.52,82.35-26.9C346.95-869.57,389.57-924.52,389.57-924.52z"/>
		<path class="st2" d="M552.44-844.41c13.48-10.37,25.67-22.92,33.16-38.2c12.99-26.51,10.45-57.65,7.62-87.04
			c-18.56,10.08-36.7,20.92-54.37,32.48c-14.1,9.23-28.09,19.09-38.81,32.09c-8.42,10.21-15.05,22.29-20.56,35.23
			c-10.7,25.12-17.18,53.49-24.38,77.76c14.02-10.56,31.11-14.07,46.43-21.89C519.15-822.98,536.71-832.31,552.44-844.41z"/>
		<path class="st2" d="M638.44-162.96c-19.24,34.85-28.49,82.47-30.24,121.9c9.3-2.47,18.31-6.05,26.77-10.64
			c30.03-16.3,52.97-42.3,66.91-73.45c15.43-34.48,19.76-72.73,23.91-110.28C689-223.29,657.15-196.87,638.44-162.96z"/>
		<path class="st2" d="M516.91-165.06c-15.37,12.06-29.94,26.34-36.85,44.61c-7.33,19.35-16.47,59.52-16.47,59.52
			s53.38-15.83,76.91-30.24c20.16-12.35,34.74-30.9,45.06-51.93c11.42-23.27,15.96-47.99,21.84-73.01c0,0-33.31,15.54-49.17,24.05
			C543.71-184.27,529.87-175.23,516.91-165.06z"/>
		<path class="st2" d="M807.43-218.08c-1.93-9.42-5.57-18.4-9.48-27.19c-6.07-13.63-21.23-41.07-21.23-41.07
			s-16.85,34.77-21.12,53.23c-5.62,24.32-9.74,50.6-1.16,74.76c8.12,22.84,26.48,40.35,44.94,56.06
			C794.44-140.89,815.25-179.97,807.43-218.08z"/>
		<path class="st2" d="M959.39-129.32c4.6-7.33,8.41-15.71,11.11-23.88c0.85-2.57,4.25-30.09,3.41-29.84
			c-31.21,8.97-61.6,18.27-88.49,34.97c-9.71,6.03-18.96,13.02-27.62,21.32c-21.23,20.32-51.25,70.8-51.25,70.8
			s15.85-6.54,19.32-7.64C872.55-78.39,930.79-83.72,959.39-129.32z"/>
		<path class="st2" d="M98.54-287.46c-23.66,8.46-41.81,24.07-56.1,44.64c-5.63,8.11-10.22,16.99-13.81,26.18
			c-7.41,18.99-12.54,59.66-12.54,59.66s15.68-4.52,18.01-4.92c8.81-1.52,17.19-4.1,25.45-7.57c19.12-8.03,36.92-20.4,49.13-37.36
			c18.69-25.96,34.67-97.01,34.67-97.01S113.59-292.85,98.54-287.46z"/>
		<path class="st2" d="M890.55-943.71c-33.5,11.26-66.96,24.1-95.77,44.58c-13.63,9.69-29.08,21.67-38.81,35.44
			c-10.81,15.3-20.29,31.54-28.31,48.47c42.56-15.77,87.93-12.91,124.51-43.85C876.72-879.84,892.74-911.65,890.55-943.71z"/>
		<path class="st2" d="M205.41-885.38c0.04-0.64,0.07-1.28,0.11-1.92c-12.52,4.29-24.73,9.13-36.48,14.13
			c-31.02,13.2-56.41,36.37-68.78,68.13c-7.63,19.6-9.85,42.02-20.9,59.71c-6.89,11.02-14.14,21.83-21.2,32.74
			c13.05-2.92,26.48-5.15,39.34-8.8c22.49-6.37,42.5-21.17,60.12-36.13C198.2-791.94,201.18-836.22,205.41-885.38z"/>
		<path class="st2" d="M974.98-533.73c8.4-3.51,16.78-7.11,25.02-10.99v-96.35c-8.97,11.93-14.58,26.66-17.7,41.4
			C977.71-578.02,977.67-555.69,974.98-533.73z"/>
		<path class="st2" d="M933.07-430.01c-6.25,12.78-20.22,35.9-20.22,35.9s13.56-0.79,21.3,0.69c12.69,2.43,24.99,4.28,37.31,4.27
			c9.79,0,19.33-0.91,28.54-2.6v-93.47C970.51-476.22,946.3-457.07,933.07-430.01z"/>
		<path class="st2" d="M965.6-316.11c-12,15.31-18.13,34.59-20.27,53.93c-2.14,19.34-0.52,38.88,1.62,58.22
			c9.29-8.18,18.58-16.36,27.87-24.54c8.71-7.66,17.43-15.37,25.18-23.98v-93.77c-1.75,1.3-3.5,2.58-5.22,3.86
			C984.18-334.64,973.7-326.45,965.6-316.11z"/>
		<path class="st2" d="M947.81-930.26c-22.08,21.18-31.7,50.7-43.97,77.82c29.42-10.81,58.71-8.16,88.36-14.94
			c2.67-0.61,5.27-1.4,7.81-2.34v-93.73c-10.69,4.71-21.02,10.24-30.84,16.56C961.56-941.98,954.22-936.61,947.81-930.26z"/>
		<path class="st2" d="M976.02-769.72c-0.66,21.33-1.32,42.66-1.98,63.98c7.95-6.88,16.88-12.6,25.96-18.1v-118.85
			c-9.12,10.23-16.17,22.21-19.81,35.39C976.82-795.12,976.41-782.35,976.02-769.72z"/>
		<path class="st2" d="M423.17-46.05c4.61-22.93,9.22-45.86,13.82-68.78c-29.31,17.79-66.04,22.98-91.5,45.95
			c-18.03,16.26-28.03,39.43-36.4,62.23c-0.82,2.24-1.68,4.46-2.56,6.67h102.04c1.15-2.02,2.25-4.08,3.24-6.2
			C417.67-18.75,420.45-32.48,423.17-46.05z"/>
		<path class="st2" d="M583.49-64.32c-33.66,5.28-66.01,5.66-93.97,28.12C476.77-25.98,466.61-13.24,456.93,0h106.39
			C576.37-18.9,584-41.39,583.49-64.32z"/>
		<path class="st2" d="M743.29-98.82c0,0-22.9,14.77-27.59,18.27c-16,11.95-30.77,22.39-43.17,36.57
			c-4.44,5.08-8.58,10.64-12.36,16.93C654.98-18.44,650.12-9.36,645.78,0h80.85c1.4-2.27,2.73-4.59,3.94-6.99
			C744.61-34.87,742.13-68.51,743.29-98.82z"/>
		<path class="st2" d="M893.41-54.05c0,0-62.65,16.32-90.87,31.78C793.11-17.11,783.01-9.06,773.22,0h99.11
			c1.63-3.85,3.15-7.76,4.66-11.64C882.46-25.78,893.41-54.05,893.41-54.05z"/>
		<path class="st2" d="M59.99-142.63c0,0,2,43.23,2.15,49.46c0.42,17.41-0.28,36.78,2.44,53.56C66.83-25.71,71.11-12.5,76.94,0
			h77.87c-1.14-23.79-7.49-47.8-18.22-68.8C119.77-101.7,59.99-142.63,59.99-142.63z"/>
		<path class="st2" d="M250.69-118.05c-22.91,20.6-46.42,41.99-59.39,69.94C184.79-34.07,180.87-17.33,179.56,0h83.05
			c2.91-9.01,4.52-18.38,4.39-27.88C266.57-58.56,248.44-87.45,250.69-118.05z"/>
		<path class="st2" d="M947.73-54.36C939.21-37.38,935.26-18.75,931.59,0H1000v-105.34c-0.15,0.09-0.29,0.18-0.44,0.28
			C978.85-91.88,959.67-78.14,947.73-54.36z"/>
		<path class="st2" d="M359.69-956.54c20.05-9.4,37.97-24.29,48.87-43.46H306.53c-8.14,20.4-18.58,39.51-27.41,59.53
			C306.51-937.75,334.72-944.83,359.69-956.54z"/>
		<path class="st2" d="M416.49-949.68c37.93,8.79,79.64,3.86,112.47-17.09c13.49-8.61,25.25-20.05,34.36-33.23H456.93
			C444.19-982.57,432.29-964.27,416.49-949.68z"/>
		<path class="st2" d="M672.39-956.17c22.16-8.39,41.81-23.61,54.24-43.83h-80.85c-7.88,16.99-14.02,34.95-17.16,53
			C628.49-946.27,668.64-954.75,672.39-956.17z"/>
		<path class="st2" d="M720.33-940.45c0,0,32.89,1.51,49.69-0.21c15.47-1.59,32.1-4.08,46.9-9.08
			c14.78-5.01,29.31-12.13,39.73-23.75c6.9-7.69,11.63-16.94,15.68-26.51h-99.11C745.51-974.33,720.33-940.45,720.33-940.45z"/>
		<path class="st2" d="M131.39-921.7c0,0,22.39-38.62,23.48-63.83c0.21-4.8,0.17-9.63-0.06-14.47H76.94
			c7.5,16.08,17.58,30.98,29.24,44.63C109.57-951.4,131.39-921.7,131.39-921.7z"/>
		<path class="st2" d="M193.83-919.82c18.24-7.2,38.07-29.65,49.9-45.05c8.12-10.56,14.79-22.49,18.87-35.13h-83.05
			C177.43-971.92,182.15-942.25,193.83-919.82z"/>
		<path class="st2" d="M81.55-615.65c10.82-22.99,18.25-49.52,25.95-73.88c-22.42,6.27-44.35,12.75-65.9,20.91
			c-9.27,3.51-18.6,7.18-26.7,12.9c-5.77,4.07-10.7,9.05-14.9,14.64v96.35c12.54-5.9,24.75-12.43,36.15-20.28
			C55.04-578,71.78-594.89,81.55-615.65z"/>
		<path class="st2" d="M116.54-481.37c0,0-28.01-2.38-42.38-5.67c-26.12-5.99-51.67-5.03-74.15,1.82v93.47
			c13.58-2.5,26.43-6.73,38.23-12.47C72.22-420.74,116.54-481.37,116.54-481.37z"/>
		<path class="st2" d="M33.59-315.26c5.2-18.68,9.5-40.7,11.09-60c-15.6,7.57-30.53,18.55-44.68,29v93.77
			c0.65-0.73,1.31-1.45,1.95-2.19C17.02-272.09,27.43-293.14,33.59-315.26z"/>
		<path class="st2" d="M44.13-911.76c10.44-21.1,13.72-45.02,14.64-68.54C38.53-977.4,18.71-971.68,0-963.43v93.73
			C19.33-876.85,34.89-893.11,44.13-911.76z"/>
		<path class="st2" d="M49.38-760.98c13.75-17.37,19.23-39.74,23.29-61.52c4.09-21.92,11.47-42.66,16.9-64.11
			c-25.05,1.72-49.35,12.37-70.04,26.71C12.4-854.97,5.78-849.18,0-842.69v118.85C17.94-734.7,36.49-744.7,49.38-760.98z"/>
		<path class="st2" d="M28.25-48.93c1.94-19.71,2.6-39.69-3.4-59c-0.27-0.85-3.92-10.73-3.37-11.1C14.3-114.27,7.07-109.83,0-105.34
			V0h11.21c1.55-2.03,3.02-4.13,4.38-6.32C23.49-19.12,26.8-34.11,28.25-48.93z"/>
		<path class="st2" d="M8.19-996.26c1.04-1.21,2.04-2.47,3.02-3.74H7.56H0v9.11v3.02C2.89-990.51,5.64-993.3,8.19-996.26z"/>
		<path class="st2" d="M972.84-968.75c9.51-5.39,18.94-11.63,27.16-19.12V-1000h-68.41c-3.64,18.59-7,37.32-14.26,54.7
			C936.88-949.29,955.61-958.99,972.84-968.75z"/>
	</g>
</pattern>
<pattern  id="SVGID_1_" xlink:href="#New_Pattern_Swatch_37" patternTransform="matrix(1 0 0 1 -101 -303)">
</pattern>
<rect class="st3" width="1000" height="1000"/>
</svg>
